<?xml version="1.0" encoding="utf-8"?>
<!-- Generator: Adobe Illustrator 24.3.0, SVG Export Plug-In . SVG Version: 6.00 Build 0)  -->
<svg version="1.1" id="Layer_1" xmlns="http://www.w3.org/2000/svg" xmlns:xlink="http://www.w3.org/1999/xlink" x="0px" y="0px"
	 viewBox="0 0 465.4 468.9" style="enable-background:new 0 0 465.4 468.9;" xml:space="preserve">
<style type="text/css">
	.st0{fill:#55BCB3;}
	.st1{fill:#F7A605;}
</style>
<g>
	<path d="M236.5,428c-8.2,0-15.6,0-23,0c-64.1,0-128.3,0-192.4,0C4.6,428,0,423.4,0,406.5c0-21.6-0.1-43.3,0-64.9
		c0.3-54.2,42.8-96.8,97.1-97c57.5-0.2,115-0.3,172.5,0.2c11.7,0.1,23.3,3.2,34.9,4.9c0.1,1.3,0.2,2.6,0.3,3.9
		c-2.1,0.8-4.1,2.3-6.2,2.2c-22.3-0.3-38.5,9.5-49.2,28.8c-4.7,8.4-9.8,16.7-14.4,25.2c-9.6,17.5-9.1,34.9,0.6,52.4
		c1.2,2.2,2,6,0.9,7.8c-11,18.3-11.3,36.5-1.1,55.1C236,425.6,236,426.3,236.5,428z"/>
	<path d="M183.2,203.7c-56.4-0.1-102.1-46-101.8-102.2C81.8,45.2,127.6-0.2,184,0c55.8,0.2,101.4,45.9,101.4,101.9
		C285.5,158.1,239.7,203.8,183.2,203.7z"/>
	<path d="M465.4,397.7c-1.4,3.3-2.2,5.7-3.4,7.8c-4.6,8.2-9.3,16.4-14.1,24.5c-4.3,7.3-8.2,8.5-15.9,5.5c-1.4-0.6-3-0.9-4.2-1.8
		c-9.6-6.4-18.7-6.4-27.3,1.7c-2,1.9-4.1,4.3-4.7,6.8c-1.3,5.4-1.6,11.1-2.4,16.6c-0.9,6.6-5,9.9-11.4,10c-10.2,0.2-20.4,0.2-30.5,0
		c-6.5-0.1-10.5-3.4-11.4-10c-0.3-2-0.9-4.1-0.7-6c1.5-12.9-6.6-19.1-16.7-23.7c-1.7-0.8-4.4-0.3-6.3,0.4
		c-5.3,1.9-10.4,4.2-15.5,6.4c-6.1,2.7-11,1.2-14.4-4.5c-5.3-9-10.5-18-15.7-27.1c-3.3-5.8-2-10.7,3.2-14.7c1.6-1.2,3.2-2.5,4.9-3.7
		c13-9.9,13.2-9.9,12-26.2c-0.1-1.8-1.9-3.9-3.5-5.3c-4.3-3.6-8.9-6.8-13.3-10.2c-5.2-4-6.6-8.9-3.3-14.7
		c5.2-9.1,10.3-18.1,15.7-27.1c3.4-5.6,8.3-7.2,14.4-4.5c1.6,0.7,3.5,1.1,4.9,2c9.5,6.3,18.7,6.5,27.3-1.7c2.1-2,4.1-4.8,4.8-7.5
		c1.3-5.1,1.6-10.6,2.3-15.8c0.9-6.6,4.9-9.9,11.4-10c10.2-0.2,20.4-0.1,30.5,0c6.5,0.1,10.5,3.4,11.5,9.9c0.3,2,1,4.1,0.7,6
		c-1.5,12.9,6.7,19.1,16.7,23.7c1.7,0.8,4.4,0.4,6.3-0.3c5.3-1.9,10.4-4.2,15.5-6.4c6.1-2.7,11-1.2,14.4,4.4
		c5.4,8.9,10.5,18,15.7,27.1c3.3,5.8,2,10.7-3.2,14.8c-1.6,1.2-3.2,2.5-4.8,3.7c-13.2,10-13.3,10-12,26.2c0.2,1.9,1.9,3.9,3.5,5.2
		c4.3,3.6,9.1,6.6,13.2,10.4C461.9,391.8,463.5,395.1,465.4,397.7z M366.9,326c-22.3-0.1-41,18.5-40.9,40.8
		c0.1,22.1,18,40.3,40.3,40.7c22.2,0.4,41-18,41.3-40.5C407.8,344.8,389.3,326.2,366.9,326z"/>
</g>
</svg>
