<?xml version="1.0" encoding="utf-8"?>
<!-- Generator: Adobe Illustrator 24.3.0, SVG Export Plug-In . SVG Version: 6.00 Build 0)  -->
<svg version="1.1" id="Layer_1" xmlns="http://www.w3.org/2000/svg" xmlns:xlink="http://www.w3.org/1999/xlink" x="0px" y="0px"
	 viewBox="0 0 547.4 408.8" style="enable-background:new 0 0 547.4 408.8;" xml:space="preserve">
<style type="text/css">
	.st0{fill:#55BCB3;}
	.st1{fill:#F7A605;}
</style>
<g>
	<path d="M348.7,333.4c-4.9,0-9.3,0-13.7,0c-84.3,0-168.6,0-252.9,0c-29.8,0-40.3-10.4-40.3-39.9c0-37,0-74,0-111.8
		c135.6,0,270.2,0,405.6,0c0,9.4,0,18.7,0,28.5C381,223.4,348,264.2,348.7,333.4z M124.5,307.2c7.8,0,15.6,0.2,23.4-0.1
		c15.4-0.6,25.9-10,26.5-25.2c0.7-16.8,0.7-33.7,0-50.5c-0.6-14.6-10.8-24.4-25.5-24.9c-16.4-0.6-32.9-0.6-49.3,0
		c-14.7,0.6-24.8,10.8-25.2,25.2c-0.5,16.8-0.5,33.7,0,50.5c0.5,14.4,10.8,24.1,25.5,24.9C108.1,307.6,116.3,307.2,124.5,307.2z"/>
	<path d="M448.2,105.5c-136.2,0-270.6,0-405.7,0c0-12.1-1.1-23.7,0.3-34.9c1.9-15,14.9-24.6,32.1-24.8c23.9-0.3,47.7-0.1,71.6-0.1
		c87.2,0,174.5,0,261.7,0c29.5,0,39.9,10.5,39.9,40.2C448.2,92.1,448.2,98.2,448.2,105.5z"/>
	<path d="M24.8,285.4C10.3,282.5,3.6,274,0.9,262.1c-1-4.3-0.8-9-0.8-13.5c0-70-0.1-139.9,0-209.9C0,10.2,10.3,0,38.6,0
		c111.1,0,222.1,0,333.2,0c20.4,0,30.5,8,34,28c-4.8,0.2-9.5,0.6-14.1,0.6c-104.1,0-208.1,0-312.2,0c-35.9,0-54.6,18.8-54.6,54.8
		c0,62.6,0,125.1,0,187.7C24.8,275.5,24.8,279.9,24.8,285.4z"/>
	<path d="M42.5,162.7c0-12.7,0-24.9,0-38.3c134.6,0,269.2,0,404.8,0c0,12.3,0,24.9,0,38.3C312.6,162.7,177.9,162.7,42.5,162.7z"/>
	<path d="M91.3,256.2c0.1-36.5-3.7-32.7,33.2-32.7c35.7,0,33.4-4,33.4,32.8c0,38.6,2.7,33.7-33.4,33.8
		C87.1,290.1,91.5,294.3,91.3,256.2z"/>
	<path d="M456.6,228.1c-50,0.1-90.2,40.5-90.2,90.4c0.1,50.1,40.1,90.2,90.2,90.3c50.3,0.1,90.4-39.5,90.7-89.7
		C547.7,268.7,507.2,228,456.6,228.1z"/>
</g>
</svg>
