<?xml version="1.0" encoding="utf-8"?>
<!-- Generator: Adobe Illustrator 24.3.0, SVG Export Plug-In . SVG Version: 6.00 Build 0)  -->
<svg version="1.1" id="Layer_1" xmlns="http://www.w3.org/2000/svg" xmlns:xlink="http://www.w3.org/1999/xlink" x="0px" y="0px"
	 viewBox="0 0 465.4 465.4" style="enable-background:new 0 0 465.4 465.4;" xml:space="preserve">
<style type="text/css">
	.st0{fill:#55BCB3;}
	.st1{fill:#F7A605;}
</style>
<path class="st1" d="M105,43c5.8,2.6,12.1,4.6,17.4,8.1c8.2,5.5,15.9,11.9,23.6,18.2c3.4,2.8,6.1,3.7,10.3,1.3
	c4.2-2.4,8.7-4.5,13.4-5.6c7-1.6,8.9-5.8,9.3-12.3c0.6-8.7,1.9-17.3,3.1-26c2.2-16.3,13.7-26.5,30.1-26.7c13.6-0.1,27.1-0.1,40.7,0
	c17.2,0.1,28.6,10.3,30.7,27.6c1.2,9.6,2.6,19.2,3.5,28.8c0.4,4.3,2.3,6.4,6.3,7.5c4.2,1.2,8.5,2.6,12.1,4.9
	c6.5,4.1,11.5,3.4,17.1-1.9c6.4-5.9,13.6-10.9,20.6-16.1c12.8-9.5,27.5-8.7,39,2.4c10.3,9.9,20.4,20,30.3,30.3
	c10.7,11.1,11.6,25.8,2.3,38.4c-6.3,8.6-13.2,16.8-19.4,25.4c-1.3,1.8-1.5,5.2-0.9,7.5c1.3,4.4,4.2,8.3,5.2,12.7
	c1.8,8.2,6.5,11.2,14.7,11.4c8.2,0.3,16.4,1.8,24.5,2.9c16.4,2.3,26.4,13.7,26.5,30.2c0.1,13.6,0.1,27.1,0,40.7
	c-0.1,16.8-10.2,28.2-27.1,30.5c-9.8,1.3-19.8,2.2-29.5,4c-2.6,0.5-5.3,3.2-7,5.6c-1.8,2.5-1.8,6.2-3.6,8.7
	c-7,9.7-4.3,17.3,3.5,25.1c5.1,5.1,9.2,11.2,13.4,17.1c8.8,12.3,7.9,26.9-2.6,37.8c-10.1,10.5-20.4,20.8-30.8,30.8
	c-10.9,10.4-25.6,11.4-37.8,2.5c-8.4-6.1-16.6-12.6-24.7-19.1c-3.2-2.6-5.9-3.8-9.6-1.2c-1.6,1.1-3.4,2.1-5.3,2.4
	c-14.6,2.4-19.3,11.8-19.1,25.4c0.1,5.3-1.1,10.6-1.8,15.9c-2.2,16.7-13.7,26.9-30.5,27c-13.6,0.1-27.1,0.1-40.7,0
	c-16.4-0.1-28-10.3-30.2-26.6c-1.4-10.1-2.2-20.2-4.1-30.2c-0.5-2.6-3.4-5-5.7-6.9c-1.8-1.4-4.7-1.4-6.6-2.8
	c-11.1-8-20.1-4.8-28.8,4.2c-4.5,4.6-10.1,8.3-15.4,12.1c-12.3,8.7-26.9,7.7-37.8-2.8c-10.5-10.1-20.7-20.4-30.8-30.8
	c-10.2-10.5-11.2-25.4-2.6-37.2c6.4-8.8,13.5-17.1,19.8-26c1.4-2,1.6-5.7,0.9-8.1c-1.6-5.3-4.9-10.1-6.2-15.5
	c-1.4-5.9-5-7.4-10.3-7.9c-8.9-0.8-17.8-2.1-26.7-3.2C10.5,281.4,0.2,270,0.1,252.8C0,239.2,0,225.6,0.1,212
	c0.1-16.4,10.4-27.9,26.7-30.1c9.8-1.3,19.7-2.6,29.6-3.6c4.1-0.4,6.4-2,7.7-6.1c1.7-5.5,3.9-11,6.6-16.1c2.3-4.1,1.4-6.9-1.4-10.2
	c-6.3-7.6-12.4-15.5-18.3-23.5c-9.8-13.1-8.8-27.8,2.6-39.5c9.8-10,19.9-19.9,29.8-29.8C89.2,47.3,96.1,44.4,105,43z M135.7,231.7
	c-0.8,53.1,42.7,97.4,96.3,98c52.9,0.6,96.8-42.6,97.6-96c0.9-53.1-42.7-97.4-96.3-98C180.4,135.2,136.6,178.3,135.7,231.7z"/>
</svg>
