<?xml version="1.0" encoding="utf-8"?>
<!-- Generator: Adobe Illustrator 24.3.0, SVG Export Plug-In . SVG Version: 6.00 Build 0)  -->
<svg version="1.1" id="Layer_1" xmlns="http://www.w3.org/2000/svg" xmlns:xlink="http://www.w3.org/1999/xlink" x="0px" y="0px"
	 viewBox="0 0 465.4 522" style="enable-background:new 0 0 465.4 522;" xml:space="preserve">
<style type="text/css">
	.st0{fill:#55BCB3;}
	.st1{fill:#F7A605;}
</style>
<g>
	<path class="st1" d="M235,522C134.6,518.6,58.4,477,4.2,395.5c-4.9-7.4-5.6-13.8-1.4-21.9c27.1-52.4,69.6-83.6,127.8-92.4
		c6.5-1,14.9,2.7,20.8,6.6c26.5,17.4,55.4,25.9,87,24.7c25.2-0.9,49.3-7,69.8-21.7c14.2-10.2,27.9-11.3,43.6-6.9
		c50.7,14,88,44.2,111.6,91.3c3,6,2.6,11-1.1,16.7c-43.8,68.6-105.2,111.3-185.6,125.7C262.1,520.2,247.1,520.8,235,522z"/>
	<path class="st1" d="M232.3,270.7C157.8,270.4,97,209.3,97.3,135C97.6,60.6,158.8-0.3,233.1,0C307.5,0.3,368.4,61.6,368,135.8
		C367.7,210.3,306.6,271,232.3,270.7z"/>
</g>
</svg>
