<?xml version="1.0" encoding="utf-8"?>
<!-- Generator: Adobe Illustrator 24.3.0, SVG Export Plug-In . SVG Version: 6.00 Build 0)  -->
<svg version="1.1" id="Layer_1" xmlns="http://www.w3.org/2000/svg" xmlns:xlink="http://www.w3.org/1999/xlink" x="0px" y="0px"
	 viewBox="0 0 465.4 460.4" style="enable-background:new 0 0 465.4 460.4;" xml:space="preserve">
<style type="text/css">
	.st0{fill:#55BCB3;}
	.st1{fill:#F7A605;}
</style>
<path class="st1" d="M465.4,325.1c0,30.2,0.1,60.4,0,90.7c-0.1,27.4-16.5,44.3-43.7,44.5c-32.8,0.2-65.5,0.3-98.3,0
	c-26.9-0.2-43.1-16.8-43.2-43.8c-0.1-16.5,0-33.1,0-49.6c-0.1-14.2-4.1-18.4-18-18.4c-19.7-0.1-39.4-0.1-59.2,0
	c-13.3,0.1-17.5,4.4-17.6,17.9c-0.1,17.2,0.1,34.4-0.1,51.5c-0.3,25.2-16.5,42.1-41.7,42.4c-34,0.4-68.1,0.5-102.1,0
	C17,459.8,0.2,442.7,0.1,418.2c-0.2-62-0.1-124.1,0-186.1c0-16,5.8-29.8,17.2-41.1c57.6-57.6,115-115.3,172.8-172.6
	c24.8-24.6,60.4-24.5,85.4,0.3c57.8,57.3,115.3,115,172.9,172.6c11.6,11.6,17,25.8,17,42.2C465.4,264,465.4,294.5,465.4,325.1z"/>
</svg>
