<?xml version="1.0" encoding="utf-8"?>
<!-- Generator: Adobe Illustrator 24.3.0, SVG Export Plug-In . SVG Version: 6.00 Build 0)  -->
<svg version="1.1" id="Layer_1" xmlns="http://www.w3.org/2000/svg" xmlns:xlink="http://www.w3.org/1999/xlink" x="0px" y="0px"
	 viewBox="0 0 465.4 518.2" style="enable-background:new 0 0 465.4 518.2;" xml:space="preserve">
<style type="text/css">
	.st0{fill:#55BCB3;}
	.st1{fill:#F7A605;}
</style>
<g>
	<path d="M209.4,453.6c-24.9,0-48.5,0-72.2,0c-35.2,0-70.5,0-105.7,0c-22.5,0-33.4-12.5-31.3-35C8,335.3,15.5,252,23.1,168.7
		c0.9-10.4,2-20.8,3-31.1c0.8-8.1,5.5-13.4,13.6-13.5c21.7-0.4,43.3-0.1,66.3-0.1c0,11.5,0,22.7,0,33.8c0,6.3,2.4,11,8.9,12.7
		c7.1,1.9,13.4-3.3,13.7-11.9c0.4-11.2,0.1-22.4,0.1-34.1c39.7,0,78.4,0,118.3,0c0,11.3-0.1,22.5,0,33.7c0,7.1,3.2,12,10.7,12.7
		c6.6,0.6,11.6-4.7,11.8-12.6c0.2-11,0.1-22,0.1-34.4c5.6,0,10.8,0,16,0c16.1,0,32.1-0.1,48.2,0.1c9.4,0.1,14.8,4.5,15.6,13.2
		c3.5,36.5,6.8,72.9,10.1,109.4c0.1,1.6,0,3.2,0,5.4c-54.5-3.2-99.4,15.2-131.8,58.7C195.5,354,191.1,402,209.4,453.6z"/>
	<path d="M344.5,518.2c-67-0.1-120.6-54.2-120.4-121.3c0.2-66.3,54.5-120.2,121-120c66.8,0.2,120.9,54.7,120.5,121.4
		C465.2,464.7,411.1,518.3,344.5,518.2z M330.3,411.2c-8.8-8.1-17-15.7-25.4-23.2c-7.4-6.7-14.7-6.9-20-0.8
		c-5,5.7-4.1,12.8,2.8,19.2c10.3,9.6,20.7,19.1,31.1,28.6c9.3,8.4,14.5,8.3,23.8-0.5c16.7-15.9,33.3-31.9,50-47.9
		c4.1-3.9,8.4-7.6,12-11.9c4.6-5.5,4.5-11.6-0.5-16.7c-5-5.2-11-5.4-16.7-1c-2.7,2-5,4.5-7.5,6.8
		C363.5,379.5,347.1,395.2,330.3,411.2z"/>
	<path d="M129.1,121.7c-8.2,0-15.1,0-23.2,0c1-21.6-2.6-43.1,3.8-64c11.7-38.1,49.7-62.3,89.1-57C237.8,6,267.9,39,269.5,78.6
		c0.6,14,0.1,28.1,0.1,42.8c-7.4,0-14.3,0-22.2,0c-0.2-2.7-0.5-5.7-0.5-8.6c-0.2-11.8,0.3-23.7-0.5-35.5c-2-31-28.2-55-59.1-54.7
		c-30.9,0.3-56.7,24.7-58.2,55.7C128.5,92.6,129.1,106.9,129.1,121.7z"/>
</g>
</svg>
