<?xml version="1.0" encoding="utf-8"?>
<!-- Generator: Adobe Illustrator 24.3.0, SVG Export Plug-In . SVG Version: 6.00 Build 0)  -->
<svg version="1.1" id="Layer_1" xmlns="http://www.w3.org/2000/svg" xmlns:xlink="http://www.w3.org/1999/xlink" x="0px" y="0px"
	 viewBox="0 0 446.1 451.6" style="enable-background:new 0 0 446.1 451.6;" xml:space="preserve">
<style type="text/css">
	.st0{fill:#F7A605;}
	.st1{fill:#55BCB3;}
</style>
<g>
	<path class="st1" d="M88.9,335.2c-17.1,0-34.3,0.1-51.4,0c-29.9-0.3-45.7-26-32.5-52.9c4.7-9.7,9.4-19.4,14.3-28.9
		c6.7-13.2,17.6-20,32.5-20c25-0.1,49.9-0.1,74.9,0c14.5,0.1,25.3,6.7,32,19.6c5.2,10.2,10.3,20.5,15.3,30.9
		c12,25.3-3.9,50.9-32.1,51.3C124.1,335.4,106.5,335.2,88.9,335.2z"/>
	<path class="st1" d="M357.3,335.2c-17.4,0-34.8,0.2-52.1,0c-29.2-0.3-45-25.9-32.4-52.1c4.7-9.7,9.5-19.3,14.2-29
		c6.8-13.9,18-20.9,33.4-20.9c24.5,0,49,0,73.4,0c15.1,0,26.3,6.7,33.2,20.1c5.4,10.4,10.6,21,15.5,31.6c11,23.9-4.6,49.1-30.9,50.2
		c-0.5,0-1,0-1.5,0C392.5,335.2,374.9,335.2,357.3,335.2z"/>
	<path class="st1" d="M356.9,101.9c31.5-0.2,57.1,25.1,57.3,56.5c0.1,31.4-25.3,57.1-56.6,57.2c-31.4,0.1-57-25.1-57.3-56.6
		C300,127.7,325.4,102,356.9,101.9z"/>
	<path class="st1" d="M89,101.9c31.5,0,57,25.3,57,56.8c0,31.4-25.5,56.9-56.9,56.9c-31.4,0-57-25.5-57-56.9
		C32.1,127.3,57.5,101.9,89,101.9z"/>
	<path class="st1" d="M217,382.5c17.1-4.1,33.2-7.9,49.3-11.7c7.6-1.8,15.1-4,22.8-5.6c2.3-0.5,6.2-0.2,7.1,1.2
		c1.3,1.9,1.3,5.6,0.4,7.9c-13.7,32.6-38,51.3-73.6,54.4c-1.7,0.1-3.3,0.3-6,0.5c0,5.1,0.1,9.9,0,14.7c-0.3,7.6-4.2,9.9-10.3,5.8
		c-19.1-12.7-38.2-25.6-57.2-38.6c-5.8-3.9-5.8-7.5-0.1-11.4c19-13,38-25.8,57.2-38.6c6.2-4.1,10.1-1.8,10.4,5.8
		C217.1,371.7,217,376.6,217,382.5z"/>
	<path class="st1" d="M245.1,69.1c-21.3,5.2-41.4,10-61.6,14.9c-3.6,0.9-7.1,2.1-10.7,2.5c-2.4,0.3-5.9,0.1-7.2-1.3
		c-1.3-1.5-1.3-5.2-0.5-7.3c11.7-28.4,31.8-47.1,62.5-53.3c5.5-1.1,11.1-1.6,17.5-2.4c0-5-0.2-10.1,0-15.2c0.3-6.6,4.2-8.9,9.7-5.2
		c19.4,12.9,38.6,25.9,57.8,39c5.6,3.8,5.5,7.5-0.2,11.4c-18.8,12.9-37.7,25.6-56.6,38.2c-6.6,4.4-10.5,2.1-10.8-5.8
		c-0.1-2.4,0-4.9,0-7.3C245.1,75,245.1,72.8,245.1,69.1z"/>
</g>
</svg>
