<?xml version="1.0" encoding="utf-8"?>
<!-- Generator: Adobe Illustrator 24.3.0, SVG Export Plug-In . SVG Version: 6.00 Build 0)  -->
<svg version="1.1" id="Layer_1" xmlns="http://www.w3.org/2000/svg" xmlns:xlink="http://www.w3.org/1999/xlink" x="0px" y="0px"
	 viewBox="0 0 465.4 415.7" style="enable-background:new 0 0 465.4 415.7;" xml:space="preserve">
<style type="text/css">
	.st0{fill:#55BCB3;}
	.st1{fill:#F7A605;}
</style>
<g>
	<path class="st1" d="M464.4,165.9c-28.8,0-56.1-0.2-83.5,0c-42.4,0.4-77,31.8-82,74.2c-4.7,40.3,22.2,79,62.4,88.9
		c7.2,1.8,14.7,2.4,22.1,2.5c26.5,0.3,53,0.1,81.9,0.1c-1.1,18.7-0.4,37.3-3.9,55.1c-3.4,17.1-20.5,27.7-38.8,27.8
		c-28.5,0.2-56.9,0.1-85.4,0.1c-88.7,0-177.4,0-266.1,0C27.9,414.7,0,386.9,0,343.8C0,252.9,0,161.9,0,71C0,27.9,27.9,0,71.1,0
		c99.8,0,199.5,0,299.3,0c17.2,0,28.9,11.6,27.6,27c-1.1,13.2-11.7,22.7-26,22.8c-24.6,0.2-49.2,0.1-73.8,0.1
		c-74.9,0-149.8,0-224.7,0c-2.8,0-5.5-0.2-8.3,0.1c-8.9,0.8-15.4,8-15.4,16.5C49.9,75,56.5,82,65.4,82.8c2.7,0.2,5.5,0.1,8.3,0.1
		c114.4,0,228.8,0,343.2,0c31.3,0,47.4,16.2,47.4,47.5C464.4,142,464.4,153.5,464.4,165.9z"/>
	<path class="st1" d="M463.7,298.4c-29.2,0-58,0.9-86.6-0.3c-26-1.1-45.7-24-45.4-50.1c0.3-25.6,20.4-47.8,46.1-48.7
		c28.4-0.9,56.9-0.2,85.9-0.2C463.7,232.1,463.7,264.8,463.7,298.4z"/>
</g>
</svg>
