<?xml version="1.0" encoding="utf-8"?>
<!-- Generator: Adobe Illustrator 24.3.0, SVG Export Plug-In . SVG Version: 6.00 Build 0)  -->
<svg version="1.1" id="Layer_1" xmlns="http://www.w3.org/2000/svg" xmlns:xlink="http://www.w3.org/1999/xlink" x="0px" y="0px"
	 viewBox="0 0 482.6 451.6" style="enable-background:new 0 0 482.6 451.6;" xml:space="preserve">
<style type="text/css">
	.st0{fill:#55BCB3;}
	.st1{fill:#F7A605;}
</style>
<g>
	<path d="M383.9,350.6c-15.7,0-30,0.3-44.3-0.1c-9.6-0.3-13.5,3.9-13.4,13.1c0.2,14,0,27.9,0,43c-71.3,2.5-142.8-0.3-214.6-11.8
		c4.3-40.7,20.4-75,48.4-103.6c28-28.7,62.7-44.9,103.5-50.7c-45.6-17.8-66.2-50.9-59.1-93.1c6.1-35.8,39.2-63.7,76.6-64.4
		c37.6-0.7,70.7,25.7,78.9,63.1c8.8,39.9-11.5,73.2-58.4,94.5c40,5.6,74.1,21.5,102.2,49.8c-0.5,0.8-0.8,1.9-1.2,1.9
		c-18.6,1.8-18.6,1.8-18.6,20.7C383.9,324.8,383.9,336.8,383.9,350.6z"/>
	<path d="M150.9,156.9c-44-18.2-64.8-53.2-56-95.4c7.7-36.8,41.8-62.7,81-61.5c35.9,1.2,68,28.4,72.8,61.9
		c-75.7,31-89.6,115.5-45.9,168.2c-15.8,9.5-32.1,18.3-47.3,28.7c-21.7,14.9-38.6,34.6-53,56.6c-1.9,2.9-6.4,6.3-9.4,6.1
		c-28.6-2.5-57.1-5.8-85.6-8.9c-1.8-0.2-3.5-1.2-5.7-2c4-40.2,20.2-74.2,47.9-102.6C77.3,179.6,111.3,163.1,150.9,156.9z"/>
	<path d="M395.3,397.1c-13.7,0-27.9-0.3-42.1,0.1c-8.7,0.3-12.2-3.1-11.2-11.7c0.3-2.7,0.4-5.5,0-8.1c-1.4-10.2,2.7-13.9,13-13.3
		c13.5,0.8,27.1,0.2,42.2,0.2c0-14.6,0.5-28.5-0.2-42.3c-0.4-9.5,2.6-13.9,12.4-12.6c1.9,0.3,3.9,0.3,5.8,0
		c11-1.5,15.5,2.8,14.9,14.2c-0.8,13.1-0.2,26.2-0.2,40.7c14.8,0,28.7,0.5,42.5-0.2c9-0.4,12.4,2.3,12.1,11.8
		c-0.7,23.7,2.1,21.1-21.4,21.2c-9.7,0.1-19.4,0.1-29.1,0.1c-0.7,0-1.5,0.3-3.8,1c0,13-0.5,26.4,0.2,39.8
		c0.4,9.8-2.5,14.1-13.1,13.6c-22.1-1-20,2.8-20.2-19.8c-0.1-10.5-0.2-21-0.4-31.4C396.8,399.7,396.3,399,395.3,397.1z"/>
</g>
</svg>
