<?xml version="1.0" encoding="utf-8"?>
<!-- Generator: Adobe Illustrator 24.3.0, SVG Export Plug-In . SVG Version: 6.00 Build 0)  -->
<svg version="1.1" id="Layer_1" xmlns="http://www.w3.org/2000/svg" xmlns:xlink="http://www.w3.org/1999/xlink" x="0px" y="0px"
	 viewBox="0 0 482.6 451.6" style="enable-background:new 0 0 482.6 451.6;" xml:space="preserve">
<style type="text/css">
	.st0{fill:#55BCB3;}
	.st1{fill:#F7A605;}
</style>
<g>
	<path class="st1" d="M121.7,219.7c26.1,0,50.4,0,74.8,0c1.9,0,3.9,0.5,6.7,0.9c0,65.3,0,130.2,0,195.6c4.2,0,7.5,0,11.8,0
		c0-51,0-102,0-153.8c27.5,0,54,0,81.5,0c0,51,0,102,0,153.7c4.5,0,8,0,12.4,0c0-78.4,0-156.5,0-235.4c27.4,0,53.8,0,81.3,0
		c0,78.4,0,156.5,0,235.9c9.8,0,18.8,0,28.3,0c0,12.3,0,23.3,0,35.1c-139.3,0-278.7,0-418.5,0c0-11.5,0-22.6,0-34.8
		c9.5,0,18.4,0,28.2,0c0-41.1,0-80.9,0-121.5c27.1,0,53.4,0,80.9,0c0,39.9,0,80,0,120.8c4.7,0,8.2,0,12.7,0
		C121.7,351,121.7,286.1,121.7,219.7z"/>
	<path class="st1" d="M308.4,124.1c5.4,6,10.2,11.3,15.7,17.4c-10.7,9.7-21.7,19.1-31.9,29.3c-2.8,2.8-4.7,7.9-4.5,11.9
		c0.4,14.7-5.8,26.5-18.3,32.3c-11.5,5.3-25.7,3-35-5.8c-9.8-9.3-12.7-23.1-6.5-36.3c2.3-5,1.5-7.8-1.8-11.5
		c-15.5-17.5-30.6-35.4-46.2-52.7c-2.1-2.3-6.6-2.6-10.1-3.4c-17.1-4-25.2,8.8-34.7,18.9c-12,12.9-23.9,25.9-36.1,38.6
		c-3.4,3.6-4.3,6.3-2.2,11.4c5.8,13.7,1.9,27.8-8.9,36.6c-10.5,8.5-25.7,9.4-37,2.1c-11.4-7.3-16.9-21.3-13.5-34.6
		c3.4-13.3,15.1-22.2,29.8-23.7c4.2-0.4,9.1-2.4,11.9-5.3c17-17.5,33.3-35.6,50.2-53.2c3.7-3.9,4.7-7,3-12.4
		c-4.2-12.8,0.2-25.6,10.4-33.6c10.1-8,24.1-9.1,35.3-2.7c11.3,6.5,17.7,18.5,15.3,31.7c-1.2,6.6,0.6,10.6,4.7,15.2
		c16.2,18.2,32,36.8,48.1,55.2c7.2,8.3,24.7,9.2,32.7,1.9C288.1,142.5,297.9,133.6,308.4,124.1z"/>
	<path class="st1" d="M411.2,147.1c-48.1,14.1-86.3-0.9-103.3-39.7c-15.5-35.5-1.8-77.2,31.8-97C372.7-9,415.7-0.6,439.2,29.8
		c25.9,33.4,20.5,74.4-14.7,109.3c3.7,7.4,5.8,15.8,17,16.9c3.9,0.4,8.4,4.5,10.8,8.2c9.4,14.4,18.3,29.3,27,44.1
		c5.9,10.2,3.7,20.4-5,25.8c-9.1,5.8-19.4,3.1-26-7.4c-9-14.3-17.7-28.8-26.2-43.4c-1.9-3.3-4.1-8.2-3-11.3
		C422.9,161.3,415.9,155,411.2,147.1z M378,134c32,0.2,57.6-25.1,57.7-57.1c0.1-31.5-24.9-57-56.4-57.4c-32-0.4-57.9,24.7-58.2,56.6
		C320.8,108.2,345.9,133.8,378,134z"/>
	<path class="st1" d="M333.5,101.5c7.7-7.2,14-13.2,20.9-19.6c-4-4.8-7.9-9.4-13-15.5c20.5-4,39.6-7.8,60.8-12
		c-6.9,20.1-13.3,38.7-20.2,58.9c-4.5-5.3-7.7-9.1-11.6-13.6c-7.1,6.2-13.6,11.9-21.2,18.7C344.1,112.9,339.3,107.6,333.5,101.5z"/>
</g>
</svg>
