<?xml version="1.0" encoding="utf-8"?>
<!-- Generator: Adobe Illustrator 24.3.0, SVG Export Plug-In . SVG Version: 6.00 Build 0)  -->
<svg version="1.1" xmlns="http://www.w3.org/2000/svg" xmlns:xlink="http://www.w3.org/1999/xlink" x="0px" y="0px"
	 viewBox="0 0 366 393" style="enable-background:new 0 0 366 393;" xml:space="preserve">
<style type="text/css">
	.st0{fill:#FFFFFF;}
	.st1{fill:#55BCB3;}
	.st2{fill:#1F4C47;}
	.st3{fill:#EC9F90;}
	.st4{fill:#306337;}
	.st5{fill:#FCD17D;}
	.st6{fill:#FFA600;}
	.st7{fill:#FFD165;}
	.st8{fill:#D90000;}
	.st9{fill:#2B5953;}
	.st10{fill:#3ECCBA;}
	.st11{fill:#FFB0A3;}
</style>
<g id="_x39_8">
	<g>
		<path id="_x3C_Group_x3E__236_" class="st0" d="M256.9,383.6H106.5c-10.8,0-19.5-8.7-19.5-19.5V32c0-10.8,8.7-19.5,19.5-19.5
			h150.4c10.8,0,19.5,8.7,19.5,19.5v332.1C276.4,374.9,267.6,383.6,256.9,383.6z"/>
		<path class="st1" d="M262.4,391.1H101c-11.8,0-21.4-9.6-21.4-21.4V26.4C79.5,14.6,89.1,5,101,5h161.5c11.8,0,21.4,9.6,21.4,21.4
			v343.2C283.9,381.5,274.3,391.1,262.4,391.1z M101,20c-3.5,0-6.4,2.9-6.4,6.4v343.2c0,3.5,2.9,6.4,6.4,6.4h161.5
			c3.5,0,6.4-2.9,6.4-6.4V26.4c0-3.5-2.9-6.4-6.4-6.4H101z"/>
		<path id="_x3C_Group_x3E__195_" class="st2" d="M201.2,27.1h-43c-2.6,0-4.6-2.1-4.6-4.6v-7.4c0-2.6,2.1-4.6,4.6-4.6h43
			c2.6,0,4.6,2.1,4.6,4.6v7.4C205.8,25,203.7,27.1,201.2,27.1z"/>
	</g>
	<g>
		<path class="st3" d="M256.5,275.1c0,0-14.9,3.1-17.4,4.5c-2.5,1.3-3.9,5.7-3.9,5.7l4,3.2l7.6-4.7c0,0,7.3,2.4,11.1-0.6
			C261.7,280.1,256.5,275.1,256.5,275.1z"/>
		<path class="st4" d="M298.3,223.2c-11-4.1-11.6,4.6-11.6,4.6s-2,17.5-0.3,31.9l-29.9,15.4l1.4,8.1c0,0,37.3-4.3,41.1-8.4
			c3.3-3.7,6.3-31.1,7-37.1l0,0C305.9,237.6,309.3,227.2,298.3,223.2z"/>
	</g>
	<g>
		<rect x="187.9" y="379.9" class="st5" width="115.4" height="12.1"/>
		<g>
			<rect x="200.8" y="368.1" class="st5" width="115.4" height="12.1"/>
			<polygon class="st6" points="200.8,368.1 316.2,380.1 200.8,380.1 			"/>
			<polygon class="st7" points="316.2,368.1 316.2,380.1 200.8,368.1 			"/>
			<rect x="211" y="368.1" class="st7" width="3" height="12"/>
			<rect x="227" y="368.1" class="st7" width="3" height="12"/>
			<rect x="244.8" y="368.1" class="st7" width="3" height="12"/>
			<rect x="261.7" y="368.1" class="st7" width="3" height="12"/>
			<rect x="281.4" y="368.1" class="st7" width="3" height="12"/>
			<rect x="300.7" y="368.1" class="st7" width="3" height="12"/>
		</g>
		<g>
			<rect x="188.2" y="379.7" class="st5" width="115.4" height="12.1"/>
			<polygon class="st6" points="188.2,379.7 303.6,391.8 188.2,391.8 			"/>
			<polygon class="st7" points="303.6,379.7 303.6,391.8 188.2,379.7 			"/>
			<rect x="198.3" y="379.7" class="st7" width="3" height="12"/>
			<rect x="214.3" y="379.7" class="st7" width="3" height="12"/>
			<rect x="232.1" y="379.7" class="st7" width="3" height="12"/>
			<rect x="249" y="379.7" class="st7" width="3" height="12"/>
			<rect x="268.7" y="379.7" class="st7" width="3" height="12"/>
			<rect x="288" y="379.7" class="st7" width="3" height="12"/>
		</g>
	</g>
	<g>
		<ellipse transform="matrix(0.914 -0.4058 0.4058 0.914 -83.0094 110.37)" class="st6" cx="218.8" cy="251" rx="57.2" ry="57.2"/>
		<circle class="st7" cx="211.1" cy="252.1" r="57.2"/>
		<path class="st6" d="M228.9,297.5c-4.8,1.8-9.9,2.8-15.2,3.1c-12.9,0.5-25.3-4-34.8-12.8c-9.5-8.8-15-20.7-15.6-33.7
			c-0.5-12.9,4-25.3,12.8-34.8c8.8-9.5,20.7-15,33.7-15.6c12.9-0.5,25.3,4,34.8,12.8c9.5,8.8,15,20.7,15.6,33.7
			c0.5,12.9-4,25.3-12.8,34.8C242.2,290.6,235.9,294.8,228.9,297.5z M194.9,207.3c-6.9,2.6-13.1,6.8-18.3,12.3
			c-8.7,9.4-13.2,21.6-12.6,34.4c0.5,12.8,6,24.6,15.4,33.2c9.4,8.7,21.6,13.2,34.4,12.6c12.8-0.5,24.6-6,33.2-15.4
			c8.7-9.4,13.2-21.6,12.6-34.4l0.3,0l-0.3,0c-0.5-12.8-6-24.6-15.4-33.2c-9.4-8.7-21.6-13.2-34.4-12.6
			C204.7,204.5,199.6,205.5,194.9,207.3z"/>
		<path class="st6" d="M228.3,272.1c-11.6,4.4-21.5,1.3-27.9-7.6l26.4-9.9l-2.4-6.3l-27.3,10.3c-0.3-0.6-0.5-1.2-0.8-1.9
			c-0.1-0.2-0.1-0.4-0.2-0.6l28.3-10.6l-2.4-6.3l-27.6,10.4c-1.9-12.3,4.1-21.8,15.9-26.3c5-1.9,9.5-2.4,13-2.1l-0.5-7
			c-2.4-0.3-7.7-0.1-15.2,2.7c-16,6-24.1,19.9-21.4,35.7l-6.3,2.4l2.4,6.3l5.7-2.1c0.1,0.3,0.2,0.6,0.3,0.9c0.2,0.6,0.5,1.1,0.7,1.6
			l-6.6,2.5l2.4,6.3l7.4-2.8c8.4,13.4,22.7,16.9,37.1,11.5c7.3-2.7,12.4-6.3,14.7-8.8l-3.9-5.5C237.4,267.6,232.9,270.3,228.3,272.1
			z"/>
	</g>
	<g>
		<rect x="48.6" y="343.3" class="st5" width="115.4" height="12.1"/>
		<rect x="36.3" y="355.2" class="st5" width="115.4" height="12.1"/>
		<rect x="31.3" y="367" class="st5" width="115.4" height="12.1"/>
		<rect x="39.6" y="378.9" class="st5" width="115.4" height="12.1"/>
		<g>
			<rect x="48.5" y="342.9" class="st5" width="115.4" height="12.1"/>
			<polygon class="st6" points="48.5,342.9 163.9,355 48.5,355 			"/>
			<polygon class="st7" points="163.9,342.9 163.9,355 48.5,342.9 			"/>
			<rect x="58.7" y="342.9" class="st7" width="3" height="12"/>
			<rect x="74.6" y="342.9" class="st7" width="3" height="12"/>
			<rect x="92.5" y="342.9" class="st7" width="3" height="12"/>
			<rect x="109.4" y="342.9" class="st7" width="3" height="12"/>
			<rect x="129.1" y="342.9" class="st7" width="3" height="12"/>
			<rect x="148.3" y="342.9" class="st7" width="3" height="12"/>
		</g>
		<g>
			<rect x="36.3" y="355.2" class="st5" width="115.4" height="12.1"/>
			<polygon class="st6" points="36.3,355.2 151.7,367.2 36.3,367.2 			"/>
			<polygon class="st7" points="151.7,355.2 151.7,367.2 36.3,355.2 			"/>
			<rect x="46.5" y="355.2" class="st7" width="3" height="12"/>
			<rect x="62.4" y="355.2" class="st7" width="3" height="12"/>
			<rect x="80.3" y="355.2" class="st7" width="3" height="12"/>
			<rect x="97.1" y="355.2" class="st7" width="3" height="12"/>
			<rect x="116.9" y="355.2" class="st7" width="3" height="12"/>
			<rect x="136.1" y="355.2" class="st7" width="3" height="12"/>
		</g>
		<g>
			<rect x="31.3" y="367.4" class="st5" width="115.4" height="12.1"/>
			<polygon class="st6" points="31.3,367.4 146.7,379.5 31.3,379.5 			"/>
			<polygon class="st7" points="146.7,367.4 146.7,379.5 31.3,367.4 			"/>
			<rect x="41.4" y="367.4" class="st7" width="3" height="12"/>
			<rect x="57.4" y="367.4" class="st7" width="3" height="12"/>
			<rect x="75.2" y="367.4" class="st7" width="3" height="12"/>
			<rect x="92.1" y="367.4" class="st7" width="3" height="12"/>
			<rect x="111.8" y="367.4" class="st7" width="3" height="12"/>
			<rect x="131.1" y="367.4" class="st7" width="3" height="12"/>
		</g>
		<g>
			<rect x="39.6" y="379.6" class="st5" width="115.4" height="12.1"/>
			<polygon class="st6" points="39.6,379.6 155,391.6 39.6,391.6 			"/>
			<polygon class="st7" points="155,379.6 155,391.6 39.6,379.6 			"/>
			<rect x="49.7" y="379.6" class="st7" width="3" height="12"/>
			<rect x="65.7" y="379.6" class="st7" width="3" height="12"/>
			<rect x="83.5" y="379.6" class="st7" width="3" height="12"/>
			<rect x="100.4" y="379.6" class="st7" width="3" height="12"/>
			<rect x="120.1" y="379.6" class="st7" width="3" height="12"/>
			<rect x="139.4" y="379.6" class="st7" width="3" height="12"/>
		</g>
	</g>
	<g>
		<path class="st8" d="M300.7,393.4h-23c-0.9,0-1.4-1.1-0.7-1.7l11.3-10.2l-1-4.8l9-1.1l1.4,5.7L300.7,393.4z"/>
		<polygon class="st3" points="297.7,381.3 288.3,381.5 286.7,374.4 296.4,373.4 		"/>
		<path class="st8" d="M366.8,393.4h-23c-0.9,0-1.4-1.1-0.7-1.8l11.3-11.1l-1-5.2l9-1.2l1.4,6.1L366.8,393.4z"/>
		<polygon class="st3" points="363.8,380.3 354.4,380.5 353.4,375.4 362.4,374.2 		"/>
		<path class="st1" d="M335,259.9l0.6,0.5c0,0,10.8,19.1,10.2,35.6c-0.5,16.5,2.2,29.1,2.2,29.1l18.9,46.3c0,0-7,7.5-14.3,5.3
			l-22.7-43.2l-11.9-35c0,0-15.2,20.9-24.5,28.6c0,0,3.9,10.1,7.3,46.7c0,0-13.4,3.1-16.7,1.6l-10.3-50.2l30-49.4l-3.9-10L335,259.9
			z"/>
		<path class="st9" d="M343.8,273.1c0,0-24,9.5-41.7,4.6L284.7,236c0,0-3.7-12.6,5.8-19.2c9.5-6.6,23.6-1.6,32.4,16.6
			C331.7,251.6,343.8,273.1,343.8,273.1z"/>
		<path class="st3" d="M253.2,260c0,0-15.2-0.7-18,0c-2.7,0.7-5.2,4.5-5.2,4.5l3,4.1l8.6-2.7c0,0,6.5,4.2,10.9,2.2
			C256.9,266.1,253.2,260,253.2,260z"/>
		<path class="st8" d="M279.4,194.4c0,0-5,0.5-6.2-4.9c-1.2-5.5,2.1-8.8,6.2-7.1c0,0-1.9-6.3,4.6-6c6.4,0.3,8.9,5.2,8.9,5.2
			s7.4-4.1,10.7,3.8c3.3,8-3.8,20.6-3.8,20.6l-5.5,4L279.4,194.4z"/>
		<path class="st3" d="M278.7,192l-1.9,19l7,1l3.3,8.2c0,0,8.2,0.5,10.2-4.9l-4.9-8.7c0,0,6.6-7,0.3-7.6l-2.7,1.8c0,0-3.2-1-1.1-5.6
			C290.8,190.5,278.7,192,278.7,192z"/>
		<path class="st10" d="M306.6,220.2c-9.6-6.7-12.4,1.6-12.4,1.6s-6.3,16.5-8.3,30.8l-32.8,7.4l-0.7,8.2c0,0,37.2,5.2,41.9,2.1
			c4.1-2.8,13.9-28.5,16-34.1l0,0C310.4,236.1,316.3,226.9,306.6,220.2z"/>
	</g>
	<path class="st11" d="M92.7,215.8c0,0,9.3-12.8,19-11.3l5.6,2.4c0,0-0.6,3.5-4.1,2.8c-3.5-0.7-5.9,0.6-5.9,0.6l-6,5.8L92.7,215.8z"
		/>
	<path class="st10" d="M40.9,218.4l31.1,3.2l23.8-11.1l5.6,5.6c0,0-19.5,16.6-24.4,18c-4.9,1.4-36.5-2.3-36.5-2.3s-6.5-1.3-7.7-8.1
		C31.6,216.8,40.9,218.4,40.9,218.4z"/>
	<g>
		<g>
			
				<ellipse transform="matrix(0.9874 -0.1585 0.1585 0.9874 -34.0719 23.0805)" class="st6" cx="127.6" cy="225.1" rx="57.2" ry="57.2"/>
			
				<ellipse transform="matrix(0.993 -0.1178 0.1178 0.993 -25.4341 15.6965)" class="st7" cx="120.1" cy="223.1" rx="57.2" ry="57.2"/>
			<path class="st6" d="M101.8,267.9c-24.1-10.3-35.7-38-26-62.4c4.8-12,13.9-21.5,25.8-26.6c11.9-5.1,25-5.3,37.1-0.6
				c12,4.8,21.5,13.9,26.6,25.8c5.1,11.9,5.3,25,0.6,37.1c-9.9,24.8-38.1,37-62.9,27.2C102.5,268.2,102.1,268.1,101.8,267.9z
				 M139.6,179.3c-0.4-0.2-0.8-0.3-1.1-0.5c-11.9-4.7-24.9-4.5-36.6,0.5c-11.7,5.1-20.8,14.4-25.5,26.3
				c-9.6,24.1,1.9,51.5,25.7,61.7c0.4,0.2,0.7,0.3,1.1,0.5c24.5,9.7,52.4-2.3,62.1-26.8c4.7-11.9,4.5-24.9-0.5-36.6
				C159.8,193,150.9,184.2,139.6,179.3z"/>
			<g>
				<path class="st6" d="M104.4,255.6l3.5-8.3c-4.7-2.1-9-5.7-11-8.9l4.3-4.6c2.1,3.2,5.7,6.6,10.3,8.5c5.8,2.5,11.1,0.8,13.1-3.9
					c1.9-4.5-0.1-8.6-5.1-13.7c-6.9-6.8-10.5-12.8-7.5-19.9c2.9-6.8,9.9-9.9,17.9-7.9l3.5-8.3l5.1,2.2l-3.4,7.9
					c4.8,2.3,7.6,5,9.4,7.4l-4.3,4.5c-1.3-1.7-3.9-4.9-9.1-7.2c-6.3-2.7-10.3,0.1-11.7,3.3c-1.8,4.2,0.3,7.7,6.2,13.6
					c7,7,9.4,13.1,6.3,20.3c-2.7,6.5-9.8,10.6-18.8,8.4l-3.6,8.5L104.4,255.6z"/>
			</g>
		</g>
		<g>
			<path class="st11" d="M8.5,391.8h19.6c0,0-1-3.9-5.2-4.8c-1.7-0.3-3.1-1.2-4.2-2.2c-1.6-1.4-2.4-3-2.4-3s11-40.7,15.5-54.5
				l-9.6-10.8l-5.8,5.4c0,0-4.2,38.1-9,59.8c-0.5,2.2-1,4.3-1.5,6.1C5.2,389.8,6.6,391.8,8.5,391.8z"/>
			<path class="st11" d="M49,337.6l7.5,45.3l1,6.2c0.3,1.6,1.5,2.8,3,2.8h15.3c0,0,0.4-4-4.7-5c-1.1-0.2-2-0.7-2.8-1.3h0
				c-3-2.3-4.4-6.6-4.4-8.6c0-2.5-1.5-45-1.5-45L49,337.6z"/>
			<path class="st2" d="M32.8,170.4c0,0,16.4,0.1,16.7,10c0.3,9.9-7.7,22.1-6,26.2c1.6,4.1,1.4,27-21,29.1
				c-22.4,2.1-25.6-13.1-19-24.5C9.9,199.8,22.2,172.7,32.8,170.4z"/>
			<path class="st2" d="M58,250.9l3.3,20.5l5.5,66.2c0,0-23.9,18.3-49.1,8.3c0,0-7.2-5.7-16.4-4.3l22.3-69c0,0,5.8-20.3,12.3-23.1
				C47.2,244.8,58,250.9,58,250.9z"/>
			<path class="st2" d="M27.1,230.6l8.8,18.8c0,0,13.1,4.9,22.1,1.3l2.2-19.5c0,0-3.6-5.3-7.7-11.2c-2.7-3.8-11.1-4.5-14.6-1.4
				L27.1,230.6z"/>
			<path class="st11" d="M84,237.6c0,0,13.2-8.7,21.8-3.9l4.4,4.2c0,0-1.8,3-4.8,1.2c-3-1.8-5.7-1.5-5.7-1.5l-7.6,3.3L84,237.6z"/>
			<path class="st8" d="M55.6,379.7l8.6,0.2c0.3,0.3,0.8-0.2,1.3-0.1l10.8,10.4c0.7,0.6,0.2,1.7-0.7,1.7H54.3L55.6,379.7z"/>
			<path class="st8" d="M7.3,379.7l8.6,0.2c0.3,0.3,0.8-0.2,1.3-0.1L28,390.1c0.7,0.6,0.2,1.7-0.7,1.7H4.9L7.3,379.7z"/>
			<path class="st3" d="M49.5,180.3c0,0,1.8,3.7,2.5,14.2c0.7,10.5-0.6,9.7-0.6,9.7l-5.2,1.7l-2.6,12.2L30.5,220c0,0,7.2-4.6,7.4-14
				c0.3-9.4-5-4.9-3.9-11.7c1.1-6.8,4.4,0.3,4.4,0.3S47.2,192.3,49.5,180.3z"/>
			<path class="st10" d="M40,219.1l22.6,16.7l26.2-2.1l3.3,7.2c0,0-24.1,8.7-29.2,8.3s-33.4-14.9-33.4-14.9s-4.2-3.4-4.4-10.3
				c-0.1-6.1,4.3-7.3,7.9-7.2C35.5,216.7,37.9,217.6,40,219.1z"/>
		</g>
	</g>
	<polygon class="st2" points="138.9,149.2 139.1,149 139.1,138.7 225.4,138.7 225.4,124.3 139.1,124.3 139.1,113.9 138.9,113.8 
		120,131.5 	"/>
	<polygon class="st10" points="206.4,104.2 206.2,104 206.2,93.7 120,93.7 120,79.3 206.2,79.3 206.2,68.9 206.4,68.8 225.4,86.5 	
		"/>
</g>
<g id="Layer_1">
</g>
</svg>
