<?xml version="1.0" encoding="utf-8"?>
<!-- Generator: Adobe Illustrator 24.3.0, SVG Export Plug-In . SVG Version: 6.00 Build 0)  -->
<svg version="1.1" id="Layer_1" xmlns="http://www.w3.org/2000/svg" xmlns:xlink="http://www.w3.org/1999/xlink" x="0px" y="0px"
	 viewBox="0 0 522.9 393" style="enable-background:new 0 0 522.9 393;" xml:space="preserve">
<style type="text/css">
	.st0{fill:#2C2858;}
	.st1{fill:#55BCB3;}
	.st2{fill:#0E6A41;}
	.st3{fill:#201D40;}
	.st4{fill:#C4204A;}
	.st5{fill:#E62552;}
	.st6{fill:#F37A50;}
	.st7{fill:#DE623C;}
	.st8{fill:#020205;}
	.st9{fill:#FFFFFF;}
	.st10{fill:#3F964F;}
	.st11{fill:#95A6DB;}
	.st12{fill:#FABA23;}
	.st13{fill:#FAD332;}
	.st14{fill:#FAEE6C;}
	.st15{fill:#F9CD2D;}
	.st16{fill:#F9F93A;}
</style>
<g>
	<path class="st0" d="M192.5,391.8l-95.7,0.1c-15.1,0-27.3-12.2-27.3-27.3l-0.1-234.1c0-15.1,12.2-27.3,27.3-27.3l95.7-0.1
		c15.1,0,27.3,12.2,27.3,27.3l0.1,234.1C219.8,379.5,207.5,391.8,192.5,391.8z"/>
	<path class="st1" d="M193.4,387.1l-97.7,0.1c-10.6,0-19.2-8.6-19.2-19.2l-0.2-239.3c0-10.6,8.6-19.2,19.2-19.2l97.7-0.1
		c10.6,0,19.2,8.6,19.2,19.2l0.2,239.3C212.7,378.5,204.1,387.1,193.4,387.1z"/>
	<path class="st0" d="M68.4,179.6L68.4,179.6c-2.4,0-4.3-1.9-4.3-4.3v-22.1c0-2.4,1.9-4.3,4.3-4.3l0,0c2.4,0,4.3,1.9,4.3,4.3v22.1
		C72.7,177.7,70.8,179.6,68.4,179.6z"/>
	<path class="st0" d="M220.4,179.6L220.4,179.6c-2.4,0-4.3-1.9-4.3-4.3v-22.1c0-2.4,1.9-4.3,4.3-4.3l0,0c2.4,0,4.3,1.9,4.3,4.3v22.1
		C224.7,177.7,222.8,179.6,220.4,179.6z"/>
</g>
<g>
	<path class="st0" d="M451.4,391.8l-95.7,0.1c-15.1,0-27.3-12.2-27.3-27.3l-0.1-234.1c0-15.1,12.2-27.3,27.3-27.3l95.7-0.1
		c15.1,0,27.3,12.2,27.3,27.3l0.1,234.1C478.7,379.5,466.5,391.8,451.4,391.8z"/>
	<path class="st1" d="M452.4,387.1l-97.7,0.1c-10.6,0-19.2-8.6-19.2-19.2l-0.2-239.3c0-10.6,8.6-19.2,19.2-19.2l97.7-0.1
		c10.6,0,19.2,8.6,19.2,19.2l0.2,239.3C471.6,378.5,463,387.1,452.4,387.1z"/>
	<path class="st0" d="M327.3,179.6L327.3,179.6c-2.4,0-4.3-1.9-4.3-4.3v-22.1c0-2.4,1.9-4.3,4.3-4.3l0,0c2.4,0,4.3,1.9,4.3,4.3v22.1
		C331.6,177.7,329.7,179.6,327.3,179.6z"/>
	<path class="st0" d="M479.4,179.6L479.4,179.6c-2.4,0-4.3-1.9-4.3-4.3v-22.1c0-2.4,1.9-4.3,4.3-4.3l0,0c2.4,0,4.3,1.9,4.3,4.3v22.1
		C483.6,177.7,481.7,179.6,479.4,179.6z"/>
	<path class="st0" d="M327.3,212.3L327.3,212.3c-2.4,0-4.3-1.9-4.3-4.3v-22.1c0-2.4,1.9-4.3,4.3-4.3l0,0c2.4,0,4.3,1.9,4.3,4.3v22.1
		C331.6,210.4,329.7,212.3,327.3,212.3z"/>
</g>
<g>
	<g>
		<path class="st2" d="M24.4,376.9c-3.2,13.5-14.7,6.1-12.3,14.6c0.2,0.6,0.8,1,1.4,1.1l6.7,0.3c0.7,0,1.3-0.2,1.8-0.5
			c3.6-2.4,6-5.9,13.7-6.3c-0.1-3.3,0.1-8-1-9.6L24.4,376.9z"/>
		<path class="st3" d="M42.2,282.2c0,0-19.6,29.9-22.3,39.2s3,25.1,1.9,56.9c6.1,1.6,14.3,0.2,14.3,0.2s4.9-39.9-0.9-49.3
			c8.7-13.2,30.5-42.1,30.5-42.1L42.2,282.2z"/>
	</g>
	<g>
		<path class="st2" d="M53.1,381.3c-5,6.8-17.5,2.8-17,11.9c18.9-0.3,26.7-0.3,26.7-0.3c0-2.1-0.5-7.1-0.9-9L53.1,381.3z"/>
		<path class="st0" d="M47.2,276.1c0,0-6.3,48.8-4.8,58.4c1.4,9.6,5.9,17.1,6.1,48.9c6.2,1.4,15.6,2.6,15.6,2.6s4-38.4-4.2-48.9
			c2.3-15.7,13.4-55,13.4-55L47.2,276.1z"/>
	</g>
	<g>
		<path class="st4" d="M15.2,254.6l-7.6-8.6c-0.2-0.2-0.4-0.3-0.6-0.3l-6.3,0c-0.2,0-0.7,1-0.6,1.1l5.4,4.8c0,0,0.1,0,0.1,0.1
			l9.2,3.4C14.9,255.2,15.3,254.8,15.2,254.6z"/>
		<path class="st5" d="M14.6,255.2l-7.3-8.1c-0.2-0.2-0.4-0.3-0.6-0.3l-6.5-0.1c-0.2,0-0.3,0.2-0.2,0.3l5.1,5.6c0,0,0.1,0,0.1,0.1
			l9.1,2.8C14.6,255.6,14.7,255.4,14.6,255.2z"/>
		<path class="st6" d="M29,262.6l-5.3-2.6c0,0-5.2-5.2-6-6.4c-1.2-0.6-3.3-2.1-3.8-2.1c-0.5-0.1-1.5,0.1-1.5,0.1l2.4,2.8
			c0,0-1.2,0.2-2.6-0.7c-1.5-0.9-4.1-3.4-5.4-3c-0.5,0.4-0.5,0.4-0.5,0.4s-0.8-0.9-1.6-0.5c-0.8,0.3,0.8,4.1,5,8.1
			c0.3,1.1,1.7,3,1.7,3l8.7,3L29,262.6z"/>
		<path class="st4" d="M6.2,248.4c0.3,0.3,0.8,0.4,1,0.1c0.2-0.2,0.2-0.7-0.1-1c-0.3-0.3-0.8-0.4-1-0.1
			C5.8,247.6,5.8,248.1,6.2,248.4z"/>
		<path class="st6" d="M53.4,223.9c-1.6,2,10.7,4.2,12.3,0c1.6-4.2-1.2-15.8-1.2-15.8l-11.1,2.4C53.4,210.5,55.5,221.3,53.4,223.9z"
			/>
		<g>
			
				<ellipse transform="matrix(0.9945 -0.1044 0.1044 0.9945 -20.5846 6.7583)" class="st6" cx="54.3" cy="200.1" rx="12.8" ry="16.3"/>
			<path d="M45.7,204c-0.2,0.7-1,1.1-1.7,0.8c-0.7-0.2-1.1-1-0.8-1.7c0.2-0.7,1-1.1,1.7-0.8C45.6,202.6,46,203.4,45.7,204z"/>
			<path d="M54.4,202.1c-0.3,0.7-1.1,1.1-1.8,0.9c-0.7-0.3-1.1-1.1-0.9-1.8c0.3-0.7,1.1-1.1,1.8-0.9
				C54.3,200.6,54.7,201.4,54.4,202.1z"/>
			<path class="st7" d="M48.3,203.8c-0.3,2.1-0.7,4.7-0.7,4.7s1.4,1.5,3.7,0.4c-1.1,0-2.4-0.2-2.6-1.6
				C48.5,205.8,48.3,203.8,48.3,203.8z"/>
			<g>
				<path class="st8" d="M45.3,201c-0.1,0.1-0.3,0.1-0.5,0c0,0-0.6-0.3-1.1-0.1c-0.4,0.1-0.7,0.5-0.9,1.1c-0.1,0.3-0.4,0.4-0.7,0.3
					c-0.3-0.1-0.4-0.4-0.3-0.7c0.3-0.9,0.8-1.4,1.5-1.7c1-0.4,1.9,0.1,1.9,0.2c0.2,0.1,0.3,0.4,0.2,0.7
					C45.5,200.9,45.4,201,45.3,201z"/>
			</g>
			<g>
				<path class="st8" d="M52,199.6c0.2,0,0.4,0,0.5-0.2c0,0,0.4-0.5,1-0.4c0.4,0,0.8,0.3,1.2,0.7c0.2,0.2,0.5,0.2,0.7,0.1
					c0.2-0.2,0.2-0.5,0.1-0.7c-0.6-0.7-1.2-1.1-1.9-1.1c-1,0-1.7,0.7-1.8,0.8c-0.2,0.2-0.2,0.5,0,0.7
					C51.8,199.5,51.9,199.5,52,199.6z"/>
			</g>
			<path class="st8" d="M64.4,204.4c-4.6-3.9-3.3-9.8-3.3-9.8c-2.2,0.1-2.9,1.1-2.9,1.1c-1.8-2.1-1.4-4-1.4-4
				c-4.9-0.5-6.3,2.9-10,4.9c-5.1,2.8-12.4,2.4-14.8-4c-0.3-0.9,0.5-1.8,1.5-1.5c0.9,0.3,2,0.4,3.2,0.1c0,0-1.5-1-2-2.7
				c-0.3-1,0.7-1.8,1.6-1.4c1.4,0.6,3.7,1,7.3-0.7c2.4-1.1,7-6.7,10.7-6.8c3.1-0.1,6,1.7,8,5c0,0,7.3-1.2,10.2,6.5
				c2.8,7.5-7.6,19.1-7.6,19.1S65.6,205.6,64.4,204.4z"/>
			<path class="st9" d="M48.8,212.3c-0.3-0.2-0.2-0.6,0.1-0.7c0.9-0.2,2.2-0.6,3.5-1.1c1.3-0.5,2.6-1.1,3.4-1.5
				c0.3-0.2,0.6,0.1,0.6,0.5c-0.3,1-1.1,2.7-3,3.4C51.4,213.6,49.7,212.9,48.8,212.3z"/>
			<g>
				<path class="st6" d="M61.1,199.2c-1.5,1.5-1.7,3.7-0.5,4.9c1.2,1.2,3.4,1,4.9-0.5c1.5-1.5,1.7-3.7,0.5-4.9
					C64.8,197.5,62.6,197.7,61.1,199.2z"/>
				<g>
					<path class="st7" d="M62.6,203.4c-0.1,0-0.1-0.1-0.2-0.1c-0.7-0.8-0.9-1.7-0.5-2.5c0.5-0.8,1.4-1.3,2.3-1.1
						c0.3,0.1,0.4,0.3,0.4,0.5c-0.1,0.2-0.3,0.4-0.5,0.4c-0.5-0.1-1.1,0.2-1.3,0.7c-0.2,0.5-0.1,1,0.3,1.4c0.2,0.2,0.2,0.5,0,0.7
						C62.9,203.5,62.7,203.5,62.6,203.4z"/>
				</g>
			</g>
		</g>
		<path class="st10" d="M39.9,285.8c8.7,1.8,24.4,4.8,32.7,1.6c3.1-4.5,3.9-30,3.9-30c0.9-26.2-2.2-30.1-9.3-38.9
			c-3,1.4-10.4,2.5-13.7,2.6c0,0-7.4,10.3-8.9,17.8c-1.5,7.6-1.6,21.1-1.8,28.8C42.7,276.2,41,280.4,39.9,285.8z"/>
		<path class="st2" d="M68.2,226.5c5.1,9.9,3.9,20.9-10.9,42.5c-10.4-0.9-12.4-9.6-12.4-9.6s2.9-10.7,6.6-24.2
			C55.1,221.7,65.9,222.2,68.2,226.5z"/>
		<path class="st2" d="M22.9,257.4l22.2,1.8c0,0,9.5-1.7,12.2,9.9c-4.8,3.7-17.1,5.1-37.3-2.4C22.2,263.8,22.9,257.4,22.9,257.4z"/>
		<polygon class="st9" points="53.5,220.4 53.3,226.4 68.3,220.1 66.5,215.2 		"/>
	</g>
</g>
<g>
	<g>
		<g>
			<g>
				<path class="st11" d="M180.9,96.5c-1.5,0-2.6-1.2-2.6-2.6c0-2.2,0.1-4.5,0.2-6.8c0.1-1.4,1.4-2.5,2.8-2.4
					c1.4,0.1,2.5,1.4,2.4,2.8c-0.1,2.1-0.2,4.3-0.2,6.4C183.5,95.4,182.3,96.5,180.9,96.5z"/>
			</g>
			<g>
				<path class="st11" d="M183,77c-0.2,0-0.4,0-0.6-0.1c-1.4-0.3-2.3-1.7-2-3.1c0.9-4.4,2.2-8.7,3.8-12.9c0.5-1.4,2-2.1,3.4-1.5
					c1.4,0.5,2.1,2,1.5,3.4c-1.5,3.9-2.7,8-3.6,12.2C185.3,76.2,184.2,77,183,77z M361.8,77c-1.2,0-2.3-0.8-2.6-2.1
					c-0.9-4.1-2.1-8.2-3.6-12.2c-0.5-1.4,0.2-2.9,1.5-3.4c1.4-0.5,2.9,0.2,3.4,1.5c1.6,4.2,2.8,8.5,3.8,12.9c0.3,1.4-0.6,2.8-2,3.1
					C362.2,77,362,77,361.8,77z M192.1,52.7c-0.4,0-0.9-0.1-1.3-0.3c-1.3-0.7-1.7-2.3-1-3.6c2.1-3.9,4.6-7.7,7.3-11.3
					c0.9-1.2,2.5-1.4,3.7-0.5c1.2,0.9,1.4,2.5,0.5,3.7c-2.5,3.4-4.8,7-6.9,10.7C193.9,52.2,193,52.7,192.1,52.7z M352.7,52.6
					c-0.9,0-1.8-0.5-2.3-1.4c-2-3.7-4.3-7.3-6.9-10.6c-0.9-1.2-0.6-2.8,0.5-3.7c1.2-0.9,2.8-0.6,3.7,0.5c2.7,3.6,5.1,7.4,7.3,11.3
					c0.7,1.3,0.2,2.9-1,3.6C353.5,52.5,353.1,52.6,352.7,52.6z M207.7,31.8c-0.7,0-1.3-0.3-1.9-0.8c-1-1-1-2.7,0-3.7
					c3.2-3.2,6.6-6.1,10.1-8.8c1.2-0.9,2.8-0.6,3.7,0.5c0.9,1.2,0.6,2.8-0.5,3.7c-3.4,2.5-6.6,5.3-9.6,8.3
					C209.1,31.6,208.4,31.8,207.7,31.8z M337.1,31.8c-0.7,0-1.3-0.3-1.9-0.8c-3-3-6.2-5.8-9.6-8.3c-1.2-0.9-1.4-2.5-0.5-3.7
					c0.9-1.2,2.5-1.4,3.7-0.5c3.6,2.7,7,5.6,10.1,8.8c1,1,1,2.7,0,3.7C338.4,31.5,337.7,31.8,337.1,31.8z M228.5,16.2
					c-0.9,0-1.8-0.5-2.3-1.4c-0.7-1.3-0.2-2.9,1-3.6c3.9-2.1,8-4,12.2-5.6c1.4-0.5,2.9,0.2,3.4,1.5c0.5,1.4-0.2,2.9-1.5,3.4
					c-3.9,1.5-7.8,3.2-11.5,5.3C229.4,16.1,229,16.2,228.5,16.2z M316.2,16.2c-0.4,0-0.9-0.1-1.3-0.3c-3.7-2-7.6-3.8-11.5-5.3
					c-1.4-0.5-2.1-2-1.5-3.4c0.5-1.4,2-2.1,3.4-1.5c4.2,1.6,8.3,3.4,12.2,5.6c1.3,0.7,1.7,2.3,1,3.6C318,15.7,317.1,16.2,316.2,16.2
					z M252.9,7.1c-1.2,0-2.3-0.8-2.6-2.1c-0.3-1.4,0.6-2.8,2-3.1c4.4-0.9,8.8-1.6,13.3-1.9c1.4-0.1,2.7,1,2.8,2.4
					c0.1,1.4-1,2.7-2.4,2.8c-4.2,0.3-8.4,0.9-12.5,1.8C253.3,7.1,253.1,7.1,252.9,7.1z M291.8,7.1c-0.2,0-0.4,0-0.6-0.1
					c-4.1-0.9-8.3-1.5-12.5-1.8c-1.4-0.1-2.5-1.4-2.4-2.8c0.1-1.4,1.4-2.5,2.8-2.4c4.5,0.3,8.9,0.9,13.3,1.9c1.4,0.3,2.3,1.7,2,3.1
					C294.1,6.3,293,7.1,291.8,7.1z"/>
			</g>
			<g>
				<path class="st11" d="M363.9,96.5c-1.5,0-2.6-1.2-2.6-2.6c0-2.1-0.1-4.3-0.2-6.4c-0.1-1.4,1-2.7,2.4-2.8c1.5-0.1,2.7,1,2.8,2.4
					c0.2,2.2,0.2,4.5,0.2,6.8C366.5,95.4,365.4,96.5,363.9,96.5z"/>
			</g>
		</g>
	</g>
	<g>
		<path class="st11" d="M180.8,98.1C180.8,98.1,180.8,98.1,180.8,98.1c-0.5,0-1-0.3-1.3-0.7l-16.8-22.6c-0.5-0.7-0.4-1.8,0.3-2.3
			c0.7-0.5,1.8-0.4,2.3,0.3l15.5,20.9l15.5-19.2c0.6-0.7,1.6-0.8,2.3-0.2c0.7,0.6,0.8,1.6,0.2,2.3l-16.8,20.8
			C181.8,97.9,181.3,98.1,180.8,98.1z"/>
	</g>
</g>
<g>
	<g>
		
			<ellipse transform="matrix(0.9497 -0.3132 0.3132 0.9497 -81.1013 59.4577)" class="st12" cx="144.5" cy="282.2" rx="35.9" ry="35.9"/>
		<path class="st13" d="M172.6,291.2c-5,15.5-21.6,24-37.1,19c-1.6-0.5-3.2-1.2-4.6-1.9c-2.5-1.3-4.7-2.9-6.6-4.8
			c-0.7-0.7-1.4-1.4-2.1-2.2c-4.8-5.7-7.4-13.1-7-20.7c0.1-2.5,0.6-5,1.4-7.5c3.7-11.6,13.9-19.2,25.3-20.3c3.9-0.4,7.9,0,11.8,1.3
			c3.4,1.1,6.5,2.8,9.1,4.9c0.8,0.6,1.6,1.3,2.3,2c2,1.9,3.7,4.1,5,6.4C174.1,274.4,175.2,283,172.6,291.2z"/>
		<path class="st14" d="M162.7,259l-40.6,42.3c-4.8-5.7-7.4-13.1-7-20.7l26.7-27.8c3.9-0.4,7.9,0,11.8,1.3
			C157,255.2,160.1,256.9,162.7,259z"/>
		<path class="st14" d="M170.1,267.4l-39.2,40.9c-2.5-1.3-4.7-2.9-6.6-4.8L165,261C167,262.9,168.7,265.1,170.1,267.4z"/>
		<path class="st9" d="M146.5,254.2c-3.5-0.4-4.1,0-5.7,3.1c0.4-3.4,0-4.1-3.1-5.7c3.5,0.4,4.1,0,5.7-3.1
			C143.1,252,143.4,252.6,146.5,254.2z"/>
		<path class="st9" d="M134.2,309.5c-2.9-0.3-3.5,0-4.8,2.6c0.3-2.9,0-3.4-2.6-4.8c2.9,0.3,3.5,0,4.8-2.6
			C131.3,307.7,131.6,308.2,134.2,309.5z"/>
	</g>
</g>
<g>
	<g>
		
			<ellipse transform="matrix(0.9497 -0.3132 0.3132 0.9497 -67.8993 141.6479)" class="st12" cx="407" cy="282.2" rx="35.9" ry="35.9"/>
		<path class="st13" d="M435,291.2c-5,15.5-21.6,24-37.1,19c-1.6-0.5-3.2-1.2-4.6-1.9c-2.5-1.3-4.7-2.9-6.6-4.8
			c-0.7-0.7-1.4-1.4-2.1-2.2c-4.8-5.7-7.4-13.1-7-20.7c0.1-2.5,0.6-5,1.4-7.5c3.7-11.6,13.9-19.2,25.3-20.3c3.9-0.4,7.9,0,11.8,1.3
			c3.4,1.1,6.5,2.8,9.1,4.9c0.8,0.6,1.6,1.3,2.3,2c2,1.9,3.7,4.1,5,6.4C436.5,274.4,437.7,283,435,291.2z"/>
		<path class="st14" d="M425.2,259l-40.6,42.3c-4.8-5.7-7.4-13.1-7-20.7l26.7-27.8c3.9-0.4,7.9,0,11.8,1.3
			C419.4,255.2,422.5,256.9,425.2,259z"/>
		<path class="st14" d="M432.5,267.4l-39.2,40.9c-2.5-1.3-4.7-2.9-6.6-4.8l40.8-42.5C429.4,262.9,431.1,265.1,432.5,267.4z"/>
		<path class="st9" d="M408.9,254.2c-3.5-0.4-4.1,0-5.7,3.1c0.4-3.4,0-4.1-3.1-5.7c3.5,0.4,4.1,0,5.7-3.1
			C405.5,252,405.9,252.6,408.9,254.2z"/>
		<path class="st9" d="M396.6,309.5c-2.9-0.3-3.5,0-4.8,2.6c0.3-2.9,0-3.4-2.6-4.8c2.9,0.3,3.5,0,4.8-2.6
			C393.7,307.7,394,308.2,396.6,309.5z"/>
	</g>
</g>
<g>
	<path class="st8" d="M505.5,212.4c2.1-6.6,1.6-13.1-3.1-17.4c-4.7-4.4-12.3-3-12.3-3l0,0c0,0-5.3-3.5-11.9,1.1
		c-6.6,4.5-3.9,10.6-7.1,14.3c-1.9,2.2-8.5,1.2-8.7,9.7c-0.1,2.5,2.4,4.7,4.7,5.5c4.1,1.3,8.7,0.4,9.7,2.6
		c3.6,7.5,17.2,7.8,20.1,3.3c0.9-1.4,11.4,4.2,12.8-6.4C510.5,216.6,503.6,218.3,505.5,212.4z"/>
	<g>
		<path class="st6" d="M478.5,209.8c-0.9,8.2,3.6,15.4,10.1,16c6.4,0.7,12.3-5.4,13.2-13.6c0.9-8.2-3.6-15.4-10.1-16
			C485.2,195.5,479.3,201.6,478.5,209.8z"/>
		<path d="M498.2,213.2c0.1,0.6,0.6,1.1,1.3,1c0.6-0.1,1.1-0.6,1-1.3c-0.1-0.6-0.6-1.1-1.3-1C498.6,212,498.2,212.6,498.2,213.2z"/>
		<path d="M489.2,212.3c0.1,0.7,0.7,1.1,1.4,1.1c0.7-0.1,1.1-0.7,1.1-1.4c-0.1-0.7-0.7-1.1-1.4-1.1
			C489.6,211,489.1,211.7,489.2,212.3z"/>
		<g>
			<path class="st8" d="M488.3,210.9c0.1,0,0.2-0.1,0.3-0.1c1-1,2.6-0.7,2.7-0.7c0.2,0,0.5-0.1,0.5-0.3c0-0.2-0.1-0.5-0.3-0.5
				c-0.1,0-2.1-0.4-3.4,1c-0.2,0.2-0.2,0.4,0,0.6C488,210.9,488.1,210.9,488.3,210.9z"/>
		</g>
		<g>
			<path class="st8" d="M501.1,212.5c0,0,0.1,0,0.1,0c0.2-0.1,0.3-0.4,0.2-0.6c-0.8-1.6-2.5-1.7-2.5-1.7c-0.2,0-0.4,0.2-0.4,0.4
				c0,0.2,0.2,0.4,0.4,0.4c0.1,0,1.2,0,1.8,1.2C500.7,212.4,500.9,212.5,501.1,212.5z"/>
		</g>
		<path class="st7" d="M496.7,215.3c0.4,0.8,0.7,1.6,1.1,2.1c0.1,0.2,0.1,0.5-0.1,0.6c-0.7,0.6-2.3,0.8-3.2,0.9
			c-0.1,0-0.2-0.2-0.1-0.2c1.1-0.4,1.6-0.8,1.8-1.1c0.1-0.1,0.2-0.3,0.2-0.5c-0.1-0.4-0.1-1.2-0.2-1.8
			C496.4,215.1,496.7,215.1,496.7,215.3z"/>
		<path class="st9" d="M488.1,219c-0.1-0.3,0.2-0.5,0.5-0.4c0.7,0.3,1.8,0.9,2.9,1.3c1.1,0.4,2.3,0.7,3.1,0.9
			c0.3,0.1,0.4,0.4,0.1,0.6c-0.8,0.5-2.2,1.2-3.9,0.6C489,221.3,488.3,219.8,488.1,219z"/>
	</g>
	<path class="st8" d="M478.6,209c7.4,1.6,19.8-2.2,22-5.6c0.2-4.9-6.3-9.7-11.1-9.1C484.5,195,477.5,202.4,478.6,209z"/>
	<path class="st7" d="M500.3,231.1c7.6,1.9,20.6,19.7,21.9,33c-4.2,0.9-9-2.5-9-2.5l-10.3-14.9L500.3,231.1z"/>
	<g>
		<path class="st6" d="M507.7,383.8l4.1-16.1l-10.1-1.4c-0.3,7.6-0.9,15.1-0.9,17.1L507.7,383.8z"/>
		<path class="st6" d="M483.6,366.3H473c0.3,2.5,1.7,16.2,1.7,16.2c0.9,2,8.8,1.6,8.8,0.4C482.9,380.5,483.5,366.6,483.6,366.3z"/>
		<path class="st4" d="M500.8,372.5l10.4,1.5l7.2-43.2c-1.5-16.4-15.9-51.3-15.9-51.3l-16.3,5.7l-0.4,15.4l19.6,33.2
			C502.9,340.3,501.2,361,500.8,372.5z"/>
		<path class="st5" d="M492.8,280.7c-0.1-1-0.2-1.3-1-1.8l-15.6-4.4l-3.7,3.7c-3.5,12.8-1.3,30.6,1.4,44.7
			c-4.1,12.2-2.5,37.4-0.8,49.3h11.1c0.6-7.9,0.4-22.6,0.5-29.7l0,0c1.4-5.7,2.8-11.8,4.1-18.2c1.6-8.2,3.6-16.1,4.1-23.5
			C493.3,293.7,493.4,286.2,492.8,280.7z"/>
	</g>
	<path class="st6" d="M473.1,229.2c-3.7,2.4-19.2,22.6-10.6,39.2c0.4,0.2,7.2-11.4,7.2-11.4l8.1-16L473.1,229.2z"/>
	<path class="st6" d="M480.8,218.7l9.7,5.5c0,0,0.9,3.9,1.3,5.2c0.9,2.6-2.5,3.8-5.4,2.1s-4.7-3.8-4.7-3.8L480.8,218.7z"/>
	<path class="st10" d="M505,282.1c0,0-4,4.7-4.7,5.1l-3.6-3.9l0,0.1l-0.9,2.2l-1,2.6c-0.8,0-25.8-5.6-25.8-5.6
		c0.1-2.3,2.2-9.6,5.6-17.3c-0.8-6.6,0-13.4-0.3-17.2c2-10.2,0.6-14.1-1.2-18.9l6.3-1.9l11.4,4l0.8-2.8c0,0,7.2,1.7,8.7,2.5
		l2.7,11.3l-0.6,24C502.5,266.4,503.4,276.1,505,282.1z"/>
	<path class="st2" d="M481.6,226.1l-4.5,1.9c0.5,5.4,12.5,8.6,12.5,8.6l1.2-5.2L481.6,226.1z"/>
	<path class="st2" d="M490.8,231.3l3.5,3.9c0,0,3.1-3.2,2-5.1c-1.1-2-5.2-3.3-5.2-3.3L490.8,231.3z"/>
	<g>
		<path class="st0" d="M505.2,383.6c1.1-2.8,3.3-3.1,3.3-3.1c4.4,5.9,15.2,2.3,14.8,10.2c-16.4-0.1-23.3,0-23.3,0
			c0-1.8,0.3-6.1,0.7-7.8l0.9,0.2L505.2,383.6z"/>
		<path class="st0" d="M522.3,392.8h-21.1c-0.6,0-1.1-0.5-1.1-1.1v-1.3h23.3v1.3C523.4,392.3,522.9,392.8,522.3,392.8z"/>
	</g>
	<g>
		<path class="st2" d="M496.7,283.4l-0.9,2.2c-0.8-5.2-3.6-26.7-2-32.7c1.5-5.6-0.4-11.5-2.2-17.2c-0.4-1.4-0.9-2.8-1.3-4.2l0.6-0.2
			l0.6-0.2c0.4,1.4,0.9,2.8,1.3,4.2c1.9,5.9,3.9,11.9,2.2,17.9C493.5,258.4,495.7,276.1,496.7,283.4z"/>
	</g>
	<g>
		<path class="st0" d="M485.4,390.8c0,0-1.3-4.9-1.4-5.6c-0.1-0.7-0.5-2.4-0.6-3.3c0-0.2-2.3-1.6-4-1.6c-2.3,0-4.5,1.4-4.5,1.6
			c-0.3,1.6-0.3,3.6-0.7,5.2c-0.3,1.2-1.2,4-1.2,4L485.4,390.8z"/>
		<g>
			<g>
				<g>
					<g>
						<path class="st0" d="M485.4,390.4c-0.3,1-4.1-0.2-6.9-0.1c-2.3,0-5.3,0.9-5.7,0.6c-0.6,1-0.1,3.2-0.1,3.2s2.4,0.1,5.3,0
							c2.9-0.1,6.3,0.1,7.5-0.3C486.4,392.3,485.4,390.4,485.4,390.4z"/>
					</g>
				</g>
			</g>
		</g>
	</g>
	<g>
		<path class="st6" d="M490.2,251.8c0,0-20,20.1-27.8,16.6c-2.6-3.5,2.9-10.4,8-12.7c5.1-2.3,13.6-6,13.6-6L490.2,251.8z"/>
		<path class="st15" d="M494,245l8.3-6.4c0.2-0.1,0.4-0.2,0.6-0.2l5.7,1c0.2,0,0.5,1,0.4,1.1l-5.7,3.4c0,0-0.1,0-0.1,0l-8.9,1.5
			C494.2,245.5,493.9,245.1,494,245z"/>
		<path class="st16" d="M494.4,245.6l7.9-6c0.2-0.1,0.4-0.2,0.6-0.2l5.9,1c0.2,0,0.2,0.2,0.1,0.3l-5.6,4.2c0,0-0.1,0-0.1,0l-8.7,1
			C494.4,245.9,494.3,245.7,494.4,245.6z"/>
		<path class="st6" d="M483.8,249.7l4.7-2.3c0,0,3-3.2,3.9-4.2c1.2-0.3,3.5-1.3,4-1.3c0.5,0,1.3,0.3,1.3,0.3l-2.7,2.1
			c0,0,1.1,0.5,2.6-0.1c1.5-0.6,4.4-2.5,5.5-1.8c0.4,0.5,0.4,0.5,0.4,0.5s1-0.8,1.6-0.2c1.8,1.6-9.9,8.6-9.9,8.6l-4.9,0.6
			L483.8,249.7z"/>
		<path class="st15" d="M503.2,240.8c-0.3,0.2-0.7,0.2-0.9-0.1c-0.2-0.3,0-0.6,0.3-0.9c0.3-0.2,0.7-0.2,0.9,0.1
			C503.7,240.2,503.5,240.6,503.2,240.8z"/>
	</g>
	<path class="st7" d="M522.2,264.2c0,0-10.4,11.9-17.6,13.5c-0.4-2.4-0.8-4.2-0.8-4.2l9.8-13L522.2,264.2z"/>
	<path id="c_4748_" class="st7" d="M503.3,278.4c0-0.1,0.1-0.2,0.1-0.3c0,0,0,0-0.1,0c-1-0.3-1.7-1.2-1.4-1.9c0-0.1,0.1-0.2,0.2-0.3
		c-0.5-0.4-0.8-1-0.6-1.5c0.1-0.2,0.2-0.4,0.4-0.5c-0.6-0.4-0.9-1-0.7-1.6c0.2-0.7,1.2-1.1,2-0.8c0.9,0.3,1.4,1.1,1.1,1.9
		c-0.1,0.2-0.2,0.3-0.3,0.5c0.9,0.4,1.4,1.2,1.1,1.8c0,0.1-0.1,0.2-0.2,0.3c0.5,0.4,0.8,1,0.6,1.5c-0.1,0.2-0.2,0.4-0.3,0.5
		c0.5,0.3,0.8,0.9,0.6,1.4c-0.2,0.6-1,0.9-1.7,0.7C503.5,279.7,503.1,279,503.3,278.4z"/>
	<g>
		<path class="st6" d="M480.9,210.3c1.2,1.9,0.9,4.2-0.6,5.2c-1.5,1-3.8,0.3-5-1.6c-1.2-1.9-0.9-4.2,0.6-5.2
			C477.5,207.7,479.7,208.4,480.9,210.3z"/>
		<g>
			<path class="st7" d="M478.4,214.3c0.1,0,0.1,0,0.2-0.1c0.9-0.6,1.3-1.6,1.1-2.5c-0.3-1-1.2-1.7-2.1-1.7c-0.3,0-0.5,0.2-0.5,0.5
				c0,0.3,0.2,0.5,0.5,0.5c0.5,0,1.1,0.4,1.2,1c0.2,0.5-0.1,1-0.7,1.4c-0.2,0.1-0.3,0.5-0.1,0.7C478,214.3,478.2,214.4,478.4,214.3z
				"/>
		</g>
	</g>
</g>
</svg>
