<?xml version="1.0" encoding="utf-8"?>
<!-- Generator: Adobe Illustrator 24.3.0, SVG Export Plug-In . SVG Version: 6.00 Build 0)  -->
<svg version="1.1" id="Layer_1" xmlns="http://www.w3.org/2000/svg" xmlns:xlink="http://www.w3.org/1999/xlink" x="0px" y="0px"
	 viewBox="0 0 448.6 243" style="enable-background:new 0 0 448.6 243;" xml:space="preserve">
<style type="text/css">
	.st0{fill:#50448C;}
	.st1{fill:url(#SVGID_1_);}
	.st2{fill:url(#SVGID_2_);}
	.st3{fill:url(#SVGID_3_);}
	.st4{fill:url(#SVGID_4_);}
	.st5{fill:url(#SVGID_5_);}
	.st6{fill:url(#SVGID_6_);}
	.st7{clip-path:url(#SVGID_8_);}
	.st8{fill:#3F964F;}
	.st9{fill:url(#SVGID_9_);}
	.st10{fill:url(#SVGID_10_);}
	.st11{fill:url(#SVGID_11_);}
	.st12{fill:#FFC431;}
	.st13{font-family:'Montserrat-Bold';}
	.st14{font-size:26.341px;}
	.st15{clip-path:url(#SVGID_13_);}
	.st16{fill:url(#SVGID_14_);}
	.st17{fill:#55BCB3;}
	.st18{fill:url(#SVGID_15_);}
	.st19{fill:#E07E58;}
	.st20{fill:url(#SVGID_16_);}
	.st21{fill:#C16810;}
	.st22{fill:url(#SVGID_17_);}
	.st23{fill:url(#SVGID_18_);}
	.st24{fill:url(#SVGID_19_);}
	.st25{fill:url(#SVGID_20_);}
	.st26{fill:url(#SVGID_21_);}
	.st27{fill:#F4EEFF;}
	.st28{fill:url(#SVGID_22_);}
	.st29{fill:url(#SVGID_23_);}
	.st30{fill:url(#SVGID_24_);}
	.st31{fill:url(#SVGID_25_);}
	.st32{fill:url(#SVGID_26_);}
	.st33{fill:url(#SVGID_27_);}
	.st34{fill:url(#SVGID_28_);}
	.st35{fill:url(#SVGID_29_);}
	.st36{fill:url(#SVGID_30_);}
	.st37{fill:url(#SVGID_31_);}
	.st38{fill:url(#SVGID_32_);}
	.st39{fill:url(#SVGID_33_);}
	.st40{fill:url(#SVGID_34_);}
	.st41{fill:url(#SVGID_35_);}
	.st42{fill:url(#SVGID_36_);}
	.st43{fill:#9E86E0;}
	.st44{fill:url(#SVGID_37_);}
	.st45{fill:url(#SVGID_38_);}
	.st46{fill:#3ECCBA;}
	.st47{fill:url(#SVGID_39_);}
	.st48{fill:url(#SVGID_40_);}
	.st49{fill:#FFFFFF;}
	.st50{fill:url(#SVGID_41_);}
	.st51{fill:url(#SVGID_42_);}
	.st52{font-size:24.7447px;}
	.st53{fill:url(#SVGID_43_);}
	.st54{fill:url(#SVGID_44_);}
	.st55{font-size:25.1431px;}
	.st56{fill:#FCD17D;}
	.st57{fill:#FFA600;}
	.st58{fill:#FFD165;}
</style>
<g>
	<g>
		<path class="st0" d="M38,199.7L38,199.7c-1.5-0.1-3.1-0.4-4.5-0.8c-0.3-0.1-0.5-0.4-0.4-0.7s0.4-0.5,0.7-0.4
			c1.4,0.4,2.9,0.6,4.3,0.7c0.3,0,0.5,0.3,0.5,0.6C38.5,199.5,38.3,199.7,38,199.7z M27.3,196.7c-0.1,0-0.2,0-0.2-0.1
			c-1.3-0.6-2.7-1.4-4-2.2c-0.3-0.2-0.3-0.5-0.2-0.8c0.2-0.3,0.5-0.3,0.8-0.2c1.3,0.8,2.5,1.5,3.8,2.1c0.3,0.1,0.4,0.5,0.3,0.7
			C27.7,196.6,27.5,196.7,27.3,196.7z M18.1,190.4c-0.1,0-0.3,0-0.4-0.1c-1.1-1-2.2-2.1-3.2-3.2c-0.2-0.2-0.2-0.6,0-0.8
			s0.6-0.2,0.8,0c1,1.1,2,2.2,3.1,3.2c0.2,0.2,0.2,0.6,0,0.8C18.4,190.4,18.2,190.4,18.1,190.4z M10.9,181.9c-0.2,0-0.4-0.1-0.5-0.3
			c-0.8-1.2-1.6-2.5-2.3-3.9c-0.1-0.3,0-0.6,0.2-0.8c0.3-0.1,0.6,0,0.8,0.2c0.7,1.3,1.5,2.6,2.2,3.8c0.2,0.3,0.1,0.6-0.2,0.8
			C11.1,181.8,11,181.9,10.9,181.9z M5.8,171.9c-0.2,0-0.4-0.1-0.5-0.4c-0.5-1.4-1-2.8-1.5-4.3c-0.1-0.3,0.1-0.6,0.4-0.7
			c0.3-0.1,0.6,0.1,0.7,0.4c0.5,1.4,1,2.8,1.5,4.2c0.1,0.3,0,0.6-0.3,0.7C6,171.9,5.9,171.9,5.8,171.9z M2.6,161.2
			c-0.3,0-0.5-0.2-0.5-0.4c-0.1-0.5-0.2-1-0.3-1.5c-0.2-1-0.4-2-0.6-3c-0.1-0.3,0.2-0.6,0.5-0.6c0.3-0.1,0.6,0.1,0.6,0.5
			c0.2,1,0.4,2,0.6,2.9c0.1,0.5,0.2,1,0.3,1.4c0.1,0.3-0.1,0.6-0.4,0.7C2.6,161.2,2.6,161.2,2.6,161.2z M0.8,150.1
			c-0.3,0-0.5-0.2-0.6-0.5c-0.1-1.5-0.2-3-0.2-4.5c0-0.3,0.2-0.6,0.6-0.6l0,0c0.3,0,0.6,0.2,0.6,0.6c0,1.4,0.1,2.9,0.2,4.4
			C1.4,149.8,1.2,150.1,0.8,150.1L0.8,150.1z M0.9,139L0.9,139c-0.4,0-0.6-0.3-0.6-0.6c0.2-1.5,0.4-3,0.7-4.5
			c0.1-0.3,0.4-0.5,0.7-0.4c0.3,0.1,0.5,0.4,0.4,0.7c-0.3,1.4-0.5,2.9-0.7,4.4C1.5,138.8,1.2,139,0.9,139z M41.6,134.9
			c-0.3,0-0.6,0-0.9,0c-0.3,0-0.5-0.3-0.5-0.6s0.3-0.5,0.6-0.5c0.3,0,0.6,0,0.8,0c1.2,0,2.3-0.2,3.3-0.6c0.3-0.1,0.6,0,0.7,0.3
			c0.1,0.3,0,0.6-0.3,0.7C44.2,134.7,42.9,134.9,41.6,134.9z M34.5,132.7c-0.1,0-0.2,0-0.3-0.1c-0.7-0.4-1.3-0.9-1.8-1.5
			c-0.5-0.5-1.1-1.1-1.5-1.7c-0.2-0.2-0.2-0.6,0.1-0.8c0.2-0.2,0.6-0.2,0.8,0.1c0.4,0.6,0.9,1.1,1.4,1.6s1.1,0.9,1.7,1.3
			c0.3,0.2,0.3,0.5,0.2,0.8C34.8,132.6,34.7,132.7,34.5,132.7z M50.1,129.9c-0.1,0-0.2,0-0.3-0.1c-0.3-0.1-0.4-0.5-0.2-0.8
			c0.6-1.2,1-2.6,1.1-4.1c0-0.3,0.3-0.5,0.6-0.5c0.3,0,0.5,0.3,0.5,0.6c-0.1,1.7-0.5,3.2-1.2,4.5C50.5,129.8,50.3,129.9,50.1,129.9z
			 M3.6,128.1c-0.1,0-0.1,0-0.2,0c-0.3-0.1-0.4-0.4-0.3-0.7c0.5-1.4,1.2-2.8,1.9-4.1c0.1-0.3,0.5-0.4,0.8-0.2
			c0.3,0.1,0.4,0.5,0.2,0.8c-0.7,1.3-1.3,2.6-1.8,4C4,128,3.8,128.1,3.6,128.1z M28.1,123.7c-0.2,0-0.4-0.1-0.5-0.4
			c-0.5-1.4-0.9-2.8-1.1-4.4c-0.1-0.3,0.1-0.6,0.5-0.7c0.3-0.1,0.6,0.1,0.7,0.5c0.3,1.5,0.6,2.9,1.1,4.2c0.1,0.3-0.1,0.6-0.3,0.7
			C28.2,123.7,28.1,123.7,28.1,123.7z M50.2,119c-0.2,0-0.4-0.1-0.5-0.4c-0.5-1.4-1.2-2.6-2.1-3.8c-0.2-0.2-0.1-0.6,0.1-0.8
			c0.2-0.2,0.6-0.1,0.8,0.1c0.9,1.2,1.7,2.6,2.2,4.1c0.1,0.3,0,0.6-0.3,0.7C50.3,119,50.2,119,50.2,119z M9.1,118.4
			c-0.1,0-0.2,0-0.3-0.1c-0.2-0.2-0.3-0.5-0.1-0.8c1-1.2,2-2.3,3.1-3.4c0.2-0.2,0.6-0.2,0.8,0c0.2,0.2,0.2,0.6,0,0.8
			c-1,1-2,2.1-3,3.3C9.4,118.3,9.2,118.4,9.1,118.4z M26.3,112.7c-0.3,0-0.6-0.2-0.6-0.6v-0.5c0-1.3,0.1-2.7,0.2-4.1
			c0-0.3,0.3-0.5,0.6-0.5s0.5,0.3,0.5,0.6c-0.1,1.3-0.2,2.6-0.2,4v0.5C26.9,112.4,26.6,112.7,26.3,112.7L26.3,112.7z M17.4,111
			c-0.2,0-0.4-0.1-0.5-0.3c-0.2-0.3-0.1-0.6,0.2-0.8c0.9-0.5,1.7-1,2.6-1.4c0.5-0.2,1-0.4,1.5-0.6c0.3-0.1,0.6,0,0.7,0.3
			c0.1,0.3,0,0.6-0.3,0.7c-0.5,0.2-0.9,0.4-1.4,0.6c-0.9,0.4-1.7,0.8-2.5,1.3C17.6,111,17.5,111,17.4,111z M43,110.7
			c-0.1,0-0.2,0-0.3-0.1c-1.2-0.7-2.5-1.4-3.9-1.9c-0.3-0.1-0.4-0.4-0.3-0.7c0.1-0.3,0.4-0.4,0.7-0.3c1.5,0.5,2.9,1.2,4.1,2
			c0.3,0.2,0.3,0.5,0.2,0.8C43.4,110.6,43.2,110.7,43,110.7z M27.9,107.5c-0.3,0-0.5-0.2-0.6-0.5c0-0.3,0.2-0.6,0.5-0.6
			c1.5-0.2,3.1-0.2,4.6-0.1c0.3,0,0.5,0.3,0.5,0.6c0,0.3-0.3,0.5-0.6,0.5C30.9,107.3,29.5,107.3,27.9,107.5
			C28,107.5,28,107.5,27.9,107.5z M27.6,101.6L27.6,101.6c-0.4-0.1-0.6-0.4-0.5-0.7c0.4-1.4,0.8-2.9,1.3-4.3
			c0.1-0.3,0.4-0.4,0.7-0.3s0.4,0.4,0.3,0.7c-0.5,1.4-0.9,2.8-1.3,4.2C28.1,101.4,27.9,101.6,27.6,101.6z M31.5,91.1
			c-0.1,0-0.2,0-0.3-0.1c-0.3-0.1-0.4-0.5-0.2-0.8c0.7-1.3,1.4-2.7,2.2-3.9c0.2-0.3,0.5-0.3,0.8-0.2c0.3,0.2,0.3,0.5,0.2,0.8
			c-0.8,1.3-1.5,2.6-2.2,3.9C31.9,91,31.7,91.1,31.5,91.1z M37.6,81.7c-0.1,0-0.2,0-0.4-0.1c-0.2-0.2-0.3-0.5-0.1-0.8
			c0.9-1.2,1.9-2.3,3-3.4c0.2-0.2,0.6-0.2,0.8,0c0.2,0.2,0.2,0.6,0,0.8c-1,1.1-2,2.2-2.9,3.3C37.9,81.7,37.8,81.7,37.6,81.7z
			 M45.4,73.8c-0.2,0-0.3-0.1-0.4-0.2c-0.2-0.2-0.2-0.6,0.1-0.8c1.2-1,2.4-1.9,3.6-2.7c0.3-0.2,0.6-0.1,0.8,0.1
			c0.2,0.3,0.1,0.6-0.1,0.8c-1.2,0.8-2.4,1.7-3.5,2.7C45.7,73.7,45.6,73.8,45.4,73.8z M54.7,67.6c-0.2,0-0.4-0.1-0.5-0.3
			c-0.1-0.3,0-0.6,0.2-0.8c1.3-0.7,2.7-1.3,4.1-1.9c0.3-0.1,0.6,0,0.7,0.3s0,0.6-0.3,0.7c-1.4,0.6-2.7,1.2-4,1.9
			C54.9,67.6,54.8,67.6,54.7,67.6z M111.9,65.4c-0.1,0-0.1,0-0.2,0c-0.9-0.3-1.8-0.6-2.7-0.9c-0.3-0.1-0.5-0.4-0.4-0.7
			s0.4-0.5,0.7-0.4c0.9,0.3,1.8,0.6,2.7,0.9c0.3,0.1,0.4,0.4,0.3,0.7C112.4,65.2,112.2,65.4,111.9,65.4z M65.1,63.4
			c-0.2,0-0.5-0.2-0.5-0.4c-0.1-0.3,0.1-0.6,0.4-0.7c1.4-0.4,2.9-0.8,4.4-1.2c0.3-0.1,0.6,0.1,0.7,0.4c0.1,0.3-0.1,0.6-0.4,0.7
			c-1.4,0.3-2.9,0.7-4.3,1.1C65.2,63.4,65.2,63.4,65.1,63.4z M102.7,62.7L102.7,62.7c-1.5-0.3-3-0.6-4.5-0.9
			c-0.3-0.1-0.5-0.3-0.5-0.6c0.1-0.3,0.3-0.5,0.6-0.5c1.5,0.3,3,0.6,4.4,0.9c0.3,0.1,0.5,0.4,0.4,0.7
			C103.2,62.5,103,62.7,102.7,62.7z M76,61.1c-0.3,0-0.5-0.2-0.6-0.5c0-0.3,0.2-0.6,0.5-0.6c1.5-0.2,3-0.3,4.5-0.4
			c0.3,0,0.6,0.2,0.6,0.5s-0.2,0.6-0.5,0.6C79.1,60.8,77.6,60.9,76,61.1C76.1,61.1,76.1,61.1,76,61.1z M91.7,60.9L91.7,60.9
			c-1.5-0.1-3-0.2-4.5-0.3c-0.3,0-0.6-0.3-0.5-0.6c0-0.3,0.3-0.6,0.6-0.5c1.5,0,3,0.1,4.5,0.3c0.3,0,0.5,0.3,0.5,0.6
			C92.2,60.6,92,60.9,91.7,60.9z"/>
	</g>
	<g>
		<path class="st0" d="M124.7,85.3c-0.3,0-0.5-0.2-0.6-0.5c-0.3-1.5-0.5-3-0.6-4.5c0-0.3,0.2-0.6,0.5-0.6s0.6,0.2,0.6,0.5
			c0.1,1.5,0.3,2.9,0.6,4.4C125.4,85,125.2,85.3,124.7,85.3C124.8,85.3,124.8,85.3,124.7,85.3z M124,74.2L124,74.2
			c-0.3,0-0.6-0.3-0.6-0.6c0.1-1.5,0.2-3,0.3-4.5c0-0.3,0.3-0.5,0.6-0.5s0.5,0.3,0.5,0.6c-0.2,1.5-0.3,3-0.3,4.4
			C124.5,73.9,124.3,74.2,124,74.2z M125.4,63.1h-0.1c-0.3-0.1-0.5-0.4-0.4-0.7c0.3-1.5,0.7-2.9,1.2-4.4c0.1-0.3,0.4-0.5,0.7-0.4
			s0.5,0.4,0.4,0.7c-0.4,1.4-0.8,2.9-1.2,4.3C125.9,62.9,125.7,63.1,125.4,63.1z M322.7,57.8c-0.3,0-0.5-0.2-0.6-0.5
			c-0.2-1.4-0.5-2.9-0.9-4.3c-0.1-0.3,0.1-0.6,0.4-0.7c0.3-0.1,0.6,0.1,0.7,0.4c0.4,1.5,0.7,3,0.9,4.4
			C323.3,57.5,323.1,57.8,322.7,57.8C322.8,57.8,322.7,57.8,322.7,57.8z M128.9,52.5c-0.1,0-0.1,0-0.2,0c-0.3-0.1-0.4-0.4-0.3-0.7
			c0.6-1.4,1.2-2.7,1.9-4.1c0.1-0.3,0.5-0.4,0.8-0.2c0.3,0.1,0.4,0.5,0.2,0.8c-0.7,1.3-1.3,2.7-1.9,4
			C129.3,52.3,129.1,52.5,128.9,52.5z M319.7,47.1c-0.2,0-0.4-0.1-0.5-0.4c-0.5-1.4-1.1-2.7-1.8-4.1c-0.1-0.3,0-0.6,0.3-0.7
			c0.3-0.1,0.6,0,0.7,0.3c0.7,1.4,1.3,2.8,1.8,4.1c0.1,0.3,0,0.6-0.3,0.7C319.9,47.1,319.8,47.1,319.7,47.1z M134.1,42.5
			c-0.1,0-0.2,0-0.3-0.1c-0.3-0.2-0.3-0.5-0.2-0.8c0.8-1.3,1.6-2.5,2.5-3.8c0.2-0.3,0.5-0.3,0.8-0.1s0.3,0.5,0.1,0.8
			c-0.9,1.2-1.7,2.5-2.5,3.7C134.5,42.4,134.3,42.5,134.1,42.5z M314.7,37.1c-0.2,0-0.4-0.1-0.5-0.3c-0.8-1.2-1.6-2.5-2.5-3.7
			c-0.2-0.2-0.1-0.6,0.1-0.8s0.6-0.1,0.8,0.1c0.9,1.2,1.7,2.5,2.5,3.7c0.2,0.3,0.1,0.6-0.2,0.8C314.9,37.1,314.8,37.1,314.7,37.1z
			 M140.7,33.5c-0.1,0-0.3,0-0.4-0.1c-0.2-0.2-0.3-0.6-0.1-0.8c1-1.1,2-2.3,3-3.4c0.2-0.2,0.6-0.2,0.8,0s0.2,0.6,0,0.8
			c-1,1.1-2,2.2-3,3.3C141,33.4,140.9,33.5,140.7,33.5z M307.9,28.2c-0.2,0-0.3-0.1-0.4-0.2c-1-1.1-2-2.2-3.1-3.2
			c-0.2-0.2-0.2-0.6,0-0.8c0.2-0.2,0.6-0.2,0.8,0c1.1,1.1,2.1,2.2,3.1,3.3c0.2,0.2,0.2,0.6,0,0.8C308.2,28.1,308.1,28.2,307.9,28.2z
			 M148.5,25.5c-0.2,0-0.3-0.1-0.4-0.2c-0.2-0.2-0.2-0.6,0-0.8c1.1-1,2.3-2,3.5-2.9c0.2-0.2,0.6-0.1,0.8,0.1s0.1,0.6-0.1,0.8
			c-1.2,0.9-2.3,1.9-3.4,2.8C148.8,25.5,148.7,25.5,148.5,25.5z M299.8,20.4c-0.1,0-0.3,0-0.4-0.1c-1.1-0.9-2.3-1.8-3.5-2.7
			c-0.3-0.2-0.3-0.5-0.1-0.8c0.2-0.3,0.5-0.3,0.8-0.1c1.2,0.9,2.4,1.8,3.6,2.8c0.2,0.2,0.3,0.5,0.1,0.8
			C300.2,20.3,300,20.4,299.8,20.4z M157.5,18.7c-0.2,0-0.4-0.1-0.5-0.3c-0.2-0.3-0.1-0.6,0.2-0.8c1.2-0.8,2.5-1.6,3.8-2.4
			c0.3-0.2,0.6-0.1,0.8,0.2s0.1,0.6-0.2,0.8c-1.3,0.8-2.6,1.5-3.8,2.3C157.7,18.7,157.6,18.7,157.5,18.7z M290.7,14
			c-0.1,0-0.2,0-0.3-0.1c-0.8-0.5-1.6-0.9-2.4-1.3c-0.5-0.3-1-0.5-1.5-0.8c-0.3-0.1-0.4-0.5-0.2-0.8c0.1-0.3,0.5-0.4,0.8-0.2
			c0.5,0.3,1,0.5,1.6,0.8c0.8,0.4,1.6,0.9,2.4,1.4c0.3,0.2,0.4,0.5,0.2,0.8C291.1,13.9,290.9,14,290.7,14z M167.2,13.2
			c-0.2,0-0.4-0.1-0.5-0.3c-0.1-0.3,0-0.6,0.3-0.8c1.3-0.7,2.7-1.3,4.1-1.9c0.3-0.1,0.6,0,0.7,0.3c0.1,0.3,0,0.6-0.3,0.7
			c-1.4,0.6-2.7,1.2-4,1.9C167.3,13.2,167.3,13.2,167.2,13.2z M280.7,9c-0.1,0-0.1,0-0.2,0c-1.3-0.6-2.7-1.1-4.1-1.6
			c-0.3-0.1-0.4-0.4-0.3-0.7c0.1-0.3,0.4-0.4,0.7-0.3c1.4,0.5,2.8,1.1,4.2,1.7c0.3,0.1,0.4,0.4,0.3,0.7C281.1,8.8,280.9,9,280.7,9z
			 M177.5,8.8c-0.2,0-0.4-0.1-0.5-0.4c-0.1-0.3,0-0.6,0.3-0.7c1.4-0.5,2.8-1,4.3-1.5c0.3-0.1,0.6,0.1,0.7,0.4
			c0.1,0.3-0.1,0.6-0.4,0.7c-1.4,0.5-2.8,1-4.2,1.5C177.6,8.8,177.5,8.8,177.5,8.8z M188.1,5.4c-0.2,0-0.5-0.2-0.5-0.4
			c-0.1-0.3,0.1-0.6,0.4-0.7c1.4-0.4,2.9-0.7,4.4-1.1c0.3-0.1,0.6,0.1,0.7,0.4c0.1,0.3-0.1,0.6-0.4,0.7c-1.5,0.3-2.9,0.7-4.3,1.1
			C188.2,5.4,188.2,5.4,188.1,5.4z M270.1,5.2c-0.1,0-0.1,0-0.2,0c-1.4-0.4-2.9-0.8-4.3-1.2c-0.3-0.1-0.5-0.4-0.4-0.7
			s0.4-0.5,0.7-0.4c1.5,0.4,2.9,0.8,4.3,1.2c0.3,0.1,0.5,0.4,0.4,0.7C270.6,5.1,270.4,5.2,270.1,5.2z M199.1,3
			c-0.3,0-0.5-0.2-0.6-0.5s0.1-0.6,0.5-0.7c1.5-0.3,3-0.5,4.4-0.7c0.3,0,0.6,0.2,0.6,0.5s-0.2,0.6-0.5,0.6c-1.5,0.2-2.9,0.5-4.4,0.7
			C199.1,3,199.1,3,199.1,3z M259.3,2.6h-0.1c-1.4-0.3-2.9-0.5-4.4-0.7c-0.3,0-0.5-0.3-0.5-0.6s0.3-0.5,0.6-0.5
			c1.5,0.2,3,0.5,4.4,0.7c0.3,0.1,0.5,0.3,0.4,0.7C259.8,2.5,259.5,2.6,259.3,2.6z M210.1,1.4c-0.3,0-0.5-0.2-0.6-0.5
			c0-0.3,0.2-0.6,0.5-0.6c1.5-0.2,3-0.3,4.5-0.4c0.3,0,0.6,0.2,0.6,0.5S214.9,1,214.6,1C213.2,1.1,211.7,1.2,210.1,1.4
			C210.2,1.4,210.2,1.4,210.1,1.4z M248.2,1.1C248.1,1.1,248.1,1.1,248.2,1.1c-1.5-0.2-3-0.3-4.5-0.4c-0.3,0-0.5-0.3-0.5-0.6
			s0.3-0.5,0.6-0.5c1.5,0.1,3,0.2,4.5,0.4c0.3,0,0.5,0.3,0.5,0.6C248.7,0.9,248.4,1.1,248.2,1.1z M221.3,0.5c-0.3,0-0.5-0.2-0.6-0.5
			c0-0.3,0.2-0.6,0.5-0.6c1.5-0.1,3-0.1,4.5-0.2c0.3,0,0.6,0.2,0.6,0.5s-0.2,0.6-0.5,0.6C224.3,0.4,222.8,0.4,221.3,0.5L221.3,0.5z
			 M237,0.3L237,0.3c-1.5,0-3-0.1-4.5-0.1c-0.3,0-0.6-0.3-0.6-0.6s0.3-0.6,0.6-0.6l0,0c1.5,0,3,0,4.5,0.1c0.3,0,0.6,0.3,0.5,0.6
			C237.5,0.1,237.3,0.3,237,0.3z"/>
	</g>
	<g>
		<path class="st0" d="M426.3,148.1h-0.1c-0.3-0.1-0.5-0.4-0.4-0.7c0.1-0.5,0.2-1,0.3-1.5c0.1-0.3,0.4-0.5,0.7-0.4
			c0.3,0.1,0.5,0.4,0.4,0.7c-0.1,0.5-0.2,1-0.3,1.5C426.8,147.9,426.5,148.1,426.3,148.1z M427.5,140L427.5,140
			c-0.4,0-0.6-0.3-0.6-0.6c0.1-1.5,0.2-3,0.2-4.4c0-0.3,0.3-0.6,0.6-0.6l0,0c0.3,0,0.6,0.3,0.6,0.6c0,1.5-0.1,3-0.2,4.5
			C428,139.7,427.8,140,427.5,140z M427.4,128.8c-0.3,0-0.5-0.2-0.6-0.5c-0.1-1.5-0.3-2.9-0.6-4.4c-0.1-0.3,0.2-0.6,0.5-0.6
			c0.3-0.1,0.6,0.2,0.6,0.5c0.3,1.5,0.5,3,0.6,4.5C428,128.5,427.8,128.8,427.4,128.8C427.5,128.8,427.5,128.8,427.4,128.8z
			 M356.9,125.4L356.9,125.4c-1.7-0.1-3.2-0.4-4.6-0.8c-0.3-0.1-0.4-0.4-0.3-0.7c0.1-0.3,0.4-0.4,0.7-0.3c1.2,0.4,2.7,0.7,4.2,0.8
			c0.3,0,0.5,0.3,0.5,0.6C357.5,125.2,357.2,125.4,356.9,125.4z M363.6,124.9c-0.3,0-0.5-0.2-0.6-0.5s0.2-0.6,0.5-0.6
			c1.4-0.3,2.9-0.6,4.3-1c0.3-0.1,0.6,0.1,0.7,0.4s-0.1,0.6-0.4,0.7C366.7,124.3,365.2,124.6,363.6,124.9
			C363.7,124.9,363.6,124.9,363.6,124.9z M374.2,121.4c-0.2,0-0.4-0.1-0.5-0.3c-0.1-0.3,0-0.6,0.3-0.7c1.3-0.6,2.6-1.3,3.9-2.1
			c0.3-0.2,0.6-0.1,0.8,0.2c0.2,0.3,0.1,0.6-0.2,0.8c-1.3,0.8-2.6,1.5-4,2.2C374.4,121.4,374.3,121.4,374.2,121.4z M347.5,120.3
			c-0.2,0-0.4-0.1-0.5-0.3c-0.7-1.3-1-2.8-1.1-4.5c0-0.3,0.2-0.6,0.5-0.6s0.6,0.2,0.6,0.5c0.1,1.6,0.4,2.9,1,4.1
			c0.1,0.3,0,0.6-0.2,0.8C347.7,120.3,347.6,120.3,347.5,120.3z M425.3,117.8c-0.2,0-0.5-0.2-0.5-0.4c-0.4-1.4-0.9-2.8-1.4-4.2
			c-0.1-0.3,0-0.6,0.3-0.7s0.6,0,0.7,0.3c0.5,1.4,1,2.8,1.5,4.3c0.1,0.3-0.1,0.6-0.4,0.7C425.4,117.8,425.4,117.8,425.3,117.8z
			 M383.6,115.4c-0.2,0-0.3-0.1-0.4-0.2c-0.2-0.2-0.2-0.6,0.1-0.8c1.1-1,2.2-2,3.2-3c0.2-0.2,0.6-0.2,0.8,0c0.2,0.2,0.2,0.6,0,0.8
			c-1,1.1-2.1,2.1-3.3,3.1C383.9,115.3,383.7,115.4,383.6,115.4z M347.3,109.4c0,0-0.1,0-0.2,0c-0.3-0.1-0.5-0.4-0.4-0.7
			c0.4-1.5,0.9-2.9,1.5-4.3c0.1-0.3,0.5-0.4,0.7-0.3c0.3,0.1,0.4,0.5,0.3,0.7c-0.6,1.3-1.1,2.7-1.5,4.1
			C347.8,109.2,347.5,109.4,347.3,109.4z M421,107.5c-0.2,0-0.4-0.1-0.5-0.3c-0.6-1.1-1.3-2.3-2-3.4l-0.3-0.4
			c-0.2-0.3-0.1-0.6,0.1-0.8c0.3-0.2,0.6-0.1,0.8,0.1l0.3,0.4c0.7,1.1,1.4,2.3,2.1,3.4c0.1,0.3,0.1,0.6-0.2,0.8
			C421.2,107.5,421.1,107.5,421,107.5z M391.1,107.1c-0.1,0-0.2,0-0.3-0.1c-0.3-0.2-0.3-0.5-0.1-0.8c0.8-1.2,1.6-2.5,2.3-3.7
			c0.2-0.3,0.5-0.4,0.8-0.2c0.3,0.2,0.4,0.5,0.2,0.8c-0.7,1.3-1.5,2.6-2.4,3.8C391.5,107,391.3,107.1,391.1,107.1z M352.1,99.4
			c-0.1,0-0.2,0-0.3-0.1c-0.3-0.2-0.3-0.5-0.1-0.8c0.9-1.2,1.8-2.4,2.9-3.5c0.2-0.2,0.6-0.2,0.8,0c0.2,0.2,0.2,0.6,0,0.8
			c-1,1.1-1.9,2.2-2.8,3.4C352.5,99.3,352.3,99.4,352.1,99.4z M414.5,98.4c-0.2,0-0.3-0.1-0.4-0.2c-1-1.1-2.1-2.1-3.1-3.1
			c-0.2-0.2-0.2-0.6,0-0.8c0.2-0.2,0.6-0.2,0.8,0c1.1,1,2.2,2.1,3.2,3.2c0.2,0.2,0.2,0.6,0,0.8C414.8,98.4,414.6,98.4,414.5,98.4z
			 M396.4,97.2c-0.1,0-0.1,0-0.2,0c-0.3-0.1-0.4-0.4-0.3-0.7c0.5-1.4,1-2.8,1.4-4.2c0.1-0.3,0.4-0.5,0.7-0.4
			c0.3,0.1,0.5,0.4,0.4,0.7c-0.4,1.5-0.9,2.9-1.4,4.3C396.8,97.1,396.6,97.2,396.4,97.2z M359.9,91.4c-0.2,0-0.3-0.1-0.4-0.2
			c-0.2-0.2-0.1-0.6,0.1-0.8c1.2-0.9,2.5-1.8,3.8-2.5c0.3-0.2,0.6-0.1,0.8,0.2c0.2,0.3,0.1,0.6-0.2,0.8c-1.3,0.7-2.5,1.6-3.7,2.5
			C360.2,91.3,360,91.4,359.9,91.4z M406,91.2c-0.1,0-0.2,0-0.3-0.1c-1.2-0.8-2.5-1.6-3.8-2.3c-0.3-0.1-0.4-0.5-0.2-0.8
			c0.1-0.3,0.5-0.4,0.8-0.2c1.3,0.7,2.6,1.5,3.9,2.3c0.3,0.2,0.3,0.5,0.2,0.8C406.4,91.1,406.2,91.2,406,91.2z M399.2,86.4
			C399.1,86.4,399.1,86.4,399.2,86.4c-0.4,0-0.6-0.3-0.6-0.6c0.2-1.5,0.3-2.9,0.4-4.4c0-0.3,0.2-0.5,0.6-0.5c0.3,0,0.5,0.3,0.5,0.6
			c-0.1,1.5-0.2,3-0.4,4.5C399.7,86.2,399.4,86.4,399.2,86.4z M396,86.1c-0.1,0-0.1,0-0.2,0c-1.4-0.5-2.8-0.9-4.2-1.3
			c-0.3-0.1-0.5-0.4-0.4-0.7c0.1-0.3,0.4-0.5,0.7-0.4c1.5,0.4,2.9,0.8,4.3,1.3c0.3,0.1,0.4,0.4,0.3,0.7
			C396.5,86,396.3,86.1,396,86.1z M369.7,86c-0.2,0-0.4-0.1-0.5-0.4s0-0.6,0.3-0.7c1.4-0.5,2.9-1,4.3-1.3c0.3-0.1,0.6,0.1,0.7,0.4
			s-0.1,0.6-0.4,0.7c-1.4,0.3-2.8,0.8-4.2,1.3C369.8,86,369.8,86,369.7,86z M385.1,83.8L385.1,83.8c-1.5-0.1-3-0.1-4.5-0.1
			c-0.3,0-0.6-0.2-0.6-0.5s0.2-0.6,0.5-0.6c1.5-0.1,3-0.1,4.5,0.1c0.3,0,0.5,0.3,0.5,0.6C385.6,83.6,385.4,83.8,385.1,83.8z
			 M399.5,75.2c-0.3,0-0.5-0.2-0.6-0.5c-0.1-1.5-0.4-3-0.6-4.4c-0.1-0.3,0.1-0.6,0.4-0.7s0.6,0.1,0.7,0.4c0.3,1.5,0.5,3,0.6,4.5
			C400,74.9,399.8,75.2,399.5,75.2L399.5,75.2z M328.9,69.1c-0.1,0-0.3-0.1-0.4-0.2c-0.2-0.2-0.2-0.6,0-0.8c1-1.1,2.1-2.2,3.1-3.2
			c0.2-0.2,0.6-0.2,0.8,0c0.2,0.2,0.2,0.6,0,0.8c-1.1,1.1-2.1,2.1-3.1,3.2C329.2,69.1,329,69.1,328.9,69.1z M396.9,64.4
			c-0.2,0-0.4-0.1-0.5-0.4c-0.5-1.4-1.2-2.7-1.9-4c-0.2-0.3-0.1-0.6,0.2-0.8c0.3-0.2,0.6-0.1,0.8,0.2c0.7,1.3,1.4,2.7,1.9,4.1
			c0.1,0.3,0,0.6-0.3,0.7C397.1,64.4,397,64.4,396.9,64.4z M336.9,61.3c-0.2,0-0.3-0.1-0.4-0.2c-0.2-0.2-0.2-0.6,0-0.8
			c1.2-1,2.3-2,3.4-2.9c0.2-0.2,0.6-0.2,0.8,0.1c0.2,0.2,0.2,0.6-0.1,0.8c-1.1,0.9-2.3,1.9-3.4,2.9C337.1,61.2,337,61.3,336.9,61.3z
			 M391.1,54.9c-0.1,0-0.3-0.1-0.4-0.2c-0.4-0.4-0.8-0.8-1.2-1.2c-0.6-0.6-1.3-1.2-2-1.7c-0.2-0.2-0.3-0.5-0.1-0.8
			c0.2-0.2,0.5-0.3,0.8-0.1c0.7,0.5,1.5,1.1,2.1,1.8c0.4,0.4,0.9,0.8,1.3,1.3c0.2,0.2,0.2,0.6,0,0.8
			C391.3,54.9,391.2,54.9,391.1,54.9z M345.7,54.4c-0.2,0-0.4-0.1-0.5-0.3c-0.2-0.3-0.1-0.6,0.2-0.8c1.3-0.8,2.6-1.6,3.9-2.3
			c0.3-0.2,0.6-0.1,0.8,0.2c0.2,0.3,0.1,0.6-0.2,0.8c-1.3,0.7-2.5,1.5-3.8,2.3C345.9,54.4,345.8,54.4,345.7,54.4z M355.6,49.2
			c-0.2,0-0.4-0.1-0.5-0.4c-0.1-0.3,0-0.6,0.3-0.7c0.4-0.2,0.9-0.3,1.3-0.5c1-0.3,2-0.7,3-0.9c0.3-0.1,0.6,0.1,0.7,0.4
			c0.1,0.3-0.1,0.6-0.4,0.7c-1,0.3-2,0.6-2.9,0.9c-0.4,0.2-0.9,0.3-1.3,0.5C355.7,49.2,355.7,49.2,355.6,49.2z M381.8,48.7
			c-0.1,0-0.1,0-0.2,0c-1.3-0.5-2.7-1-4.2-1.3c-0.3-0.1-0.5-0.4-0.4-0.7s0.4-0.5,0.7-0.4c1.5,0.4,3,0.8,4.4,1.4
			c0.3,0.1,0.4,0.4,0.3,0.7C382.3,48.6,382.1,48.7,381.8,48.7z M366.4,46.6c-0.3,0-0.5-0.2-0.6-0.5c0-0.3,0.2-0.6,0.5-0.6
			c1.5-0.1,3-0.2,4.5-0.1c0.3,0,0.6,0.3,0.5,0.6c0,0.3-0.3,0.6-0.6,0.5C369.4,46.5,368,46.5,366.4,46.6
			C366.5,46.6,366.5,46.6,366.4,46.6z"/>
	</g>
</g>
<g>
	<g>
		
			<linearGradient id="SVGID_1_" gradientUnits="userSpaceOnUse" x1="60.997" y1="133.402" x2="8.0724" y2="-14.2298" gradientTransform="matrix(1 0 -0.2147 -1 79.576 243.8898)">
			<stop  offset="0" style="stop-color:#263681"/>
			<stop  offset="0.9959" style="stop-color:#1A1248"/>
		</linearGradient>
		<path class="st1" d="M183.2,237h-141c-1.7,0-3.3-1.4-3.7-3l-21.4-99.5c-0.4-1.7,0.7-3,2.4-3h141c1.7,0,3.3,1.4,3.7,3l21.4,99.5
			C185.9,235.7,184.8,237,183.2,237z"/>
		
			<linearGradient id="SVGID_2_" gradientUnits="userSpaceOnUse" x1="60.1046" y1="130.7852" x2="9.4338" y2="-10.5593" gradientTransform="matrix(1 0 -0.2147 -1 79.576 243.8898)">
			<stop  offset="4.065040e-03" style="stop-color:#FFFFFF"/>
			<stop  offset="1" style="stop-color:#F5F0FF"/>
		</linearGradient>
		<path class="st2" d="M181.7,233.6h-139c-0.6,0-1.1-0.5-1.3-1l-21-97.8c-0.1-0.6,0.2-1,0.8-1h139c0.6,0,1.1,0.5,1.3,1l21,97.8
			C182.6,233.2,182.3,233.6,181.7,233.6z"/>
		
			<linearGradient id="SVGID_3_" gradientUnits="userSpaceOnUse" x1="135.1" y1="5.7637" x2="135.1" y2="-0.9924" gradientTransform="matrix(1 0 0 -1 0 243.8898)">
			<stop  offset="0" style="stop-color:#263681"/>
			<stop  offset="0.9959" style="stop-color:#1A1248"/>
		</linearGradient>
		<path class="st3" d="M221.9,245H48.1c-3.9,0-7.1-3.2-7.1-7.1l0,0c0-0.5,0.4-0.9,0.9-0.9h186.4c0.5,0,0.9,0.4,0.9,0.9l0,0
			C229.1,241.9,225.9,245,221.9,245z"/>
	</g>
	<g>
		
			<linearGradient id="SVGID_4_" gradientUnits="userSpaceOnUse" x1="3191.6592" y1="133.4107" x2="3138.7344" y2="-14.221" gradientTransform="matrix(-1 0 0.2147 -1 3516.678 243.8898)">
			<stop  offset="0" style="stop-color:#263681"/>
			<stop  offset="0.9959" style="stop-color:#1A1248"/>
		</linearGradient>
		<path class="st4" d="M282.4,237h141c1.7,0,3.3-1.4,3.7-3l21.4-99.5c0.4-1.7-0.7-3-2.4-3h-141c-1.7,0-3.3,1.4-3.7,3L280,234
			C279.7,235.7,280.7,237,282.4,237z"/>
		
			<linearGradient id="SVGID_5_" gradientUnits="userSpaceOnUse" x1="3190.7805" y1="130.789" x2="3140.1099" y2="-10.5556" gradientTransform="matrix(-1 0 0.2147 -1 3516.678 243.8898)">
			<stop  offset="4.065040e-03" style="stop-color:#FFFFFF"/>
			<stop  offset="1" style="stop-color:#F5F0FF"/>
		</linearGradient>
		<path class="st5" d="M283.9,233.6h139c0.6,0,1.1-0.5,1.3-1l21-97.8c0.1-0.6-0.2-1-0.8-1h-139c-0.6,0-1.1,0.5-1.3,1l-21,97.8
			C282.9,233.2,283.3,233.6,283.9,233.6z"/>
		
			<linearGradient id="SVGID_6_" gradientUnits="userSpaceOnUse" x1="3252.6541" y1="5.7637" x2="3252.6541" y2="-0.9924" gradientTransform="matrix(-1 0 0 -1 3596.2539 243.8898)">
			<stop  offset="0" style="stop-color:#263681"/>
			<stop  offset="0.9959" style="stop-color:#1A1248"/>
		</linearGradient>
		<path class="st6" d="M258,245h171.2c2,0,3.7-1.7,3.7-3.7v-3.8c0-0.3-0.2-0.5-0.5-0.5H254.8c-0.3,0-0.5,0.2-0.5,0.5v3.8
			C254.3,243.4,256,245,258,245z"/>
	</g>
</g>
<g>
	<g>
		<defs>
			<polygon id="SVGID_7_" points="41.4,233.6 424.6,233.6 466.9,37.9 -5,27.2 			"/>
		</defs>
		<clipPath id="SVGID_8_">
			<use xlink:href="#SVGID_7_"  style="overflow:visible;"/>
		</clipPath>
		<g class="st7">
			<path class="st8" d="M373.7,200c0,14.7,11.9,26.5,26.5,26.5c5.2,0,10-1.5,14.1-4.1l8.2,13c-6.5,4.1-14.1,6.4-22.3,6.4
				c-23.1,0-41.9-18.7-41.9-41.9c0-23.1,18.7-41.9,41.9-41.9c16.2,0,30.2,9.2,37.2,22.6l-13.6,7c-4.4-8.5-13.3-14.4-23.6-14.4
				C385.6,173.5,373.7,185.4,373.7,200z"/>
			
				<linearGradient id="SVGID_9_" gradientUnits="userSpaceOnUse" x1="427.4144" y1="62.8207" x2="428.8425" y2="8.5477" gradientTransform="matrix(1 0 0 -1 0 243.8898)">
				<stop  offset="0" style="stop-color:#FAAD1E"/>
				<stop  offset="0.9959" style="stop-color:#F2830B"/>
			</linearGradient>
			<path class="st9" d="M442.1,200c0,14.9-7.8,28-19.6,35.4l-8.2-13c7.5-4.7,12.4-13,12.4-22.5c0-4.4-1.1-8.5-3-12.2l13.6-7
				C440.4,186.6,442.1,193.1,442.1,200z"/>
			<g>
				
					<linearGradient id="SVGID_10_" gradientUnits="userSpaceOnUse" x1="411.1436" y1="81.3987" x2="396.5269" y2="31.3002" gradientTransform="matrix(1 0 0 -1 0 243.8898)">
					<stop  offset="0" style="stop-color:#FFE14D"/>
					<stop  offset="1" style="stop-color:#F7A523"/>
				</linearGradient>
				<circle class="st10" cx="400.2" cy="200" r="20.8"/>
				
					<linearGradient id="SVGID_11_" gradientUnits="userSpaceOnUse" x1="409.4005" y1="75.4241" x2="397.1102" y2="33.2996" gradientTransform="matrix(1 0 0 -1 0 243.8898)">
					<stop  offset="0" style="stop-color:#FAAD1E"/>
					<stop  offset="0.9959" style="stop-color:#F2830B"/>
				</linearGradient>
				<circle class="st11" cx="400.2" cy="200" r="17.5"/>
				<text transform="matrix(1 0 0 1 389.8218 208.8564)" class="st12 st13 st14">%</text>
			</g>
		</g>
	</g>
	<g>
		<defs>
			<polygon id="SVGID_12_" points="41.4,233.6 424.6,233.6 466.9,37.9 -5,27.2 			"/>
		</defs>
		<clipPath id="SVGID_13_">
			<use xlink:href="#SVGID_12_"  style="overflow:visible;"/>
		</clipPath>
		<g class="st15">
			<g>
				
					<linearGradient id="SVGID_14_" gradientUnits="userSpaceOnUse" x1="257.6945" y1="119.6896" x2="271.0102" y2="103.8772" gradientTransform="matrix(1 0 0 -1 0 243.8898)">
					<stop  offset="0" style="stop-color:#FFC085"/>
					<stop  offset="1" style="stop-color:#FA976E"/>
				</linearGradient>
				<path class="st16" d="M291.8,102.8c-4.5,6.2-18.9,29.5-23.6,32.2s-38.7,25.5-38.7,25.5s2.4,5.3,3.9,6.4c6-1,37.1-15.7,43.3-19.4
					s30.4-36.3,30.4-36.3L291.8,102.8z"/>
				<g>
					<g>
						<path class="st17" d="M300,188c5.6,0,49.8-2.1,49.8-2.1l-8.1,71.9l-22.8,1.7l-2.4-22.8l-9.4,22.8l-23.3-3.4
							C283.8,256,293.7,202.4,300,188z"/>
						
							<linearGradient id="SVGID_15_" gradientUnits="userSpaceOnUse" x1="-883.5299" y1="67.7661" x2="-844.905" y2="67.7661" gradientTransform="matrix(1 0 0 -1 1219.4365 243.8898)">
							<stop  offset="0" style="stop-color:#FFC085"/>
							<stop  offset="1" style="stop-color:#FA976E"/>
						</linearGradient>
						<path class="st18" d="M352.4,138.9c0,0,8.5,19.1,8.5,21.4c0,2.3-4.6,35.4-5.7,36.5c-2.3,1.5-11.4,5.1-12,6.7
							c-0.6,1.6,0.6,2.9,0.6,2.9c-2.5,1.6-9,6.4-7.8,7.6c0.8,0.8,1.3,1.1,1.6,1.2c0.1,0,0.2,0.1,0.2,0.1s-1.6,3.1,1.3,2.7
							c0.3,1.8,1.7,1.6,2.8,1.1c1.1-0.5,2.4-1.5,2.4-1.5c0,1.6,1.1,2.5,3.3,0.7c2.2-1.8,6.1-4.8,8-6.3s5.3-9.1,6.5-11.9
							c1.2-2.8,8.8-25.7,10.2-30.7c1.4-5,3.2-7,1.8-11.7c-1.4-4.7-8.4-24.9-8.4-24.9L352.4,138.9z"/>
						<g>
							<g>
								<path class="st19" d="M344.5,206.9c-0.2,0-0.3,0-0.5-0.1c-0.4-0.2-0.8-0.5-1-1.1c-0.2-0.4-0.2-0.9-0.2-1.3
									c0-0.2,0.1-0.3,0.3-0.3c0.1,0,0.3,0.1,0.3,0.3c0,0.4,0.1,0.8,0.2,1.2s0.4,0.6,0.7,0.7c0.4,0.1,0.8,0,1.2-0.2
									c1.2-0.5,2.3-1.2,3.4-1.9c0.1-0.1,0.3-0.1,0.4,0.1c0.1,0.1,0.1,0.3-0.1,0.4c-1.1,0.8-2.2,1.5-3.5,2
									C345.3,206.8,344.9,206.9,344.5,206.9z"/>
							</g>
							<g>
								<path class="st19" d="M337.8,215.4L337.8,215.4c-0.7-0.1-1.2-0.5-1.4-1c-0.2-0.5-0.2-1-0.1-1.6c0-0.1,0.2-0.2,0.3-0.2
									c0.1,0,0.2,0.2,0.2,0.3c-0.1,0.5-0.1,0.9,0,1.3c0.2,0.4,0.5,0.7,0.9,0.7c0.3,0,0.7-0.3,1-0.6l1-0.8c2.1-1.7,3.5-2.9,5.6-4.7
									c0.1-0.1,0.3-0.1,0.4,0s0.1,0.3,0,0.4c-2,1.8-3.6,3.1-5.6,4.7l-1,0.8C338.8,215,338.4,215.4,337.8,215.4z"/>
							</g>
							<g>
								<path class="st19" d="M338.8,218.1c-0.5,0-0.9-0.2-1.2-0.5c-0.6-0.6-0.4-1.6,0-2.3c0.1-0.1,0.2-0.2,0.4-0.1
									c0.1,0.1,0.2,0.2,0.1,0.4c-0.3,0.5-0.4,1.2,0,1.7c0.3,0.3,0.8,0.3,1.2,0.2c0.4-0.1,0.8-0.4,1.2-0.8c2.2-1.8,4.2-3.7,6.3-5.6
									l0.4,0.4c-2,1.9-4.1,3.8-6.3,5.6c-0.5,0.4-0.9,0.7-1.4,0.9C339.2,218,339,218.1,338.8,218.1z"/>
							</g>
							<g>
								<path class="st19" d="M340.6,219.4c-0.1,0-0.2,0-0.3,0c-0.5-0.1-1.1-0.5-1.2-1.1c0-0.2,0.1-0.3,0.2-0.3s0.3,0.1,0.3,0.2
									c0,0.3,0.4,0.6,0.7,0.6c0.4,0.1,0.8-0.1,1.2-0.2c1.2-0.5,2.4-1.2,3.6-2.3c0.6-0.5,1.2-1,1.9-1.5c0.7-0.5,1.3-1,2.1-1.6
									c0.1-0.1,0.3-0.1,0.4,0s0.1,0.3,0,0.4c-0.7,0.6-1.5,1.2-2.1,1.6c-0.7,0.5-1.3,0.9-1.8,1.4c-1.2,1.1-2.5,1.9-3.7,2.4
									C341.4,219.3,341,219.4,340.6,219.4z"/>
							</g>
							<g>
								<path class="st19" d="M345.5,219.2c-0.1,0-0.2,0-0.3,0c-0.6-0.2-0.9-0.8-1.1-1.4c0-0.1,0-0.3,0.2-0.4c0.1,0,0.3,0,0.4,0.2
									c0.1,0.4,0.3,0.9,0.7,1c0.3,0.1,0.6-0.1,0.9-0.2c1.6-0.9,2.9-2,4.3-3.2l2-1.7c0.1-0.1,0.3-0.1,0.4,0s0.1,0.3,0,0.4l-2,1.7
									c-1.4,1.2-2.8,2.3-4.4,3.2C346.2,219,345.8,219.2,345.5,219.2z"/>
							</g>
						</g>
						
							<linearGradient id="SVGID_16_" gradientUnits="userSpaceOnUse" x1="-898.7999" y1="157.3964" x2="-896.879" y2="57.5102" gradientTransform="matrix(1 0 0 -1 1219.4365 243.8898)">
							<stop  offset="0" style="stop-color:#FAAD1E"/>
							<stop  offset="0.9959" style="stop-color:#F2830B"/>
						</linearGradient>
						<path class="st20" d="M315.2,89.8c-7.3,0.6-17,3.2-25,11.1s-12.9,19.4-14.3,24.3c0,0,8.9,9.2,13.9,9.2l10.1-8.8
							c-1.4,11.2-2.4,62.1-1.8,67.8c0,0,42.6-4.3,51.6-2.7c1.1-8.5-4.2-63.1-4.2-63.1l5.9,13.5c0,0,13.3-2.4,15.5-7.1
							c1.1-6.9-7-26.7-13-32.7s-21.8-10.1-21.8-10.1c-0.9,0.9-4.4,4.5-10.9,4.5C318.2,95.6,315.7,91.8,315.2,89.8z"/>
						<g>
							<path class="st21" d="M299.3,142.2L299.3,142.2c-0.2,0-0.4-0.2-0.4-0.4l0.3-10.7c0-1.7,0.1-3.4,0.2-5
								c0.2-4.1,0.8-8.2,1.7-12.2c0-0.2,0.3-0.4,0.5-0.3c0.2,0,0.4,0.3,0.3,0.5c-0.9,4-1.4,8-1.7,12.1c-0.1,1.6-0.1,3.3-0.2,5
								l-0.3,10.7C299.8,142,299.6,142.2,299.3,142.2z"/>
						</g>
						<g>
							<path class="st21" d="M352,141.4c-0.2,0-0.3-0.1-0.4-0.2c-3.7-7.1-6.9-14.6-9.6-22.1c-0.1-0.2,0-0.5,0.3-0.5
								c0.2-0.1,0.5,0,0.5,0.3c2.6,7.5,5.9,15,9.5,22c0.1,0.2,0,0.5-0.2,0.6C352.2,141.4,352.1,141.4,352,141.4z"/>
						</g>
					</g>
				</g>
				<g>
					
						<linearGradient id="SVGID_17_" gradientUnits="userSpaceOnUse" x1="-3778.0193" y1="46.6222" x2="-3779.2402" y2="31.4545" gradientTransform="matrix(0.9989 4.770000e-02 4.770000e-02 -0.9989 4097.3364 306.4874)">
						<stop  offset="0" style="stop-color:#FFC085"/>
						<stop  offset="1" style="stop-color:#FA976E"/>
					</linearGradient>
					<path class="st22" d="M332.5,79.3c-0.8,3.9,0.7,13.3,0.7,13.3c-7.8,10.6-18.7,2.9-18.7,2.9c1.4-2.3,2.2-14.3,2.2-14.3
						L332.5,79.3z"/>
					<g>
						
							<linearGradient id="SVGID_18_" gradientUnits="userSpaceOnUse" x1="-3819.0684" y1="639.4028" x2="-3812.7698" y2="641.6119" gradientTransform="matrix(0.9956 -9.380000e-02 -9.380000e-02 -0.9956 4169.5278 334.8634)">
							<stop  offset="0" style="stop-color:#263681"/>
							<stop  offset="0.9959" style="stop-color:#1A1248"/>
						</linearGradient>
						<path class="st23" d="M311.9,47.7c-5.9-0.4-8.1,11.4-0.1,12.8C319.7,62,320.6,48.3,311.9,47.7z"/>
						
							<linearGradient id="SVGID_19_" gradientUnits="userSpaceOnUse" x1="-3802.2363" y1="644.6136" x2="-3804.6804" y2="614.2493" gradientTransform="matrix(0.9956 -9.380000e-02 -9.380000e-02 -0.9956 4169.5278 334.8634)">
							<stop  offset="0" style="stop-color:#FFC085"/>
							<stop  offset="1" style="stop-color:#FA976E"/>
						</linearGradient>
						<path class="st24" d="M321,47.2c-13.2-0.1-14.8,33.7-2.1,39.3C331.6,92.1,339,67,337,58.7C335.1,50.4,330.6,47.3,321,47.2z"/>
						
							<linearGradient id="SVGID_20_" gradientUnits="userSpaceOnUse" x1="-3803.0771" y1="652.8134" x2="-3801.385" y2="605.4343" gradientTransform="matrix(0.9956 -9.380000e-02 -9.380000e-02 -0.9956 4169.5278 334.8634)">
							<stop  offset="0" style="stop-color:#263681"/>
							<stop  offset="0.9959" style="stop-color:#1A1248"/>
						</linearGradient>
						<path class="st25" d="M319.1,53c-3.5,3.4-8.8,2.2-11-3.4s7.5-12.2,13.9-5.6c3.6-2.2,6.6,0.8,7.7,2c3.9-1.4,7.4,2.7,6.6,4.4
							c4.1,0,3.7,20.1-3.5,28.7c0.8-5.1-2.6-7.7-2.6-7.7c2.4-2.3,2.9-11.5-1.7-9.1c-1.3,0.7-1.4,3.1-1.4,3.1h-1.5
							c0,0,1.4-5.9,0.2-9.1C324.7,53,322.1,52.7,319.1,53z"/>
						
							<linearGradient id="SVGID_21_" gradientUnits="userSpaceOnUse" x1="-3810.7087" y1="652.5417" x2="-3809.0166" y2="605.1613" gradientTransform="matrix(0.9956 -9.380000e-02 -9.380000e-02 -0.9956 4169.5278 334.8634)">
							<stop  offset="0" style="stop-color:#263681"/>
							<stop  offset="0.9959" style="stop-color:#1A1248"/>
						</linearGradient>
						<path class="st26" d="M325.6,65.3c-0.8,5.8-2.8,9.2-4.3,9.2c-1.4,0-4.1-2.9-6.2-3c-2.2,0-4.5,1.6-4.5,2.8S308.5,86.2,312,88
							c3.5,1.8,13.3,1,15.1-2.3s-0.8-16.3-0.1-20.5L325.6,65.3z"/>
						<path class="st27" d="M315.1,74.5c-0.4,0-1.6,0.1-2.2,0.4c-0.9,0.5-0.6,1.4,0,2c0.5,0.5,1.6,0.7,2.4,0.7
							c1.4-0.1,1.9-0.6,2.4-1.6c0.2-0.4,0.3-1.1-0.3-1.4C316.9,74.4,316,74.5,315.1,74.5z"/>
					</g>
				</g>
			</g>
			<g>
				<g>
					
						<linearGradient id="SVGID_22_" gradientUnits="userSpaceOnUse" x1="210.8" y1="90.8042" x2="217.2171" y2="76.639" gradientTransform="matrix(1 0 0 -1 0 243.8898)">
						<stop  offset="0" style="stop-color:#FFC085"/>
						<stop  offset="1" style="stop-color:#FA976E"/>
					</linearGradient>
					<path class="st28" d="M220.5,158.2c-1.2-1.2-2.5-1.1-4.3-0.2s-3.2,1.3-4.7,1.3s-5.4-2.1-5.4-2.1l-2.5,5.8
						c0,0,11.1,7.2,12.6,8.2s3.6,3.6,4.8,3.9c1.2,0.2,8.8-3,8.6-6.3c-0.3-1-3-3.5-4.1-4.6s-2.1-2-2.8-2.4
						C221.9,161.4,220.5,158.2,220.5,158.2z"/>
					
						<linearGradient id="SVGID_23_" gradientUnits="userSpaceOnUse" x1="220.6407" y1="88.4863" x2="233.9564" y2="72.6739" gradientTransform="matrix(1 0 0 -1 0 243.8898)">
						<stop  offset="0" style="stop-color:#FFC085"/>
						<stop  offset="1" style="stop-color:#FA976E"/>
					</linearGradient>
					<path class="st29" d="M220.8,157.2c-1.9,0.1-4.5,2.3-4.5,3.6s-0.1,3.9,1.3,3.9c1.4,0,1.5-2.5,2.2-3.1c0.6-0.6,3.5,0.3,4.7,1.9
						c1.2,1.6,5,5.3,5,5.3s6.9-2.5,9.2-3.6c0-0.3-4.9-7.6-4.9-7.6C228.6,159.9,223.3,157.1,220.8,157.2z"/>
					
						<linearGradient id="SVGID_24_" gradientUnits="userSpaceOnUse" x1="212.676" y1="75.158" x2="210.0382" y2="74.9532" gradientTransform="matrix(1 0 0 -1 0 243.8898)">
						<stop  offset="0" style="stop-color:#FFC085"/>
						<stop  offset="1" style="stop-color:#FA976E"/>
					</linearGradient>
					<path class="st30" d="M211,167.6c-1.1,0.3-2,2.2-0.7,2.6c1.3,0.3,2.7-1.1,2-2C211.7,167.3,211.6,167.4,211,167.6z"/>
					
						<linearGradient id="SVGID_25_" gradientUnits="userSpaceOnUse" x1="220.7969" y1="72.1015" x2="213.185" y2="71.5103" gradientTransform="matrix(1 0 0 -1 0 243.8898)">
						<stop  offset="0" style="stop-color:#FFC085"/>
						<stop  offset="1" style="stop-color:#FA976E"/>
					</linearGradient>
					<path class="st31" d="M212.9,169.2c-1.2,0.2-1.3,2.5,0,3.4s4.8,3,6,2.5c1.1-0.5,2-0.9,1.4-1.8
						C219.7,172.3,215.2,168.8,212.9,169.2z"/>
					<g>
						<path class="st19" d="M228.4,171h-0.1c-2.3-1.4-4.4-3.3-6-5.5c-0.1-0.1-0.1-0.3,0.1-0.3c0.1-0.1,0.3-0.1,0.3,0.1
							c1.6,2.1,3.6,4,5.9,5.4c0.1,0.1,0.1,0.2,0.1,0.3C228.5,171,228.4,171,228.4,171z"/>
					</g>
					<g>
						<path class="st19" d="M226.4,172.6h-0.1c-2.1-1.2-3.9-2.8-5.3-4.7c-0.1-0.1-0.1-0.3,0-0.3c0.1-0.1,0.3-0.1,0.3,0
							c1.4,1.8,3.2,3.4,5.2,4.6c0.1,0.1,0.1,0.2,0.1,0.3C226.6,172.6,226.5,172.6,226.4,172.6z"/>
					</g>
					<g>
						<path class="st19" d="M224.2,174h-0.1c-1.7-1-3.3-2.3-4.5-3.7c-0.1-0.1-0.1-0.2,0-0.3s0.2-0.1,0.3,0c1.2,1.4,2.7,2.7,4.4,3.6
							c0.1,0.1,0.2,0.2,0.1,0.3C224.4,173.9,224.3,174,224.2,174z"/>
					</g>
					<g>
						<path class="st19" d="M218.5,174.5L218.5,174.5c-0.2-0.1-0.3-0.2-0.2-0.3c0.2-0.5,0.2-1,0.2-1.5c0-0.2,0-0.4-0.1-0.6
							c-0.1-0.2-0.2-0.3-0.3-0.3s-0.3,0-0.5,0.2c-0.1,0.1-0.3,0.3-0.4,0.5v0.1c-0.1,0.2-0.3,0.5-0.6,0.7c0,0-0.2,0.1-0.3,0.1
							s-0.2-0.1-0.2-0.1c-0.1-0.1-0.1-0.3,0-0.3c0.1-0.3,0.2-0.5,0.3-0.8c0.1-0.1,0.1-0.3,0.2-0.4c0.1-0.1,0.2-0.6,0-0.9
							c-0.1-0.2-0.4-0.2-0.6-0.2c-0.2,0-0.5,0.2-0.6,0.4c-0.2,0.2-0.3,0.5-0.4,0.8v0.1c-0.1,0.2-0.2,0.5-0.4,0.5
							c-0.1,0-0.2,0-0.3-0.1l0,0l0,0c0-0.1,0-0.2,0-0.6c0-0.3,0.1-0.8,0.1-1.1c-0.1-0.5-0.3-1-0.7-1.2c-0.1-0.1-0.1-0.2-0.1-0.3
							c0.1-0.1,0.2-0.1,0.3-0.1c0.5,0.3,0.8,0.9,0.9,1.5c0,0.2,0,0.4,0,0.6c0.1-0.1,0.2-0.3,0.3-0.4c0.3-0.3,0.6-0.5,0.9-0.6
							c0.4-0.1,0.8,0.1,1.1,0.4c0.3,0.3,0.3,0.8,0.1,1.4c-0.1,0.1-0.1,0.3-0.2,0.4c0,0.1-0.1,0.1-0.1,0.2c0-0.1,0.1-0.1,0.1-0.2
							v-0.1c0.1-0.2,0.3-0.5,0.5-0.6c0.3-0.3,0.6-0.4,0.9-0.3c0.3,0.1,0.5,0.3,0.6,0.6s0.1,0.5,0.1,0.8c0,0.6-0.1,1.1-0.3,1.6
							C218.7,174.4,218.6,174.5,218.5,174.5z M214.5,172.1L214.5,172.1L214.5,172.1z"/>
					</g>
					<g>
						<path class="st19" d="M229.3,168.9c-0.1,0-0.1,0-0.2-0.1l-3.9-4.2c-0.6-0.6-1.2-1.2-1.8-1.8c-0.7-0.6-1.5-1-2.2-1.1
							c-0.3-0.1-1-0.2-1.4,0.2c-0.3,0.2-0.4,0.6-0.5,1c0,0.1-0.1,0.3-0.1,0.4c-0.2,0.7-0.7,1.3-1.3,1.7c-0.1,0.1-0.3,0-0.3-0.1
							c-0.1-0.1,0-0.3,0.1-0.3c0.5-0.3,0.9-0.8,1.1-1.4c0-0.1,0.1-0.3,0.1-0.4c0.1-0.4,0.2-0.9,0.6-1.2c0.4-0.4,1-0.5,1.8-0.3
							s1.6,0.6,2.4,1.2c0.7,0.5,1.3,1.2,1.9,1.8l3.9,4.2c0.1,0.1,0.1,0.2,0,0.3C229.4,168.8,229.4,168.9,229.3,168.9z"/>
					</g>
				</g>
				<g>
					
						<linearGradient id="SVGID_26_" gradientUnits="userSpaceOnUse" x1="391.8024" y1="188.3665" x2="362.4076" y2="104.381" gradientTransform="matrix(1 0 0 -1 -266.9261 243.8898)">
						<stop  offset="0" style="stop-color:#263681"/>
						<stop  offset="0.9959" style="stop-color:#1A1248"/>
					</linearGradient>
					<path class="st32" d="M87.2,77.9c-0.7,4.8-0.2,10-2.7,14.1c-1.8,3-5.1,5.2-6,8.6c-1.1,4.1,1.5,8.2,1.7,12.4
						c0.3,6.6-5.4,12.6-4.2,19.1c1.3,7.2,10.4,10.8,12.5,17.8c0.9,3.2,0.3,6.8,1.9,9.8c1.3,2.3,3.7,3.7,5.4,5.6
						c2.3,2.5,3.5,5.7,5.5,8.4s5.3,5,8.5,4.1c3.7-1.1,5.1-5.5,5.8-9.3c6.1-33.9,2.1-69.2-7.8-102.2c-2-6.7-7.3-10.5-12.8-5.3
						C90.5,65.3,88.1,71.7,87.2,77.9z"/>
					
						<linearGradient id="SVGID_27_" gradientUnits="userSpaceOnUse" x1="3283.3796" y1="162.4981" x2="3312.1667" y2="162.4981" gradientTransform="matrix(-1 0 0 -1 3432.6306 243.8898)">
						<stop  offset="0" style="stop-color:#263681"/>
						<stop  offset="0.9959" style="stop-color:#1A1248"/>
					</linearGradient>
					<path class="st33" d="M134.9,55.2c1.7,0.6,3.4,1.5,4.4,3c1.7,2.5,0.9,6.2,2.7,8.7c0.7,1,1.7,1.6,2.5,2.5
						c2.9,2.8,4,7.4,2.6,11.2c-0.3,0.8-0.7,1.6-0.9,2.5c-0.6,2.5,0.6,5,1.6,7.3s2,5,1.1,7.4c-0.6,1.5-1.9,2.7-2.5,4.3
						c-0.6,1.7-0.4,3.7-1.6,5c-0.5,0.5-1.1,0.8-1.8,1.1c-1.7,0.8-3.4,1.5-5.3,1.7c-1.4,0.1-2.7-0.1-4.1-0.3
						c-2.1-0.3-4.1-0.6-6.2-0.9c-0.8-0.1-1.6-0.2-2.2-0.6c-1-0.6-1.5-1.8-1.9-2.9c-3.2-9.9-0.8-20.7-1.8-31
						c-0.3-3.6-1.1-7.1-1.1-10.7c0-2.9,0.4-8.4,3.2-10.2c1.3-0.9,3.4-0.2,4.8,0.1C130.7,53.8,132.8,54.4,134.9,55.2z"/>
					
						<linearGradient id="SVGID_28_" gradientUnits="userSpaceOnUse" x1="3308.4385" y1="141.6839" x2="3307.4297" y2="154.8964" gradientTransform="matrix(-1 0 0 -1 3432.6306 243.8898)">
						<stop  offset="0" style="stop-color:#FFC085"/>
						<stop  offset="1" style="stop-color:#FA976E"/>
					</linearGradient>
					<path class="st34" d="M115.5,83.4c3.4,7.4,3.8,20.7,3.8,20.7s14.7,2.9,14.7,2.3s-2.2-9.3-2.7-15.4
						C130.8,90.5,115.5,83.4,115.5,83.4z"/>
					
						<linearGradient id="SVGID_29_" gradientUnits="userSpaceOnUse" x1="105.7234" y1="87.9726" x2="112.5274" y2="88.6888" gradientTransform="matrix(1 0 0 -1 0 243.8898)">
						<stop  offset="0" style="stop-color:#9571CB"/>
						<stop  offset="0.9959" style="stop-color:#6237C0"/>
					</linearGradient>
					<path class="st35" d="M121.3,108.6c-7.1-2.1-12.3,3.4-13.3,20.5c-1,17-2.1,31.2-0.9,35.5c1.3,4.3,12.4,36.3,12.4,36.3l7.9-2.7
						c0,0-7.9-32.5-7.9-38.3c0-5.9,4-26.6,5.3-33.6C126,119.2,126.3,110.1,121.3,108.6z"/>
					
						<linearGradient id="SVGID_30_" gradientUnits="userSpaceOnUse" x1="121.4692" y1="-80.4818" x2="110.7292" y2="-86.1501" gradientTransform="matrix(1 0 0 -1 0 243.8898)">
						<stop  offset="0" style="stop-color:#FFC085"/>
						<stop  offset="1" style="stop-color:#FA976E"/>
					</linearGradient>
					<path class="st36" d="M108,324.8c0,0.3-0.3,9.3-0.3,9.3s7.9,1,7.7,0s1.1-10,1.1-10L108,324.8z"/>
					
						<linearGradient id="SVGID_31_" gradientUnits="userSpaceOnUse" x1="176.2206" y1="-79.9237" x2="166.5901" y2="-85.0064" gradientTransform="matrix(1 0 0 -1 0 243.8898)">
						<stop  offset="0" style="stop-color:#FFC085"/>
						<stop  offset="1" style="stop-color:#FA976E"/>
					</linearGradient>
					<path class="st37" d="M161.5,324.5c0.2,0.6,2.5,8.4,2.5,8.4s8,0.6,8,0.2s-1-10.9-1-10.9L161.5,324.5z"/>
					
						<linearGradient id="SVGID_32_" gradientUnits="userSpaceOnUse" x1="103.6" y1="-96.2269" x2="138.3689" y2="-96.2269" gradientTransform="matrix(1 0 0 -1 0 243.8898)">
						<stop  offset="0" style="stop-color:#263681"/>
						<stop  offset="0.9959" style="stop-color:#1A1248"/>
					</linearGradient>
					<path class="st38" d="M103.7,344.2c0.3,2.1,2.2,3.5,5.8,3.5c4.4,0,21.8,0.3,25.1,0c3.1-0.3,4.6-1.9,3.3-3.5
						c-0.1-0.1-0.2-0.2-0.3-0.3c-1.7-1.8-8.7-5-13.6-7.1c-4.9-2.1-8.3-4.4-8.3-4.4h-8.2c-1.8,4.1-3.4,7.4-3.9,10.4
						C103.6,343.2,103.6,343.7,103.7,344.2z"/>
					
						<linearGradient id="SVGID_33_" gradientUnits="userSpaceOnUse" x1="3241.4109" y1="-102.1269" x2="3271.7754" y2="-102.1269" gradientTransform="matrix(-1.1445 0 0 -1 3848.218 243.8898)">
						<stop  offset="0" style="stop-color:#FAAD1E"/>
						<stop  offset="0.9959" style="stop-color:#F2830B"/>
					</linearGradient>
					<path class="st39" d="M103.7,344.2c0.3,2.1,2.2,3.5,5.8,3.5c4.4,0,21.8,0.3,25.1,0c3.1-0.3,4.6-1.9,3.3-3.5H103.7z"/>
					
						<linearGradient id="SVGID_34_" gradientUnits="userSpaceOnUse" x1="159.5592" y1="-96.2269" x2="194.3281" y2="-96.2269" gradientTransform="matrix(1 0 0 -1 0 243.8898)">
						<stop  offset="0" style="stop-color:#263681"/>
						<stop  offset="0.9959" style="stop-color:#1A1248"/>
					</linearGradient>
					<path class="st40" d="M159.6,344.2c0.3,2.1,2.2,3.5,5.8,3.5c4.4,0,21.8,0.3,25.1,0c3.1-0.3,4.6-1.9,3.3-3.5
						c-0.1-0.1-0.2-0.2-0.3-0.3c-1.7-1.8-8.7-5-13.6-7.1c-4.9-2.1-8.3-4.4-8.3-4.4h-8.2c-1.8,4.1-3.4,7.4-3.9,10.4
						C159.5,343.2,159.5,343.7,159.6,344.2z"/>
					
						<linearGradient id="SVGID_35_" gradientUnits="userSpaceOnUse" x1="3192.5435" y1="-102.1269" x2="3222.9077" y2="-102.1269" gradientTransform="matrix(-1.1445 0 0 -1 3848.218 243.8898)">
						<stop  offset="0" style="stop-color:#FAAD1E"/>
						<stop  offset="0.9959" style="stop-color:#F2830B"/>
					</linearGradient>
					<path class="st41" d="M159.6,344.2c0.3,2.1,2.2,3.5,5.8,3.5c4.4,0,21.8,0.3,25.1,0c3.1-0.3,4.6-1.9,3.3-3.5H159.6z"/>
					<path class="st17" d="M118.5,100.8c3,1.6,15.2,1.8,15.2,1.8c4.6,9.2,12.5,12.8,15.8,21.2c4.9,12.6-7.8,42.5-5.4,53.4h-30.8
						c3.4-10.7-6.9-47.2-4.3-59C111.5,106.6,118.5,100.8,118.5,100.8z"/>
					
						<linearGradient id="SVGID_36_" gradientUnits="userSpaceOnUse" x1="205.8605" y1="27.9106" x2="116.8974" y2="-19.0422" gradientTransform="matrix(1 0 0 -1 0 243.8898)">
						<stop  offset="0" style="stop-color:#FAAD1E"/>
						<stop  offset="0.9959" style="stop-color:#F2830B"/>
					</linearGradient>
					<path class="st42" d="M114.9,175.2c-7.1,5.6-11.5,15-11.4,34.5c0,5.1,0.6,27.7,1.1,35.6c2.4,38,2.3,80.4,2.3,80.4
						c4.3,1.3,11.8,0,11.8,0l15.7-98l25.9,97.5c4.9,0,11.2-2.3,11.2-2.3s-6.9-60.6-9.4-74.8c-2.6-14.2,0.2-48.9-18-70.8
						C138.5,177.3,114.9,175.2,114.9,175.2z"/>
					<g>
						<path class="st21" d="M128.6,262.8C128.5,262.8,128.5,262.8,128.6,262.8c-0.3,0-0.4-0.3-0.4-0.5c0.4-2.1,0.8-4.2,1.1-6.2
							c3.3-18.2,5.9-32.7,6.4-49.5c0-0.2,0.2-0.4,0.4-0.4s0.4,0.2,0.4,0.4c-0.5,16.9-3.1,31.4-6.4,49.6c-0.4,2-0.7,4.1-1.1,6.2
							C128.9,262.7,128.8,262.8,128.6,262.8z"/>
					</g>
					<g>
						<path class="st43" d="M146.4,155.5h-0.1c-0.2-0.1-0.3-0.3-0.3-0.5c1.3-4.5,2.7-9.2,3.4-13.9c0.8-5.3,0.7-10-0.3-14.1
							c-1.1-4.6-3.5-8.8-6.7-12.1c-0.2-0.2-0.2-0.4,0-0.6s0.4-0.2,0.6,0c3.4,3.5,5.8,7.8,6.9,12.5c1.1,4.2,1.2,9.1,0.3,14.5
							c-0.7,4.8-2.1,9.5-3.5,14C146.7,155.4,146.5,155.5,146.4,155.5z"/>
					</g>
					
						<linearGradient id="SVGID_37_" gradientUnits="userSpaceOnUse" x1="123.9605" y1="-74.27" x2="111.563" y2="-80.8131" gradientTransform="matrix(1 0 0 -1 0 243.8898)">
						<stop  offset="0" style="stop-color:#FAAD1E"/>
						<stop  offset="0.9959" style="stop-color:#F2830B"/>
					</linearGradient>
					<path class="st44" d="M105.9,321.9c-0.4,1.4,0.5,4.3,0.5,4.3s11.3,0.7,13.3,0l0.7-4.3C115.7,321.9,105.9,321.9,105.9,321.9z"/>
					
						<linearGradient id="SVGID_38_" gradientUnits="userSpaceOnUse" x1="124.4324" y1="232.0118" x2="112.0349" y2="225.4687" gradientTransform="matrix(0.9819 -0.1894 -0.1894 -0.9819 97.2295 565.7634)">
						<stop  offset="0" style="stop-color:#FAAD1E"/>
						<stop  offset="0.9959" style="stop-color:#F2830B"/>
					</linearGradient>
					<path class="st45" d="M158.4,321.5c-0.1,1.4,1.3,4.1,1.3,4.1s11.3-1.5,13.1-2.5l-0.1-4.3C168.1,319.6,158.4,321.5,158.4,321.5z
						"/>
					<path class="st46" d="M130.2,116c11.6,7.2,33.8,26,37.5,27.3c4.6,1.7,39.2,13.7,39.2,13.7s-1.7,5.7-2.9,6.9
						c-5.4,0-36-6-42.1-8.4c-4.5-1.8-32.5-16-43.5-23.6c-7.8-5.4-7.1-15.6-2.4-18.7C120.6,110.3,123.8,112,130.2,116z"/>
					
						<linearGradient id="SVGID_39_" gradientUnits="userSpaceOnUse" x1="3299.8335" y1="179.7766" x2="3317.574" y2="157.2152" gradientTransform="matrix(-1 0 0 -1 3432.6306 243.8898)">
						<stop  offset="0" style="stop-color:#FFC085"/>
						<stop  offset="1" style="stop-color:#FA976E"/>
					</linearGradient>
					<path class="st47" d="M130.5,58.3c12.8,11.3,10.7,28.6,9.1,32.6c-1.1,3-2.6,3.9-7.4,2.5c-4.8-1.4-21.7-8.6-24.3-15
						c-2.7-6.5-4.6-14.3,1.3-20.2C115.2,52.2,123.4,52,130.5,58.3z"/>
					
						<linearGradient id="SVGID_40_" gradientUnits="userSpaceOnUse" x1="388.7315" y1="190.7903" x2="358.7444" y2="105.1126" gradientTransform="matrix(1 0 0 -1 -266.9261 243.8898)">
						<stop  offset="0" style="stop-color:#263681"/>
						<stop  offset="0.9959" style="stop-color:#1A1248"/>
					</linearGradient>
					<path class="st48" d="M132.8,52.9c-4.8-2.7-11.8-3.8-17.3-3.7c-5.3,0.2-6.7,2-7.8,2.9c-1.9,1.4-2.7,4-4.7,5.3
						c-1.2,0.8-2.6,1-4,1.4c-1.3,2.3-2.3,4.7-3.1,7.2c-1.4,4.8-1.9,9.8-1.5,14.8c0.5,4.9,2.1,9.8,4.3,14.2c3.5,7.3,5.9,15.4,10.6,22
						c1-2.9,4.9-7.3,6.8-9.7c0.8-1.1,1.8-2.1,2.4-3.3c2.7-4.9,0.1-10.8-0.8-16.3c-0.3-1.5-0.4-3.1,0-4.6c0.8-2.7,3.4-4.6,4-7.3
						c0.4-1.6,0.1-3.6,1.2-4.9c1.6-1.9,4.6,0.5,7.1,0.1c2.3-0.3,7.9-1.5,8.6-4.8C139.6,60.9,136.7,55.1,132.8,52.9z"/>
					<path class="st49" d="M140.3,83.8c-0.2,1.4-0.4,2.6-2.1,2.9c-1.6,0.3-4.2-1.6-4.6-2.9C135,82.9,139.9,83.5,140.3,83.8z"/>
				</g>
			</g>
		</g>
	</g>
</g>
<g>
	<g>
		
			<linearGradient id="SVGID_41_" gradientUnits="userSpaceOnUse" x1="58.094" y1="147.6724" x2="44.363" y2="100.6096" gradientTransform="matrix(1 0 0 -1 0 243.8898)">
			<stop  offset="0" style="stop-color:#FFE14D"/>
			<stop  offset="1" style="stop-color:#F7A523"/>
		</linearGradient>
		<circle class="st50" cx="47.8" cy="131.5" r="19.5"/>
		
			<linearGradient id="SVGID_42_" gradientUnits="userSpaceOnUse" x1="56.4566" y1="142.0599" x2="44.9111" y2="102.488" gradientTransform="matrix(1 0 0 -1 0 243.8898)">
			<stop  offset="0" style="stop-color:#FAAD1E"/>
			<stop  offset="0.9959" style="stop-color:#F2830B"/>
		</linearGradient>
		<circle class="st51" cx="47.8" cy="131.5" r="16.4"/>
		<text transform="matrix(1 0 0 1 40.0043 140.3438)" class="st12 st13 st52">$</text>
	</g>
	<g>
		
			<linearGradient id="SVGID_43_" gradientUnits="userSpaceOnUse" x1="398.6383" y1="199.7671" x2="384.6863" y2="151.9467" gradientTransform="matrix(1 0 0 -1 0 243.8898)">
			<stop  offset="0" style="stop-color:#FFE14D"/>
			<stop  offset="1" style="stop-color:#F7A523"/>
		</linearGradient>
		<circle class="st53" cx="388.2" cy="79.9" r="19.8"/>
		
			<linearGradient id="SVGID_44_" gradientUnits="userSpaceOnUse" x1="396.9745" y1="194.0642" x2="385.2432" y2="153.8553" gradientTransform="matrix(1 0 0 -1 0 243.8898)">
			<stop  offset="0" style="stop-color:#FAAD1E"/>
			<stop  offset="0.9959" style="stop-color:#F2830B"/>
		</linearGradient>
		<circle class="st54" cx="388.2" cy="79.9" r="16.7"/>
		<text transform="matrix(1 0 0 1 376.771 88.3584)" class="st12 st13 st55">€</text>
	</g>
</g>
<g id="Layer_1_1_">
</g>
<g>
	<rect x="50.8" y="210.9" class="st56" width="54.2" height="5.7"/>
	<rect x="45" y="216.5" class="st56" width="54.2" height="5.7"/>
	<rect x="42.7" y="222" class="st56" width="54.2" height="5.7"/>
	<rect x="46.6" y="227.6" class="st56" width="54.2" height="5.7"/>
	<g>
		<rect x="50.8" y="210.7" class="st56" width="54.2" height="5.7"/>
		<polygon class="st57" points="50.8,210.7 105,216.4 50.8,216.4 		"/>
		<polygon class="st58" points="105,210.7 105,216.4 50.8,210.7 		"/>
		<rect x="55.6" y="210.7" class="st58" width="1.4" height="5.7"/>
		<rect x="63.1" y="210.7" class="st58" width="1.4" height="5.7"/>
		<rect x="71.4" y="210.7" class="st58" width="1.4" height="5.7"/>
		<rect x="79.4" y="210.7" class="st58" width="1.4" height="5.7"/>
		<rect x="88.6" y="210.7" class="st58" width="1.4" height="5.7"/>
		<rect x="97.7" y="210.7" class="st58" width="1.4" height="5.7"/>
	</g>
	<g>
		<rect x="45" y="216.5" class="st56" width="54.2" height="5.7"/>
		<polygon class="st57" points="45,216.5 99.3,222.1 45,222.1 		"/>
		<polygon class="st58" points="99.3,216.5 99.3,222.1 45,216.5 		"/>
		<rect x="49.8" y="216.5" class="st58" width="1.4" height="5.7"/>
		<rect x="57.3" y="216.5" class="st58" width="1.4" height="5.7"/>
		<rect x="65.7" y="216.5" class="st58" width="1.4" height="5.7"/>
		<rect x="73.6" y="216.5" class="st58" width="1.4" height="5.7"/>
		<rect x="82.9" y="216.5" class="st58" width="1.4" height="5.7"/>
		<rect x="91.9" y="216.5" class="st58" width="1.4" height="5.7"/>
	</g>
	<g>
		<rect x="42.7" y="222.2" class="st56" width="54.2" height="5.7"/>
		<polygon class="st57" points="42.7,222.2 96.9,227.9 42.7,227.9 		"/>
		<polygon class="st58" points="96.9,222.2 96.9,227.9 42.7,222.2 		"/>
		<rect x="47.5" y="222.2" class="st58" width="1.4" height="5.7"/>
		<rect x="55" y="222.2" class="st58" width="1.4" height="5.7"/>
		<rect x="63.3" y="222.2" class="st58" width="1.4" height="5.7"/>
		<rect x="71.3" y="222.2" class="st58" width="1.4" height="5.7"/>
		<rect x="80.5" y="222.2" class="st58" width="1.4" height="5.7"/>
		<rect x="89.6" y="222.2" class="st58" width="1.4" height="5.7"/>
	</g>
	<g>
		<rect x="46.6" y="227.9" class="st56" width="54.2" height="5.7"/>
		<polygon class="st57" points="46.6,227.9 100.8,233.6 46.6,233.6 		"/>
		<polygon class="st58" points="100.8,227.9 100.8,233.6 46.6,227.9 		"/>
		<rect x="51.4" y="227.9" class="st58" width="1.4" height="5.7"/>
		<rect x="58.9" y="227.9" class="st58" width="1.4" height="5.7"/>
		<rect x="67.2" y="227.9" class="st58" width="1.4" height="5.7"/>
		<rect x="75.2" y="227.9" class="st58" width="1.4" height="5.7"/>
		<rect x="84.4" y="227.9" class="st58" width="1.4" height="5.7"/>
		<rect x="93.5" y="227.9" class="st58" width="1.4" height="5.7"/>
	</g>
</g>
</svg>
