<?xml version="1.0" encoding="utf-8"?>
<!-- Generator: Adobe Illustrator 24.3.0, SVG Export Plug-In . SVG Version: 6.00 Build 0)  -->
<svg version="1.1" id="Layer_1" xmlns="http://www.w3.org/2000/svg" xmlns:xlink="http://www.w3.org/1999/xlink" x="0px" y="0px"
	 viewBox="0 0 500 500" style="enable-background:new 0 0 500 500;" xml:space="preserve">
<style type="text/css">
	.st0{fill:#F7A70E;}
	.st1{fill:#56BCB3;}
</style>
<g>
	<path class="st0" d="M219,448.8c-9-19.1-17.8-24.3-38.1-22.8c-9.7-19.3-14.6-22.3-38.4-23.1c-15.3-29.9-37.5-31.3-60-3.7
		c-0.5,0-1,0-1.4-0.1c-18.8-6.7-18.4-6.6-16-26.5c4.1-33.8,7.6-67.6,11.4-101.4c0.1-0.8,0.3-1.5,0.7-3.5c6.7,0,13.6,0.1,20.4,0
		c52.4-0.5,33,3.9,81.5-19.3c12-5.8,24.7-10.5,37.6-14.1c7.1-1.9,15.2-0.3,22.8-0.3c0.2,1,0.4,2.1,0.6,3.1c-3.2,1.7-6.3,3.5-9.6,5.1
		c-14.1,6.9-25.5,16.8-34.4,29.6c-11.7,16.9-23.2,33.8-35.4,50.3c-7.9,10.8-11.4,21.7-3.9,33.8c6.6,10.6,23.2,16.6,36.6,13.8
		c9.8-2.1,17.6-7.3,23.9-15c11.7-14.2,23.6-28.3,35.4-42.5c6.5-7.8,9.5-8.3,17.7-2.6c27.3,19,54.5,38,81.6,57.3
		c3.6,2.5,7.4,6.7,8.2,10.7c0.9,4.4-0.3,10.4-2.9,14c-3.4,4.7-9.4,4.9-14.9,2.1c-1.4-0.7-2.8-2.4-4-2.2c-3.7,0.6-8.6,0.8-10.6,3.2
		c-1.6,1.9-0.3,7.1,1.2,10.2c1.2,2.5,4.7,4,7,6c6.1,5.5,7,12.7,2.4,18.7c-4.5,5.9-12,6.8-18.7,2.2c-2.1-1.5-4.1-4.2-6.3-4.4
		c-3.5-0.4-8.4-0.3-10.3,1.8c-1.8,2-1,6.9-0.4,10.4c0.4,2,3.1,3.4,4.3,5.4c3.3,5.6,2.7,11.1-1.6,15.8c-4.1,4.4-9.1,5.8-14.8,3.2
		c-1.2-0.5-2.4-1.8-3.4-1.7c-3.7,0.4-9.1,0-10.7,2.3c-1.7,2.3-0.3,7.4,0.6,11c0.5,2.1,3,3.6,4,5.6c3.4,6.6,0.4,14.6-6.3,17.7
		c-5.8,2.7-16.2-0.6-18.6-5.9c-0.5-1.1-0.2-2.5,0-3.7C260.5,462,247.2,447.3,219,448.8z"/>
	<path class="st0" d="M422.7,267.7c4.5,40.6,8.9,80.2,13.4,120.5c-19.5,0-38.1,0-57.4,0c2-20.1-10-31.2-25-41.3
		c-25-16.7-49.4-34.5-74.1-51.6c-14.7-10.2-27.6-8.4-39,5.2c-12.5,14.9-24.9,30-37.6,44.8c-7.6,8.8-18.3,10.6-27.3,5.2
		c-6.2-3.7-7.6-8.5-3.5-14.3c13.9-20.1,27.6-40.3,42.2-59.8c12.1-16.1,63.8-42.8,83.8-42.5c10.8,0.2,22,3.1,32.3,6.9
		c12.6,4.7,24.5,11.3,36.3,17.9c12.2,6.8,24.8,10.2,38.7,9.1C410.7,267.4,416.2,267.7,422.7,267.7z"/>
	<path class="st0" d="M437.8,164.7c-3,0-6.1,0-9.2,0c-75.3,0-150.6,0-225.9,0c-16.3,0-21.8-5.6-21.8-22.1
		c-0.1-26.8,2.7-29.5,29.2-29.5c72.7,0,145.4,0,218.1,0c3.1,0,6.2,0,8.9,0c0.6-0.9,1.1-1.2,1.2-1.6c0.5-6,0.8-12.2,7.7-14.8
		c6.5-2.5,10.7,1.7,15.2,5.4c10.1,8.5,20.4,16.9,30.5,25.4c10,8.4,10.1,14.5,0.3,22.7c-10.5,8.8-21.2,17.6-31.7,26.4
		c-4.3,3.6-8.6,7-14.6,4.4c-6-2.5-7-7.8-7.1-13.5C438.5,166.8,438.2,166,437.8,164.7z"/>
	<path class="st0" d="M61.5,27.2c3.2,0,6.3,0,9.3,0c75.3,0,150.6,0,225.8,0c16.4,0,21.2,5.5,21.9,22c1.2,25.4-5.8,30-29.4,29.8
		c-72.7-0.5-145.4-0.2-218.1-0.2c-3.1,0-6.2,0-8.9,0c-0.6,0.8-1.2,1.1-1.2,1.5c-0.5,6.1-0.9,12.1-7.8,14.8
		c-6.6,2.5-10.7-1.8-15.1-5.4C27.6,80.9,16.9,72.2,6.4,63.3C-2,56.1-2.2,49.8,6.2,42.7c11.1-9.4,22.4-18.5,33.5-28
		c4.2-3.6,8.5-6.2,14.1-3.9c5.5,2.3,7,7.2,7,12.8C60.8,24.6,61.2,25.5,61.5,27.2z"/>
	<path class="st0" d="M9.4,250.6c14.9,0,28.9-0.1,42.9,0c6.1,0.1,8.8,3.5,8.1,9.6c-4.5,40.7-9.1,81.5-13.5,122.2
		c-0.5,4.4-1.9,6.4-6.7,6.2c-10.1-0.3-20.2-0.1-30.9-0.1C9.4,342.4,9.4,296.9,9.4,250.6z"/>
	<path class="st0" d="M490,250.7c0,46,0,91.5,0,138c-11.2,0-22.1,0.2-32.9-0.3c-1.6-0.1-4.2-3.5-4.4-5.5
		c-3.5-29.1-6.6-58.2-9.8-87.4c-1.3-11.6-2.5-23.2-3.9-34.8c-0.7-6.1,1.5-9.9,7.7-10C461,250.5,475.2,250.7,490,250.7z"/>
	<path class="st0" d="M240.7,479.1c0.2,9.8-8.9,20.8-17.2,20.8c-7.4,0-13.9-6.5-13.9-13.9c0-8.7,9.6-20.1,17.1-20.4
		C234.3,465.3,240.5,471.3,240.7,479.1z"/>
	<path class="st0" d="M126,411.5c-0.5,9.8-10.2,20.3-18.4,19.8c-7.5-0.5-13-7.1-12.5-14.9c0.6-9.9,9.6-19.7,17.8-19.4
		C120.2,397.3,126.3,404.1,126,411.5z"/>
	<path class="st0" d="M150.6,420c7.6,0.1,13.5,6.2,13.4,14c-0.1,9.3-9.2,20.1-17,20.2c-7.2,0.1-13.8-6.4-13.9-13.8
		C132.9,431.4,142.7,420,150.6,420z"/>
	<path class="st0" d="M202.5,456.5c0.1,9.3-9.6,20.5-17.6,20.4c-7.4-0.1-13.1-5.8-13.3-13.3c-0.3-9.4,9-20.8,17-21
		C195.9,442.5,202.5,449.1,202.5,456.5z"/>
</g>
</svg>
