<?xml version="1.0" encoding="utf-8"?>
<!-- Generator: Adobe Illustrator 24.3.0, SVG Export Plug-In . SVG Version: 6.00 Build 0)  -->
<svg version="1.1" id="Layer_1" xmlns="http://www.w3.org/2000/svg" xmlns:xlink="http://www.w3.org/1999/xlink" x="0px" y="0px"
	 viewBox="0 0 500 500" style="enable-background:new 0 0 500 500;" xml:space="preserve">
<style type="text/css">
	.st0{fill:#56BCB3;}
	.st1{fill:#F7A70E;}
</style>
<g>
	<path d="M5.2,330.5c0-44.9,0-89.9,0-134.8C5.3,172.6,15.9,162,39,162c13.2,0,26.5-0.1,39.7,0c20.4,0.1,32,11.7,32,32.3
		c0.1,70.3,0,140.6,0,210.9c0,20.2,0,40.3,0,60.5c0,23.3-11,34.1-34.5,34.2c-12.4,0-24.8,0-37.1,0c-23.2-0.1-33.9-10.6-33.9-33.6
		C5.2,421,5.2,375.8,5.2,330.5z"/>
	<path d="M135.2,366.2c0-34,0-68,0-102c0-19.6,11.5-31.2,31-31.3c15-0.1,29.9-0.2,44.9,0c17.2,0.2,29.4,12.2,29.5,29.5
		c0.2,69.4,0.2,138.8,0,208.2c0,16.8-12.1,28.7-29,29.1c-15.8,0.3-31.7,0.4-47.5,0c-17.4-0.4-28.8-12.4-28.9-29.9
		C135.1,435.3,135.2,400.7,135.2,366.2z"/>
	<path d="M500.5,366.9c0,33.1,0.1,66.2,0,99.4c0,22.7-10.7,33.4-33.1,33.6c-14.1,0.1-28.2,0.2-42.3-0.1c-17.9-0.3-30-12-30-29.9
		c-0.2-69.1-0.2-138.2,0-207.4c0.1-17.8,12.5-29.5,30.3-29.6c15-0.1,29.9-0.1,44.9,0c18.4,0.2,30.1,11.7,30.2,30.3
		C500.6,297.8,500.4,332.4,500.5,366.9z"/>
	<path d="M322.1,184.3c33.2-34.6,65.6-68.4,99.4-103.7c-7-0.4-12.2-0.6-17.5-0.9c-10.4-0.7-17.9-7.9-17.8-17.3
		c0.1-9.4,7.7-17.3,18-17.2c19.9,0.1,39.7,0.6,59.6,1.5c9.4,0.4,15.8,7.5,15.8,17.2c0,19-0.3,38-0.9,57
		c-0.4,12.3-8.1,19.7-18.7,19.1c-10.1-0.6-16.1-8.4-15.9-20.6c0-3.1,0-6.2,0-11.5c-3.2,3.1-5.4,5.1-7.4,7.2
		c-33.1,34.5-66.1,69.1-99.2,103.6c-13.1,13.6-22.3,13.1-34-1.7c-17.1-21.7-34.3-43.4-51.1-65.3c-3.5-4.5-7-6.6-12.9-6.5
		c-17,0.4-34,0.6-51-0.1c-5.9-0.3-12.6-2.3-17.3-5.8C125.9,105.7,80.9,71.7,35.8,37.8C25.4,30,23,19.5,29.5,11.1
		c6.6-8.4,16.8-8.8,27.4-0.8c41.9,31.4,83.9,62.8,125.6,94.4c5.6,4.3,11.2,6,18.1,5.9c16.4-0.4,32.8,0.3,49.2-0.3
		c10.3-0.3,17.3,3.6,23.4,11.6C289,142.6,305.3,162.8,322.1,184.3z"/>
	<path d="M370.5,402.4c0,22.2,0.1,44.3,0,66.5c-0.1,19-11.5,30.6-30.5,30.9c-15,0.2-29.9,0.2-44.9,0c-18.3-0.3-30-12.2-30-30.7
		c-0.1-44.9-0.1-89.8,0-134.7c0.1-18.3,12.1-30.3,30.3-30.5c15.3-0.2,30.5-0.2,45.8,0c17.3,0.2,29.3,12.2,29.4,29.4
		C370.6,356.3,370.5,379.3,370.5,402.4z"/>
</g>
</svg>
