<svg width="56" height="56" viewBox="0 0 56 56" fill="none" xmlns="http://www.w3.org/2000/svg">
<circle cx="28" cy="28" r="28" fill="#1C2127"/>
<path d="M38.8193 22.0152H34.6892C34.0568 18.0366 30.6118 15 26.4619 15C22.3088 15 18.867 18.0366 18.2347 22.0152H14.1079C12.9419 22.0152 12 22.9539 12 24.1165V36.8954C12 36.9218 12 38.9737 12.0033 39H14.0255V38.9967C14.0519 39 14.0782 39 14.1079 39H38.8193C38.8456 39 38.872 39 38.8983 38.9967V36.9745H14.0255V24.1165C14.0255 24.0704 14.0618 24.0375 14.1079 24.0375H18.1589C18.1951 24.4492 18.2577 24.8543 18.3499 25.2429C17.0391 25.3055 15.9984 26.3858 15.9984 27.7098V28.0918C15.9984 29.4553 17.1017 30.562 18.4652 30.562H34.4553C35.8221 30.562 36.9288 29.4553 36.9288 28.0918V27.7098C36.9288 26.3858 35.8847 25.3055 34.5739 25.2429C34.6661 24.8543 34.732 24.4492 34.7649 24.0375H38.8193C38.8621 24.0375 38.8983 24.0704 38.8983 24.1165V36.9745H40.9205V24.1165C40.9205 22.9539 39.9786 22.0152 38.8193 22.0152ZM18.4652 28.4014C18.294 28.4014 18.1556 28.2631 18.1556 28.0918V27.7098C18.1556 27.5418 18.294 27.4035 18.4652 27.4035H19.1898C19.3841 27.7559 19.6048 28.0852 19.8452 28.4014H18.4652ZM32.7295 24.0375C32.6834 24.4525 32.5978 24.8543 32.4726 25.2429C32.2223 26.0432 31.8106 26.7744 31.2771 27.4035C30.9642 27.7756 30.6085 28.1083 30.2166 28.4014H22.7073C22.3154 28.1083 21.9564 27.7756 21.6435 27.4035C21.1132 26.7744 20.7015 26.0432 20.4479 25.2429C20.3228 24.8543 20.2371 24.4525 20.191 24.0375C20.1647 23.8069 20.1515 23.5731 20.1515 23.3359C20.1515 22.8814 20.2009 22.4368 20.2931 22.0152C20.9024 19.1696 23.4385 17.0255 26.4619 17.0255C29.4887 17.0255 32.0214 19.1696 32.6307 22.0152C32.7196 22.4368 32.769 22.8814 32.769 23.3359C32.769 23.5731 32.7559 23.8069 32.7295 24.0375ZM34.7682 27.7098V28.0918C34.7682 28.2631 34.6299 28.4014 34.4553 28.4014H33.0786C33.3191 28.0852 33.5397 27.7559 33.734 27.4035H34.4553C34.6299 27.4035 34.7682 27.5418 34.7682 27.7098Z" fill="white"/>
<path d="M27.1469 23.6128V19.9307H25.7768V23.603L25.3619 23.188C25.0391 23.5107 24.7163 23.8335 24.3936 24.1563L26.4718 26.2345C27.1601 25.5461 27.8485 24.8611 28.5368 24.1727C28.1943 23.8664 27.8518 23.5601 27.5092 23.2538L27.1469 23.6128Z" fill="#2764FF"/>
</svg>
