<?xml version="1.0" encoding="utf-8"?>
<!-- Generator: Adobe Illustrator 24.3.0, SVG Export Plug-In . SVG Version: 6.00 Build 0)  -->
<svg version="1.1" id="Layer_1" xmlns="http://www.w3.org/2000/svg" xmlns:xlink="http://www.w3.org/1999/xlink" x="0px" y="0px"
	 viewBox="0 0 500 500" style="enable-background:new 0 0 500 500;" xml:space="preserve">
<style type="text/css">
	.st0{fill:#55BCB3;}
	.st1{fill:#F7A605;}
</style>
<path d="M108.97,248.99c0.44-5.21,0.21-12.3,1.76-18.97c3.84-16.56,18.07-28.29,35.16-29.71c2.61-0.22,3.77-1.17,4.93-3.39
	c21.33-40.86,55.11-62.22,101.18-60.41c41.35,1.63,71.5,22.87,90.71,59.46c1.43,2.71,2.75,4.09,6.09,4.42
	c20.5,1.99,35.65,18.84,35.8,39.53c0.07,8.58,0.55,17.23-0.3,25.73c-2.26,22.63-21.47,37.85-44.32,35.55
	c-2.5-0.25-3.94,0.1-5.47,2.27c-16.43,23.27-38.64,37.87-66.51,43.74c-2.61,0.55-3.96,1.67-5.16,3.98
	c-4.89,9.43-15.37,14.19-25.39,11.83c-10.16-2.39-17.55-10.98-18.04-21.01c-0.53-10.64,5.71-20.04,15.52-23.38
	c10.1-3.44,21,0.15,26.77,9.29c1.7,2.7,3.31,3.03,6.09,2.36c42.96-10.39,70.96-48.41,68.86-93.63
	c-1.92-41.26-34.94-77.24-77.04-82.74c-35.44-4.63-64.7,7.69-85.51,36.66c-20.72,28.84-22.38,60.18-7.53,92.39
	c0.49,1.07,1.12,2.08,1.63,3.15c2.75,5.84,0.94,10.39-5.08,12.81c-22.22,8.95-48.76-5.55-52.83-29.17
	C109.23,263.52,109.45,257.09,108.97,248.99z"/>
<path d="M245.38,172.77c38.93,0.03,69.34,28.77,71.32,67.14c1.83,35.48-23.6,66.68-59.67,71.78c-8.04,1.13-16.44-0.44-24.68-0.57
	c-2.18-0.03-4.67,0.13-6.52,1.12c-7.8,4.21-15.45,8.72-23.07,13.24c-3.7,2.2-7.36,3.34-11.11,0.46c-3.71-2.85-3.79-6.59-2.56-10.8
	c2.06-7.09,3.98-14.23,5.58-21.43c0.4-1.81,0-4.46-1.12-5.84c-34.35-42.45-12.12-103.6,41.57-113.97
	C239.01,173.14,243.04,173.01,245.38,172.77z M255.13,242.94c0.09-4.65-3.24-8.22-7.82-8.37c-4.82-0.16-8.47,3.37-8.47,8.16
	c0,4.66,3.4,8.1,8.04,8.13C251.56,250.89,255.04,247.55,255.13,242.94z M219.15,250.85c4.63,0.04,8.21-3.38,8.31-7.92
	c0.1-4.53-3.4-8.23-7.91-8.37c-4.74-0.15-8.6,3.52-8.58,8.18C210.98,247.26,214.57,250.81,219.15,250.85z M274.55,250.85
	c4.61,0.09,8.29-3.31,8.49-7.82c0.2-4.59-3.62-8.48-8.32-8.47c-4.55,0.01-8.16,3.56-8.2,8.08
	C266.47,247.18,269.97,250.77,274.55,250.85z"/>
</svg>
