<?xml version="1.0" encoding="utf-8"?>
<!-- Generator: Adobe Illustrator 24.3.0, SVG Export Plug-In . SVG Version: 6.00 Build 0)  -->
<svg version="1.1" id="Layer_1" xmlns="http://www.w3.org/2000/svg" xmlns:xlink="http://www.w3.org/1999/xlink" x="0px" y="0px"
	 viewBox="0 0 500 500" style="enable-background:new 0 0 500 500;" xml:space="preserve">
<style type="text/css">
	.st0{fill:#55BCB3;}
	.st1{fill:#F7A605;}
</style>
<path d="M360.89,282c0.04,34.8-28.14,63-62.93,62.98c-34.6-0.02-62.78-28.16-62.8-62.74c-0.03-34.81,28.13-62.99,62.93-62.97
	C332.7,219.29,360.85,247.41,360.89,282z M291.65,286.9c-4.26-4.37-8.45-8.85-12.83-13.14c-3.13-3.06-7.78-2.98-10.59-0.1
	c-2.77,2.84-2.91,7.25,0.04,10.29c6.08,6.27,12.25,12.45,18.52,18.53c3.49,3.37,7.27,3.27,10.81-0.05c2.51-2.35,4.87-4.87,7.29-7.32
	c7.53-7.6,15.05-15.22,22.59-22.81c2.2-2.21,3.37-5.06,1.86-7.67c-1.21-2.1-3.64-4.44-5.82-4.76c-2.19-0.32-5.23,1.18-7.01,2.84
	C308.24,270.41,300.27,278.45,291.65,286.9z"/>
<path d="M316.57,206.13c-8.75-0.7-17.06-1.36-25.93-2.07c0-3.26-0.14-7.04,0.04-10.81c0.2-4.36-1.57-7.16-5.58-8.97
	c-17.72-7.97-35.4-16.04-53.07-24.14c-2.9-1.33-5.6-1.28-8.5,0.05c-17.78,8.15-35.58,16.23-53.4,24.3
	c-3.23,1.46-5.21,3.74-5.17,7.35c0.18,17.11-0.96,34.38,0.93,51.3c4.18,37.28,24.35,63.88,58.19,79.99c2.21,1.05,5.1,0.67,8.13,1.01
	c5.27,5.93,11.1,12.5,17.24,19.41c-6.49,2.82-13.07,5.8-19.77,8.49c-1.31,0.52-3.23,0.23-4.64-0.29
	c-32.64-12.1-57.72-32.89-73.26-64.41c-8.4-17.04-12.65-35.13-12.73-54.13c-0.09-18.84,0.05-37.69-0.08-56.54
	c-0.03-4.53,1.74-7.33,5.86-9.19c26.01-11.74,51.98-23.54,77.91-35.46c3.57-1.64,6.67-1.55,10.19,0.07
	c25.83,11.84,51.69,23.61,77.6,35.27c4.25,1.91,6.2,4.68,6.1,9.4C316.44,186.58,316.57,196.43,316.57,206.13z"/>
<path d="M224.31,306.96c-21.39-12.37-35.34-29.54-41.48-52.53c-1.95-7.29-2.66-15.02-3.01-22.59c-0.49-10.69-0.05-21.43-0.19-32.14
	c-0.03-2.42,0.61-3.71,2.92-4.74c14.16-6.29,28.22-12.82,42.41-19.06c1.64-0.72,4.14-0.69,5.79,0.03c14.07,6.19,28,12.7,42.07,18.91
	c2.48,1.09,3.15,2.45,3.11,4.99c-0.13,7.59-0.03,7.59-7.11,10.48c-36.48,14.89-55.89,54.2-45.55,92.27
	C223.57,303.75,223.82,304.93,224.31,306.96z"/>
</svg>
