<?xml version="1.0" encoding="utf-8"?>
<!-- Generator: Adobe Illustrator 24.3.0, SVG Export Plug-In . SVG Version: 6.00 Build 0)  -->
<svg version="1.1" id="Layer_1" xmlns="http://www.w3.org/2000/svg" xmlns:xlink="http://www.w3.org/1999/xlink" x="0px" y="0px"
	 viewBox="0 0 500 500" style="enable-background:new 0 0 500 500;" xml:space="preserve">
<style type="text/css">
	.st0{fill:#55BCB3;}
	.st1{fill:#F7A605;}
</style>
<g>
	<path d="M227.42,361.57c-30.55,0-61.09,0.01-91.64,0c-8.47,0-10.51-2.08-10.51-10.66c-0.01-61.09-0.01-122.18,0-183.28
		c0-8.21,2.05-10.24,10.33-10.24c61.27-0.01,122.55-0.01,183.82,0c8.2,0,10.22,2.04,10.22,10.33c0.01,61.09,0.01,122.18,0,183.28
		c0,8.54-2.04,10.57-10.59,10.57C288.52,361.57,257.97,361.57,227.42,361.57z M319.81,351.71c0-51.59,0-102.58,0-153.82
		c-61.7,0-123.04,0-184.52,0c0,51.46,0,102.58,0,153.82C196.94,351.71,258.15,351.71,319.81,351.71z M249.38,170.31
		c-4.07-0.06-7.26,2.97-7.39,7.02c-0.13,4.08,2.84,7.32,6.89,7.52c4.28,0.21,7.68-3.02,7.68-7.29
		C256.55,173.51,253.45,170.37,249.38,170.31z M273.85,184.87c3.99,0.08,7.37-3.04,7.55-6.98c0.19-4.17-3.22-7.62-7.48-7.57
		c-3.99,0.04-7.3,3.31-7.32,7.23C266.58,181.44,269.89,184.78,273.85,184.87z M298.65,170.31c-4.02,0.05-7.28,3.28-7.3,7.22
		c-0.02,4.13,3.57,7.51,7.77,7.32c3.94-0.18,7.19-3.63,7.05-7.51C306.02,173.43,302.64,170.26,298.65,170.31z"/>
	<path d="M304.29,235.73c0,5.99-0.11,11.99,0.04,17.98c0.1,3.87-1.38,5.71-5.38,5.68c-9.8-0.09-19.61-0.07-29.42-0.01
		c-3.74,0.03-5.2-1.81-5.18-5.37c0.04-12.35,0.04-24.69,0-37.04c-0.01-3.55,1.4-5.41,5.15-5.39c9.8,0.07,19.61,0.09,29.42-0.01
		c3.98-0.04,5.51,1.75,5.41,5.64C304.17,223.38,304.29,229.56,304.29,235.73z"/>
	<path d="M150.64,235.19c0-5.99,0.11-11.99-0.04-17.98c-0.09-3.9,1.48-5.67,5.45-5.63c9.81,0.09,19.62,0.06,29.42,0.01
		c3.71-0.02,5.18,1.79,5.16,5.38c-0.06,12.35-0.06,24.7,0,37.05c0.02,3.6-1.5,5.37-5.19,5.35c-9.81-0.06-19.62-0.08-29.42,0.01
		c-3.99,0.04-5.5-1.8-5.41-5.67C150.74,247.54,150.64,241.36,150.64,235.19z"/>
	<path d="M247.46,235.66c0,5.99-0.1,11.99,0.04,17.98c0.08,3.81-1.32,5.77-5.35,5.74c-9.81-0.08-19.62-0.07-29.42-0.01
		c-3.67,0.02-5.28-1.66-5.27-5.29c0.05-12.35,0.07-24.7-0.01-37.05c-0.03-3.98,1.79-5.5,5.65-5.46c9.63,0.1,19.25,0.09,28.88,0
		c3.91-0.04,5.62,1.62,5.53,5.56C247.36,223.31,247.46,229.48,247.46,235.66z"/>
	<path d="M226.64,295.59c-22.36,0-44.71,0.01-67.07-0.02c-1.81,0-3.98,0.35-5.32-0.5c-1.56-1-3.21-3.12-3.27-4.81
		c-0.05-1.3,2.12-3.02,3.67-3.91c1.11-0.64,2.84-0.24,4.29-0.24c45.26-0.01,90.52,0,135.78,0c1.09,0,2.46-0.4,3.21,0.11
		c1.75,1.18,4.67,3.11,4.45,4.19c-0.39,1.91-2.53,3.8-4.39,4.97c-1.18,0.75-3.19,0.21-4.82,0.21
		C270.99,295.6,248.81,295.59,226.64,295.59z"/>
	<path d="M226.49,314.67c-22.91,0-45.81,0.09-68.72-0.14c-2.27-0.02-4.53-2-6.79-3.07c1.24-2.06,2.12-4.56,3.86-6.02
		c1.1-0.92,3.49-0.35,5.3-0.36c44.36-0.01,88.71-0.01,133.07-0.01c1.09,0,2.18,0.01,3.27,0.01c3.25,0,6.07,1.05,6.15,4.68
		c0.08,3.98-2.78,4.94-6.34,4.93C273.03,314.64,249.76,314.67,226.49,314.67z"/>
	<path d="M226.41,334.01c-22.36,0-44.72,0.01-67.08-0.01c-1.63,0-3.63,0.4-4.8-0.37c-1.6-1.06-3.78-3.29-3.53-4.61
		c0.33-1.73,2.62-3.3,4.38-4.45c0.89-0.59,2.48-0.14,3.75-0.14c45.08,0,90.17,0,135.25,0c1.27,0,2.87-0.45,3.75,0.14
		c1.74,1.19,4.26,2.96,4.27,4.5c0.01,1.61-2.32,3.62-4.09,4.71c-1.2,0.74-3.19,0.23-4.82,0.24
		C271.13,334.01,248.77,334.01,226.41,334.01z"/>
</g>
</svg>
