<?xml version="1.0" encoding="utf-8"?>
<!-- Generator: Adobe Illustrator 24.3.0, SVG Export Plug-In . SVG Version: 6.00 Build 0)  -->
<svg version="1.1" id="Layer_1" xmlns="http://www.w3.org/2000/svg" xmlns:xlink="http://www.w3.org/1999/xlink" x="0px" y="0px"
	 viewBox="0 0 500 500" style="enable-background:new 0 0 500 500;" xml:space="preserve">
<style type="text/css">
	.st0{fill:#F7A605;}
	.st1{fill:#55BCB3;}
</style>
<path class="st0" d="M153.14,232.98c0-11.57-0.21-22.53,0.09-33.47c0.14-4.92,4.11-8.51,9.08-9.2c1.64-0.23,3.33-0.13,4.99-0.13
	c51.17-0.01,102.34-0.01,153.51,0c8.4,0,8.93,0.55,8.93,9.16c0.01,6.29,0,12.57,0,19.51c-2.35,0-4.12,0-5.89,0
	c-15.33,0-30.67-0.06-46,0.02c-11.74,0.06-18.92,7.27-19.08,19.06c-0.1,7.33-0.08,14.67-0.01,22c0.12,12.32,7.22,19.42,19.69,19.51
	c15,0.1,30,0.03,45,0.03c1.81,0,3.62,0,5.74,0c0,9.97,0.41,19.55-0.18,29.06c-0.28,4.56-4.22,6.93-8.8,7.48
	c-1.15,0.14-2.33,0.06-3.5,0.06c-50.17,0-100.34,0.01-150.51,0c-9.73,0-13.13-3.45-13.15-13.31c-0.01-4.13,0-8.25,0-12.99
	c6.28,0,12.06,0,17.84,0c1.67,0,3.62,0.52,4.93-0.17c1.77-0.92,3.04-2.78,4.53-4.24c-1.51-1.2-2.96-3.33-4.55-3.45
	c-5.63-0.43-11.32-0.16-16.99-0.2c-1.78-0.01-3.56-0.15-5.54-0.24c0-5.43,0-10.39,0-16.27c4.76,0,9.51,0,14.26,0
	c2.17,0,4.33-0.02,6.5,0c2.91,0.03,6.25,0.2,6.23-3.83c-0.02-4.18-3.4-4.23-6.55-4.21c-5,0.03-10,0.01-15,0.01c-1.65,0-3.3,0-5.31,0
	c0-5.39,0-10.45,0-16.18c7.01,0,13.95-0.03,20.88,0.02c3.08,0.02,6.06-0.35,5.95-4.24c-0.1-3.6-3-3.81-5.85-3.79
	C167.57,233.02,160.75,232.98,153.14,232.98z"/>
<path class="st0" d="M153.22,183.11c0-4.24-0.36-9.03,0.12-13.74c0.34-3.39,3.46-3.42,6.26-3.42c16.16,0.04,32.33,0.02,48.49,0.02
	c21.66,0,43.33-0.08,64.99,0.05c8.76,0.05,15.88,3.4,20.05,11.56c0.56,1.1,0.71,2.42,1.3,4.57c-2.61,0-4.53,0-6.45,0
	c-37.16,0-74.32-0.05-111.48,0.04C169.1,182.21,161.69,182.76,153.22,183.11z"/>
<path class="st0" d="M329.48,226.9c0.12,1.91,0.26,3.21,0.26,4.51c0.02,13.12,0.01,26.24,0.01,39.78c-2.02,0.11-3.63,0.27-5.24,0.27
	c-14.82,0.02-29.65,0.04-44.47,0c-10-0.03-13.24-3.25-13.27-13.08c-0.02-7.16-0.11-14.32,0.06-21.48c0.13-5.63,3.81-9.87,9.16-9.93
	C293.63,226.77,311.27,226.9,329.48,226.9z M274.97,249.38c0.1,8.98,7.37,15.95,16.48,15.79c8.84-0.15,15.68-7.16,15.67-16.06
	c-0.01-9.05-7.16-16.17-16.19-16.11C281.95,233.06,274.87,240.33,274.97,249.38z"/>
<path class="st0" d="M116.48,232.93c7.97,0,15.95,0.08,23.92-0.04c2.82-0.04,4.34,0.69,4.36,3.85c0.03,3.19-1.15,4.37-4.41,4.35
	c-15.95-0.12-31.9-0.06-47.84-0.05c-2.92,0-5.59-0.57-5.58-4.11c0.01-3.57,2.71-4.03,5.62-4.02
	C100.53,232.96,108.5,232.93,116.48,232.93z"/>
<path class="st0" d="M123.3,265.29c-5.65,0-11.33,0.32-16.93-0.18c-1.89-0.17-4.87-2.22-5.13-3.77c-0.54-3.28,2.33-4.25,5.31-4.24
	c11.3,0.01,22.6,0.08,33.9-0.04c3.36-0.04,4.29,1.49,4.3,4.55c0.01,3.31-1.83,3.76-4.5,3.72C134.6,265.24,128.95,265.3,123.3,265.29
	z"/>
<path class="st0" d="M130.76,281.6c3.49-0.01,7.03-0.34,10.44,0.16c1.31,0.19,3.36,2.38,3.26,3.51c-0.14,1.6-1.88,4.3-3.05,4.36
	c-7.29,0.39-14.62,0.41-21.9-0.02c-1.54-0.09-2.94-2.53-4.4-3.88c1.56-1.38,2.97-3.64,4.72-3.94
	C123.37,281.17,127.11,281.6,130.76,281.6z"/>
<path class="st0" d="M291.23,257.14c-4.65,0.1-8.29-3.46-8.27-8.06c0.02-4.34,3.53-7.93,7.87-8.04c4.55-0.12,8.27,3.55,8.24,8.14
	C299.05,253.61,295.67,257.04,291.23,257.14z"/>
</svg>
