<?xml version="1.0" encoding="utf-8"?>
<!-- Generator: Adobe Illustrator 24.3.0, SVG Export Plug-In . SVG Version: 6.00 Build 0)  -->
<svg version="1.1" id="Layer_1" xmlns="http://www.w3.org/2000/svg" xmlns:xlink="http://www.w3.org/1999/xlink" x="0px" y="0px"
	 viewBox="0 0 465.4 507.4" style="enable-background:new 0 0 465.4 507.4;" xml:space="preserve">
<style type="text/css">
	.st0{fill:#55BCB3;}
	.st1{fill:#F7A605;}
</style>
<g>
	<path d="M380.1,254.5c-11.8,0-23.5-1.1-34.9,0.2c-77.5,8.3-132.5,69.8-133.4,148.6c-0.2,17.4,0,34.9,0,52.3c0,2.8,0,5.7,0,9.4
		c-3.5,0-6.1,0-8.7,0c-51.8,0-103.6,0-155.4,0C17.1,465,0,448.1,0,417.5C0,294.1,0,170.7,0,47.4C0.1,17.4,17.4,0,47.2,0
		C143.1,0,239.1,0,335,0c27.7,0,45.5,17.2,45.6,44.7c0.2,67.6,0.1,135.3,0.1,202.9C380.6,249.4,380.4,251.1,380.1,254.5z M316.6,190
		c0-14.3,0-27.8,0-41.5c-84.5,0-168.3,0-252.5,0c0,14.1,0,27.7,0,41.5C148.4,190,232.1,190,316.6,190z M64,105.1
		c70.5,0,140.5,0,210.7,0c0-14.1,0-27.4,0-41c-70.5,0-140.5,0-210.7,0C64,78.1,64,91.5,64,105.1z M63.9,274.2c42.5,0,84.1,0,126,0
		c0-13.9,0-27.2,0-40.7c-42.2,0-84,0-126,0C63.9,247.3,63.9,260.4,63.9,274.2z M64.2,317.4c0,14.4,0,28,0,41.4c28.3,0,55.8,0,83.4,0
		c0-14.2,0-27.7,0-41.4C119.5,317.4,92.1,317.4,64.2,317.4z"/>
	<path d="M360.7,296.1c58.4,0.8,105.7,48.8,104.7,106.3c-1,59.2-48.9,106-107.7,105C300,506.4,253,458.2,253.8,401
		C254.7,342.1,302.4,295.3,360.7,296.1z M344.4,338.5c0,26.7,0,52.6,0,78.5c26.4,0,52.1,0,78.3,0c0-10.4,0-20.3,0-31.2
		c-15.7,0-31.1,0-47.5,0c0-16.3,0-31.7,0-47.3C364.5,338.5,354.8,338.5,344.4,338.5z"/>
</g>
</svg>
