<?xml version="1.0" encoding="utf-8"?>
<!-- Generator: Adobe Illustrator 24.3.0, SVG Export Plug-In . SVG Version: 6.00 Build 0)  -->
<svg version="1.1" xmlns="http://www.w3.org/2000/svg" xmlns:xlink="http://www.w3.org/1999/xlink" x="0px" y="0px"
	 viewBox="0 0 500 500" style="enable-background:new 0 0 500 500;" xml:space="preserve">
<style type="text/css">
	.st0{fill:#95A6DB;}
	.st1{fill:#2C2858;}
	.st2{fill:#55BCB3;}
	.st3{fill:#FABA23;}
	.st4{fill:#FAD332;}
	.st5{fill:#FAEE6C;}
	.st6{fill:#FFFFFF;}
	.st7{fill:#E3EAFF;}
	.st8{fill:#4EAD60;}
	.st9{fill:#E62552;}
	.st10{fill:#D6224C;}
	.st11{fill:#FAC832;}
</style>
<g id="_x39_8">
	<path class="st0" d="M495.4,499.5H4.6c-2,0-3.6-1.6-3.6-3.6v0c0-2,1.6-3.6,3.6-3.6h490.8c2,0,3.6,1.6,3.6,3.6v0
		C499,497.8,497.4,499.5,495.4,499.5z"/>
	<g>
		<path class="st1" d="M158.7,492.1l-106.8,0.1c-16.8,0-30.5-13.6-30.5-30.5l-0.2-261.3c0-16.8,13.6-30.5,30.5-30.5l106.8-0.1
			c16.8,0,30.5,13.6,30.5,30.5l0.2,261.3C189.2,478.4,175.5,492.1,158.7,492.1z"/>
		<path class="st2" d="M159.8,486.9l-109,0.1c-11.8,0-21.4-9.6-21.5-21.4l-0.2-267c0-11.8,9.6-21.4,21.4-21.5l109-0.1
			c11.8,0,21.4,9.6,21.5,21.4l0.2,267C181.2,477.3,171.6,486.9,159.8,486.9z"/>
		<path class="st1" d="M20.3,255.3L20.3,255.3c-2.6,0-4.8-2.1-4.8-4.8v-24.7c0-2.6,2.1-4.8,4.8-4.8l0,0c2.6,0,4.8,2.1,4.8,4.8v24.7
			C25,253.2,22.9,255.3,20.3,255.3z"/>
		<path class="st1" d="M189.9,255.3L189.9,255.3c-2.6,0-4.8-2.1-4.8-4.8v-24.7c0-2.6,2.1-4.8,4.8-4.8l0,0c2.6,0,4.8,2.1,4.8,4.8
			v24.7C194.7,253.2,192.5,255.3,189.9,255.3z"/>
	</g>
	<g>
		<path class="st1" d="M447.6,492.1l-106.8,0.1c-16.8,0-30.5-13.6-30.5-30.5l-0.2-261.3c0-16.8,13.6-30.5,30.5-30.5l106.8-0.1
			c16.8,0,30.5,13.6,30.5,30.5l0.2,261.3C478.1,478.4,464.5,492.1,447.6,492.1z"/>
		<path class="st2" d="M448.7,486.9l-109,0.1c-11.8,0-21.4-9.6-21.5-21.4l-0.2-267c0-11.8,9.6-21.4,21.4-21.5l109-0.1
			c11.8,0,21.4,9.6,21.5,21.4l0.2,267C470.1,477.3,460.6,486.9,448.7,486.9z"/>
		<path class="st1" d="M309.2,255.3L309.2,255.3c-2.6,0-4.8-2.1-4.8-4.8v-24.7c0-2.6,2.1-4.8,4.8-4.8l0,0c2.6,0,4.8,2.1,4.8,4.8
			v24.7C313.9,253.2,311.8,255.3,309.2,255.3z"/>
		<path class="st1" d="M478.8,255.3L478.8,255.3c-2.6,0-4.8-2.1-4.8-4.8v-24.7c0-2.6,2.1-4.8,4.8-4.8l0,0c2.6,0,4.8,2.1,4.8,4.8
			v24.7C483.6,253.2,481.5,255.3,478.8,255.3z"/>
		<path class="st1" d="M309.2,291.8L309.2,291.8c-2.6,0-4.8-2.1-4.8-4.8v-24.7c0-2.6,2.1-4.8,4.8-4.8l0,0c2.6,0,4.8,2.1,4.8,4.8
			v24.7C313.9,289.7,311.8,291.8,309.2,291.8z"/>
	</g>
	<g>
		<path class="st3" d="M128.8,139.3c-5.5,12.5-20.1,18.2-32.6,12.7c-12.5-5.5-18.2-20.1-12.7-32.6c5.5-12.5,20.1-18.2,32.6-12.7
			C128.6,112.1,134.3,126.7,128.8,139.3z"/>
		<path class="st4" d="M124.8,137.5c-4.9,11.5-19.5,15.7-29.8,8.8c-6.6-4.3-10.1-12.3-8.9-20.1c1.9-13.2,16.4-20.9,28.2-15.5
			C124.4,115,129.4,127.2,124.8,137.5z"/>
		<g>
			<path class="st3" d="M104.8,146.4l0-4.2c-2.4,0-4.9-0.8-6.4-1.8l1-2.8c1.5,1,3.7,1.8,6,1.8c3,0,5-1.7,4.9-4.1
				c0-2.3-1.6-3.7-4.7-4.9c-4.3-1.7-6.9-3.6-6.9-7.2c0-3.5,2.4-6.1,6.3-6.7l0-4.2l2.6,0l0,4c2.5,0.1,4.2,0.7,5.4,1.4l-1,2.8
				c-0.9-0.5-2.6-1.4-5.3-1.4c-3.2,0-4.4,1.9-4.4,3.6c0,2.2,1.6,3.2,5.2,4.7c4.3,1.7,6.5,3.9,6.5,7.6c0,3.3-2.3,6.4-6.6,7.1l0,4.3
				L104.8,146.4z"/>
		</g>
	</g>
	<g>
		<path class="st3" d="M173.2,67.5c-5.5,12.5-20.1,18.2-32.6,12.7c-12.5-5.5-18.2-20.1-12.7-32.6c5.5-12.5,20.1-18.2,32.6-12.7
			C173,40.4,178.7,55,173.2,67.5z"/>
		<path class="st4" d="M169.2,65.7c-4.9,11.5-19.5,15.7-29.8,8.8c-6.6-4.3-10.1-12.3-8.9-20.1c1.9-13.2,16.4-20.9,28.2-15.5
			C168.8,43.3,173.7,55.5,169.2,65.7z"/>
		<g>
			<path class="st3" d="M149.2,74.6l0-4.2c-2.4,0-4.9-0.8-6.4-1.8l1-2.8c1.5,1,3.7,1.8,6,1.8c3,0,5-1.7,4.9-4.1
				c0-2.3-1.6-3.7-4.7-4.9c-4.3-1.7-6.9-3.6-6.9-7.2c0-3.5,2.4-6.1,6.3-6.7l0-4.2l2.6,0l0,4c2.5,0.1,4.2,0.7,5.4,1.4l-1,2.8
				c-0.9-0.5-2.6-1.4-5.3-1.4c-3.2,0-4.4,1.9-4.4,3.6c0,2.2,1.6,3.2,5.2,4.7c4.3,1.7,6.5,3.9,6.5,7.6c0,3.3-2.3,6.4-6.6,7.1l0,4.3
				L149.2,74.6z"/>
		</g>
	</g>
	<g>
		<ellipse transform="matrix(0.988 -0.1545 0.1545 0.988 -4.815 53.127)" class="st3" cx="339.4" cy="57.5" rx="24.7" ry="24.7"/>
		<path class="st4" d="M358.1,65.7c-4.9,11.5-19.5,15.7-29.8,8.8c-6.6-4.3-10.1-12.3-8.9-20.1c1.9-13.2,16.4-20.9,28.2-15.5
			C357.7,43.3,362.6,55.5,358.1,65.7z"/>
		<g>
			<path class="st3" d="M338.1,74.6l0-4.2c-2.4,0-4.9-0.8-6.4-1.8l1-2.8c1.5,1,3.7,1.8,6,1.8c3,0,5-1.7,4.9-4.1
				c0-2.3-1.6-3.7-4.7-4.9c-4.3-1.7-6.9-3.6-6.9-7.2c0-3.5,2.4-6.1,6.3-6.7l0-4.2l2.6,0l0,4c2.5,0.1,4.2,0.7,5.4,1.4l-1,2.8
				c-0.9-0.5-2.6-1.4-5.3-1.4c-3.2,0-4.4,1.9-4.4,3.6c0,2.2,1.6,3.2,5.2,4.7c4.3,1.7,6.5,3.9,6.5,7.6c0,3.3-2.3,6.4-6.6,7.1l0,4.3
				L338.1,74.6z"/>
		</g>
	</g>
	<g>
		<path class="st3" d="M412.5,139.3c-5.5,12.5-20.1,18.2-32.6,12.7c-12.5-5.5-18.2-20.1-12.7-32.6c5.5-12.5,20.1-18.2,32.6-12.7
			C412.3,112.1,418,126.7,412.5,139.3z"/>
		<path class="st4" d="M408.5,137.5c-4.9,11.5-19.5,15.7-29.8,8.8c-6.6-4.3-10.1-12.3-8.9-20.1c1.9-13.2,16.4-20.9,28.2-15.5
			C408.1,115,413.1,127.2,408.5,137.5z"/>
		<g>
			<path class="st3" d="M388.5,146.4l0-4.2c-2.4,0-4.9-0.8-6.4-1.8l1-2.8c1.5,1,3.7,1.8,6,1.8c3,0,5-1.7,4.9-4.1
				c0-2.3-1.6-3.7-4.7-4.9c-4.3-1.7-6.9-3.6-6.9-7.2c0-3.5,2.4-6.1,6.3-6.7l0-4.2l2.6,0l0,4c2.5,0.1,4.2,0.7,5.4,1.4l-1,2.8
				c-0.9-0.5-2.6-1.4-5.3-1.4c-3.2,0-4.4,1.9-4.4,3.6c0,2.2,1.6,3.2,5.2,4.7c4.3,1.7,6.5,3.9,6.5,7.6c0,3.3-2.3,6.4-6.6,7.1l0,4.3
				L388.5,146.4z"/>
		</g>
	</g>
	<g>
		<path class="st3" d="M275,37c-5.5,12.5-20.1,18.2-32.6,12.7c-12.5-5.5-18.2-20.1-12.7-32.6c5.5-12.5,20.1-18.2,32.6-12.7
			C274.8,9.9,280.5,24.5,275,37z"/>
		<path class="st4" d="M270.9,35.2C266,46.7,251.5,51,241.1,44c-6.6-4.3-10.1-12.3-8.9-20.1c1.9-13.2,16.4-20.9,28.2-15.5
			C270.6,12.8,275.5,25,270.9,35.2z"/>
		<g>
			<path class="st3" d="M250.9,44.1l0-4.2c-2.4,0-4.9-0.8-6.4-1.8l1-2.8c1.5,1,3.7,1.8,6,1.8c3,0,5-1.7,4.9-4.1
				c0-2.3-1.6-3.7-4.7-4.9c-4.3-1.7-6.9-3.6-6.9-7.2c0-3.5,2.4-6.1,6.3-6.7l0-4.2l2.6,0l0,4c2.5,0.1,4.2,0.7,5.4,1.4l-1,2.8
				c-0.9-0.5-2.6-1.4-5.3-1.4c-3.2,0-4.4,1.9-4.4,3.6c0,2.2,1.6,3.2,5.2,4.7c4.3,1.7,6.5,3.9,6.5,7.6c0,3.3-2.3,6.4-6.6,7.1l0,4.3
				L250.9,44.1z"/>
		</g>
	</g>
	<g>
		<g>
			<g>
				<g>
					<path class="st2" d="M350.4,168c-1.2,0-2.2-1-2.2-2.2c0-1.8,0-3.6-0.1-5.3c-0.1-1.2,0.9-2.2,2.1-2.3c1.2-0.1,2.2,0.9,2.3,2.1
						c0.1,1.8,0.1,3.7,0.1,5.5C352.6,167.1,351.6,168,350.4,168z"/>
				</g>
				<g>
					<path class="st2" d="M349.2,151.7c-1.1,0-2-0.8-2.1-1.8c-0.6-3.5-1.3-7.1-2.2-10.5c-0.3-1.2,0.4-2.3,1.5-2.7
						c1.2-0.3,2.3,0.4,2.7,1.5c1,3.6,1.7,7.3,2.3,11c0.2,1.2-0.6,2.3-1.8,2.5C349.4,151.7,349.3,151.7,349.2,151.7z M142,151.6
						c-0.1,0-0.2,0-0.3,0c-1.2-0.2-2-1.3-1.8-2.5c0.6-3.7,1.4-7.4,2.3-11c0.3-1.2,1.5-1.8,2.7-1.5c1.2,0.3,1.8,1.5,1.5,2.7
						c-0.9,3.4-1.7,7-2.2,10.5C144,150.8,143,151.6,142,151.6z M343.5,130.5c-0.9,0-1.7-0.5-2-1.4c-1.3-3.3-2.8-6.6-4.4-9.8
						c-0.5-1.1-0.1-2.4,0.9-2.9c1.1-0.5,2.4-0.1,2.9,0.9c1.7,3.3,3.2,6.8,4.6,10.2c0.4,1.1-0.1,2.4-1.2,2.8
						C344,130.4,343.8,130.5,343.5,130.5z M147.7,130.4c-0.3,0-0.5,0-0.8-0.1c-1.1-0.4-1.7-1.7-1.2-2.8c1.3-3.5,2.9-6.9,4.6-10.2
						c0.5-1.1,1.9-1.5,2.9-0.9c1.1,0.5,1.5,1.9,0.9,2.9c-1.6,3.2-3.1,6.5-4.4,9.8C149.4,129.9,148.5,130.4,147.7,130.4z
						 M333.6,110.9c-0.7,0-1.4-0.3-1.8-1c-1.9-3-4.1-5.9-6.3-8.7c-0.8-0.9-0.6-2.3,0.3-3.1c0.9-0.8,2.3-0.6,3.1,0.3
						c2.3,2.9,4.6,5.9,6.6,9.1c0.7,1,0.4,2.3-0.6,3C334.4,110.8,334,110.9,333.6,110.9z M157.6,110.9c-0.4,0-0.8-0.1-1.2-0.4
						c-1-0.7-1.3-2-0.6-3c2-3.1,4.2-6.2,6.6-9.1c0.8-0.9,2.1-1.1,3.1-0.3c0.9,0.8,1.1,2.1,0.3,3.1c-2.3,2.8-4.4,5.7-6.3,8.7
						C159,110.5,158.3,110.9,157.6,110.9z M319.8,93.9c-0.6,0-1.1-0.2-1.5-0.6c-2.5-2.5-5.2-5-8-7.2c-0.9-0.8-1.1-2.1-0.3-3.1
						c0.8-0.9,2.1-1.1,3.1-0.3c2.9,2.3,5.7,4.9,8.3,7.5c0.8,0.8,0.8,2.2,0,3.1C320.9,93.7,320.3,93.9,319.8,93.9z M171.4,93.9
						c-0.6,0-1.1-0.2-1.5-0.6c-0.8-0.8-0.8-2.2,0-3.1c2.6-2.6,5.4-5.2,8.3-7.5c0.9-0.8,2.3-0.6,3.1,0.3c0.8,0.9,0.6,2.3-0.3,3.1
						c-2.8,2.2-5.5,4.7-8,7.2C172.5,93.6,172,93.9,171.4,93.9z M302.7,80.1c-0.4,0-0.8-0.1-1.2-0.4c-3-1.9-6.1-3.8-9.3-5.4
						c-1.1-0.5-1.5-1.9-0.9-2.9c0.5-1.1,1.9-1.5,2.9-0.9c3.3,1.7,6.6,3.6,9.7,5.6c1,0.7,1.3,2,0.6,3
						C304.1,79.7,303.4,80.1,302.7,80.1z M188.5,80c-0.7,0-1.4-0.3-1.8-1c-0.7-1-0.4-2.3,0.6-3c3.1-2,6.4-3.9,9.7-5.6
						c1.1-0.5,2.4-0.1,2.9,0.9c0.5,1.1,0.1,2.4-0.9,2.9c-3.2,1.6-6.3,3.4-9.3,5.4C189.3,79.9,188.9,80,188.5,80z M283.2,70.1
						c-0.3,0-0.5,0-0.8-0.1c-3.3-1.3-6.8-2.4-10.2-3.3c-1.2-0.3-1.8-1.5-1.5-2.7c0.3-1.2,1.5-1.8,2.7-1.5c3.6,1,7.2,2.1,10.7,3.5
						c1.1,0.4,1.7,1.7,1.2,2.8C284.9,69.6,284.1,70.1,283.2,70.1z M208,70.1c-0.9,0-1.7-0.5-2-1.4c-0.4-1.1,0.1-2.4,1.2-2.8
						c3.5-1.3,7.1-2.5,10.7-3.5c1.2-0.3,2.3,0.4,2.7,1.5c0.3,1.2-0.4,2.3-1.5,2.7c-3.5,0.9-6.9,2-10.2,3.3
						C208.5,70,208.3,70.1,208,70.1z M262,64.4c-0.1,0-0.2,0-0.3,0c-3.5-0.6-7.1-0.9-10.7-1.1c-1.2-0.1-2.1-1.1-2.1-2.3
						c0.1-1.2,1.1-2.1,2.3-2.1c3.7,0.2,7.5,0.6,11.1,1.2c1.2,0.2,2,1.3,1.8,2.5C264,63.7,263.1,64.4,262,64.4z M229.2,64.4
						c-1.1,0-2-0.8-2.1-1.8c-0.2-1.2,0.6-2.3,1.8-2.5c3.7-0.6,7.4-1,11.1-1.2c1.2-0.1,2.2,0.9,2.3,2.1c0.1,1.2-0.9,2.2-2.1,2.3
						c-3.6,0.2-7.2,0.6-10.7,1.1C229.4,64.4,229.3,64.4,229.2,64.4z"/>
				</g>
				<g>
					<path class="st2" d="M140.7,168c-1.2,0-2.2-1-2.2-2.2c0-1.8,0-3.7,0.1-5.5c0.1-1.2,1.1-2.1,2.3-2.1c1.2,0.1,2.1,1.1,2.1,2.3
						c-0.1,1.8-0.1,3.5-0.1,5.3C142.9,167.1,141.9,168,140.7,168z"/>
				</g>
			</g>
		</g>
		<g>
			<g>
				<g>
					<path class="st2" d="M170.1,168c-1.2,0-2.2-1-2.2-2.2c0-1.9,0.1-3.7,0.2-5.6c0.1-1.2,1.1-2.1,2.3-2c1.2,0.1,2.1,1.1,2,2.3
						c-0.1,1.7-0.2,3.5-0.2,5.3C172.3,167.1,171.3,168,170.1,168z"/>
				</g>
				<g>
					<path class="st2" d="M171.8,151.9c-0.2,0-0.3,0-0.5,0c-1.2-0.3-1.9-1.4-1.7-2.6c0.8-3.6,1.8-7.2,3.1-10.6
						c0.4-1.1,1.7-1.7,2.8-1.3c1.1,0.4,1.7,1.7,1.3,2.8c-1.2,3.3-2.2,6.6-2.9,10C173.7,151.3,172.8,151.9,171.8,151.9z M319.3,151.9
						c-1,0-1.9-0.7-2.1-1.7c-0.7-3.4-1.7-6.8-3-10c-0.4-1.1,0.1-2.4,1.3-2.8c1.1-0.4,2.4,0.1,2.8,1.3c1.3,3.5,2.3,7,3.1,10.6
						c0.3,1.2-0.5,2.3-1.7,2.6C319.6,151.9,319.5,151.9,319.3,151.9z M179.3,131.8c-0.4,0-0.7-0.1-1-0.3c-1.1-0.6-1.4-1.9-0.9-2.9
						c1.8-3.2,3.8-6.4,6-9.3c0.7-1,2.1-1.2,3-0.4c1,0.7,1.2,2.1,0.4,3c-2.1,2.8-4,5.7-5.7,8.8C180.8,131.4,180.1,131.8,179.3,131.8z
						 M311.8,131.8c-0.8,0-1.5-0.4-1.9-1.1c-1.7-3-3.6-6-5.7-8.8c-0.7-1-0.5-2.3,0.4-3c1-0.7,2.3-0.5,3,0.4c2.2,2.9,4.2,6.1,6,9.3
						c0.6,1.1,0.2,2.4-0.9,2.9C312.5,131.7,312.2,131.8,311.8,131.8z M192.2,114.6c-0.6,0-1.1-0.2-1.5-0.6c-0.8-0.8-0.8-2.2,0-3.1
						c2.6-2.6,5.4-5,8.4-7.3c1-0.7,2.3-0.5,3,0.4c0.7,1,0.5,2.3-0.4,3c-2.8,2.1-5.4,4.4-7.9,6.8
						C193.3,114.4,192.8,114.6,192.2,114.6z M298.9,114.6c-0.6,0-1.1-0.2-1.5-0.6c-2.5-2.5-5.1-4.8-7.9-6.8c-1-0.7-1.2-2.1-0.4-3
						c0.7-1,2.1-1.2,3-0.4c2.9,2.2,5.8,4.6,8.4,7.2c0.8,0.8,0.8,2.2,0,3.1C300,114.4,299.5,114.6,298.9,114.6z M209.4,101.8
						c-0.8,0-1.5-0.4-1.9-1.1c-0.6-1.1-0.2-2.4,0.9-2.9c3.2-1.8,6.6-3.3,10.1-4.6c1.1-0.4,2.4,0.2,2.8,1.3c0.4,1.1-0.2,2.4-1.3,2.8
						c-3.3,1.2-6.5,2.7-9.5,4.3C210.1,101.7,209.7,101.8,209.4,101.8z M281.7,101.7c-0.4,0-0.7-0.1-1-0.3c-3.1-1.7-6.3-3.1-9.5-4.3
						c-1.1-0.4-1.7-1.7-1.3-2.8c0.4-1.1,1.7-1.7,2.8-1.3c3.5,1.3,6.8,2.8,10.1,4.6c1.1,0.6,1.4,1.9,0.9,2.9
						C283.2,101.3,282.5,101.7,281.7,101.7z M229.5,94.3c-1,0-1.9-0.7-2.1-1.7c-0.3-1.2,0.5-2.3,1.7-2.6c3.6-0.8,7.3-1.3,11-1.6
						c1.2-0.1,2.2,0.8,2.3,2c0.1,1.2-0.8,2.2-2,2.3c-3.5,0.2-7,0.7-10.3,1.5C229.8,94.2,229.7,94.3,229.5,94.3z M261.6,94.2
						c-0.2,0-0.3,0-0.5,0c-3.4-0.7-6.9-1.2-10.3-1.5c-1.2-0.1-2.1-1.1-2-2.3c0.1-1.2,1.1-2.1,2.3-2c3.7,0.3,7.4,0.8,11,1.6
						c1.2,0.3,1.9,1.4,1.7,2.6C263.5,93.5,262.6,94.2,261.6,94.2z"/>
				</g>
				<g>
					<path class="st2" d="M321.1,168c-1.2,0-2.2-1-2.2-2.2c0-1.8-0.1-3.5-0.2-5.3c-0.1-1.2,0.8-2.2,2-2.3c1.2-0.1,2.2,0.8,2.3,2
						c0.1,1.8,0.2,3.7,0.2,5.6C323.2,167.1,322.3,168,321.1,168z"/>
				</g>
			</g>
		</g>
		<g>
			<path class="st2" d="M350.1,169.3C350.1,169.3,350,169.3,350.1,169.3c-0.4,0-0.8-0.2-1.1-0.5l-13.9-18.6
				c-0.4-0.6-0.3-1.4,0.3-1.9c0.6-0.4,1.4-0.3,1.9,0.3l12.8,17.2l12.8-15.8c0.5-0.6,1.3-0.7,1.9-0.2s0.7,1.3,0.2,1.9l-13.9,17.2
				C350.9,169.1,350.5,169.3,350.1,169.3z"/>
		</g>
		<g>
			<path class="st2" d="M170,169.3C170,169.3,170,169.3,170,169.3c-0.4,0-0.8-0.2-1.1-0.5l-13.9-18.6c-0.4-0.6-0.3-1.4,0.3-1.9
				c0.6-0.4,1.4-0.3,1.9,0.3l12.8,17.2l12.8-15.8c0.5-0.6,1.3-0.7,1.9-0.2c0.6,0.5,0.7,1.3,0.2,1.9l-13.9,17.2
				C170.8,169.1,170.5,169.3,170,169.3z"/>
		</g>
	</g>
	<g>
		<g>
			<g>
				<path class="st4" d="M445.5,461.6v5.5c0,2.1-1.7,3.9-3.9,3.9h-67.1c-2.1,0-3.9-1.7-3.9-3.9v-5.5c0-1,0.3-1.8,0.9-2.5
					c0.7-0.8,1.8-1.4,3-1.4h67.1c1.2,0,2.3,0.5,3,1.4C445.2,459.8,445.5,460.7,445.5,461.6z"/>
				<rect x="374.4" y="457.7" class="st3" width="1.9" height="13.3"/>
				<rect x="382.5" y="457.7" class="st3" width="1.9" height="13.3"/>
				<rect x="390.7" y="457.7" class="st3" width="1.9" height="13.3"/>
				<rect x="398.9" y="457.7" class="st3" width="1.9" height="13.3"/>
				<rect x="407" y="457.7" class="st3" width="1.9" height="13.3"/>
				<rect x="415.2" y="457.7" class="st3" width="1.9" height="13.3"/>
				<rect x="423.4" y="457.7" class="st3" width="1.9" height="13.3"/>
				<rect x="431.6" y="457.7" class="st3" width="1.9" height="13.3"/>
				<rect x="439.7" y="457.7" class="st3" width="1.9" height="13.3"/>
				<path class="st3" d="M444.6,459.1h-73c0.7-0.8,1.8-1.4,3-1.4h67.1C442.8,457.7,443.9,458.3,444.6,459.1z"/>
				<path class="st3" d="M444.6,469.6h-73c0.7,0.8,1.8,1.4,3,1.4h67.1C442.8,471,443.9,470.5,444.6,469.6z"/>
			</g>
			<g>
				<path class="st4" d="M450.2,448.4v5.5c0,2.1-1.7,3.9-3.9,3.9h-67.1c-2.1,0-3.9-1.7-3.9-3.9v-5.5c0-1,0.3-1.8,0.9-2.5
					c0.7-0.8,1.8-1.4,3-1.4h67.1c1.2,0,2.3,0.5,3,1.4C449.9,446.5,450.2,447.4,450.2,448.4z"/>
				<rect x="379" y="444.5" class="st3" width="1.9" height="13.3"/>
				<rect x="387.2" y="444.5" class="st3" width="1.9" height="13.3"/>
				<rect x="395.4" y="444.5" class="st3" width="1.9" height="13.3"/>
				<rect x="403.6" y="444.5" class="st3" width="1.9" height="13.3"/>
				<rect x="411.7" y="444.5" class="st3" width="1.9" height="13.3"/>
				<rect x="419.9" y="444.5" class="st3" width="1.9" height="13.3"/>
				<rect x="428.1" y="444.5" class="st3" width="1.9" height="13.3"/>
				<rect x="436.3" y="444.5" class="st3" width="1.9" height="13.3"/>
				<rect x="444.4" y="444.5" class="st3" width="1.9" height="13.3"/>
				<path class="st3" d="M449.3,445.8h-73c0.7-0.8,1.8-1.4,3-1.4h67.1C447.5,444.5,448.6,445,449.3,445.8z"/>
				<path class="st3" d="M449.3,456.4h-73c0.7,0.8,1.8,1.4,3,1.4h67.1C447.5,457.7,448.6,457.2,449.3,456.4z"/>
			</g>
			<g>
				<path class="st4" d="M446.6,435.1v5.5c0,2.1-1.7,3.9-3.9,3.9h-67.1c-2.1,0-3.9-1.7-3.9-3.9v-5.5c0-1,0.3-1.8,0.9-2.5
					c0.7-0.8,1.8-1.4,3-1.4h67.1c1.2,0,2.3,0.5,3,1.4C446.2,433.3,446.6,434.1,446.6,435.1z"/>
				<rect x="375.4" y="431.2" class="st3" width="1.9" height="13.3"/>
				<rect x="383.6" y="431.2" class="st3" width="1.9" height="13.3"/>
				<rect x="391.8" y="431.2" class="st3" width="1.9" height="13.3"/>
				<rect x="399.9" y="431.2" class="st3" width="1.9" height="13.3"/>
				<rect x="408.1" y="431.2" class="st3" width="1.9" height="13.3"/>
				<rect x="416.3" y="431.2" class="st3" width="1.9" height="13.3"/>
				<rect x="424.4" y="431.2" class="st3" width="1.9" height="13.3"/>
				<rect x="432.6" y="431.2" class="st3" width="1.9" height="13.3"/>
				<rect x="440.8" y="431.2" class="st3" width="1.9" height="13.3"/>
				<path class="st3" d="M445.6,432.6h-73c0.7-0.8,1.8-1.4,3-1.4h67.1C443.9,431.2,444.9,431.8,445.6,432.6z"/>
				<path class="st3" d="M445.6,443.1h-73c0.7,0.8,1.8,1.4,3,1.4h67.1C443.9,444.5,444.9,444,445.6,443.1z"/>
			</g>
			<g>
				<path class="st4" d="M448.1,422.1v5.5c0,2.1-1.7,3.9-3.9,3.9h-67.1c-2.1,0-3.9-1.7-3.9-3.9v-5.5c0-1,0.3-1.8,0.9-2.5
					c0.7-0.8,1.8-1.4,3-1.4h67.1c1.2,0,2.3,0.5,3,1.4C447.7,420.3,448.1,421.1,448.1,422.1z"/>
				<rect x="376.9" y="418.2" class="st3" width="1.9" height="13.3"/>
				<rect x="385.1" y="418.2" class="st3" width="1.9" height="13.3"/>
				<rect x="393.2" y="418.2" class="st3" width="1.9" height="13.3"/>
				<rect x="401.4" y="418.2" class="st3" width="1.9" height="13.3"/>
				<rect x="409.6" y="418.2" class="st3" width="1.9" height="13.3"/>
				<rect x="417.8" y="418.2" class="st3" width="1.9" height="13.3"/>
				<rect x="425.9" y="418.2" class="st3" width="1.9" height="13.3"/>
				<rect x="434.1" y="418.2" class="st3" width="1.9" height="13.3"/>
				<rect x="442.3" y="418.2" class="st3" width="1.9" height="13.3"/>
				<path class="st3" d="M447.1,419.6h-73c0.7-0.8,1.8-1.4,3-1.4h67.1C445.4,418.2,446.4,418.7,447.1,419.6z"/>
				<path class="st3" d="M447.1,430.1h-73c0.7,0.8,1.8,1.4,3,1.4h67.1C445.4,431.5,446.4,430.9,447.1,430.1z"/>
			</g>
			<g>
				<path class="st4" d="M439.7,408.6v5.5c0,2.1-1.7,3.9-3.9,3.9h-67.1c-2.1,0-3.9-1.7-3.9-3.9v-5.5c0-1,0.3-1.8,0.9-2.5
					c0.7-0.8,1.8-1.4,3-1.4h67.1c1.2,0,2.3,0.5,3,1.4C439.3,406.8,439.7,407.7,439.7,408.6z"/>
				<rect x="368.5" y="404.7" class="st3" width="1.9" height="13.3"/>
				<rect x="376.7" y="404.7" class="st3" width="1.9" height="13.3"/>
				<rect x="384.9" y="404.7" class="st3" width="1.9" height="13.3"/>
				<rect x="393.1" y="404.7" class="st3" width="1.9" height="13.3"/>
				<rect x="401.2" y="404.7" class="st3" width="1.9" height="13.3"/>
				<rect x="409.4" y="404.7" class="st3" width="1.9" height="13.3"/>
				<rect x="417.6" y="404.7" class="st3" width="1.9" height="13.3"/>
				<rect x="425.7" y="404.7" class="st3" width="1.9" height="13.3"/>
				<rect x="433.9" y="404.7" class="st3" width="1.9" height="13.3"/>
				<path class="st3" d="M438.8,406.1h-73c0.7-0.8,1.8-1.4,3-1.4h67.1C437,404.7,438.1,405.3,438.8,406.1z"/>
				<path class="st3" d="M438.8,416.6h-73c0.7,0.8,1.8,1.4,3,1.4h67.1C437,418,438.1,417.5,438.8,416.6z"/>
			</g>
			<g>
				<path class="st4" d="M447.9,395.5v5.5c0,2.1-1.7,3.9-3.9,3.9h-67.1c-2.1,0-3.9-1.7-3.9-3.9v-5.5c0-1,0.3-1.8,0.9-2.5
					c0.7-0.8,1.8-1.4,3-1.4H444c1.2,0,2.3,0.5,3,1.4C447.6,393.7,447.9,394.5,447.9,395.5z"/>
				<rect x="376.8" y="391.6" class="st3" width="1.9" height="13.3"/>
				<rect x="384.9" y="391.6" class="st3" width="1.9" height="13.3"/>
				<rect x="393.1" y="391.6" class="st3" width="1.9" height="13.3"/>
				<rect x="401.3" y="391.6" class="st3" width="1.9" height="13.3"/>
				<rect x="409.5" y="391.6" class="st3" width="1.9" height="13.3"/>
				<rect x="417.6" y="391.6" class="st3" width="1.9" height="13.3"/>
				<rect x="425.8" y="391.6" class="st3" width="1.9" height="13.3"/>
				<rect x="434" y="391.6" class="st3" width="1.9" height="13.3"/>
				<rect x="442.1" y="391.6" class="st3" width="1.9" height="13.3"/>
				<path class="st3" d="M447,393h-73c0.7-0.8,1.8-1.4,3-1.4H444C445.2,391.6,446.3,392.1,447,393z"/>
				<path class="st3" d="M447,403.5h-73c0.7,0.8,1.8,1.4,3,1.4H444C445.2,404.9,446.3,404.4,447,403.5z"/>
			</g>
			<g>
				<path class="st4" d="M445,382.2v5.5c0,2.1-1.7,3.9-3.9,3.9H374c-2.1,0-3.9-1.7-3.9-3.9v-5.5c0-1,0.3-1.8,0.9-2.5
					c0.7-0.8,1.8-1.4,3-1.4h67.1c1.2,0,2.3,0.5,3,1.4C444.7,380.4,445,381.2,445,382.2z"/>
				<rect x="373.9" y="378.3" class="st3" width="1.9" height="13.3"/>
				<rect x="382" y="378.3" class="st3" width="1.9" height="13.3"/>
				<rect x="390.2" y="378.3" class="st3" width="1.9" height="13.3"/>
				<rect x="398.4" y="378.3" class="st3" width="1.9" height="13.3"/>
				<rect x="406.5" y="378.3" class="st3" width="1.9" height="13.3"/>
				<rect x="414.7" y="378.3" class="st3" width="1.9" height="13.3"/>
				<rect x="422.9" y="378.3" class="st3" width="1.9" height="13.3"/>
				<rect x="431.1" y="378.3" class="st3" width="1.9" height="13.3"/>
				<rect x="439.2" y="378.3" class="st3" width="1.9" height="13.3"/>
				<path class="st3" d="M444.1,379.7h-73c0.7-0.8,1.8-1.4,3-1.4h67.1C442.3,378.3,443.4,378.8,444.1,379.7z"/>
				<path class="st3" d="M444.1,390.2h-73c0.7,0.8,1.8,1.4,3,1.4h67.1C442.3,391.6,443.4,391,444.1,390.2z"/>
			</g>
			<g>
				<path class="st4" d="M449,369v5.5c0,2.1-1.7,3.9-3.9,3.9H378c-2.1,0-3.9-1.7-3.9-3.9V369c0-1,0.3-1.8,0.9-2.5
					c0.7-0.8,1.8-1.4,3-1.4h67.1c1.2,0,2.3,0.5,3,1.4C448.7,367.2,449,368,449,369z"/>
				<rect x="377.9" y="365.1" class="st3" width="1.9" height="13.3"/>
				<rect x="386" y="365.1" class="st3" width="1.9" height="13.3"/>
				<rect x="394.2" y="365.1" class="st3" width="1.9" height="13.3"/>
				<rect x="402.4" y="365.1" class="st3" width="1.9" height="13.3"/>
				<rect x="410.6" y="365.1" class="st3" width="1.9" height="13.3"/>
				<rect x="418.7" y="365.1" class="st3" width="1.9" height="13.3"/>
				<rect x="426.9" y="365.1" class="st3" width="1.9" height="13.3"/>
				<rect x="435.1" y="365.1" class="st3" width="1.9" height="13.3"/>
				<rect x="443.2" y="365.1" class="st3" width="1.9" height="13.3"/>
				<path class="st3" d="M448.1,366.5h-73c0.7-0.8,1.8-1.4,3-1.4h67.1C446.3,365.1,447.4,365.6,448.1,366.5z"/>
				<path class="st3" d="M448.1,377h-73c0.7,0.8,1.8,1.4,3,1.4h67.1C446.3,378.4,447.4,377.8,448.1,377z"/>
			</g>
		</g>
		<g>
			
				<ellipse transform="matrix(0.9497 -0.3132 0.3132 0.9497 -116.4467 138.2422)" class="st3" cx="372.1" cy="431.6" rx="40" ry="40"/>
			<path class="st4" d="M403.4,441.7c-5.6,17.3-24.1,26.8-41.4,21.2c-1.8-0.6-3.5-1.3-5.2-2.2c-2.8-1.4-5.2-3.2-7.4-5.3
				c-0.8-0.8-1.6-1.6-2.3-2.5c-5.4-6.3-8.3-14.6-7.8-23.1c0.1-2.8,0.7-5.6,1.6-8.4c4.2-12.9,15.5-21.4,28.2-22.6
				c4.3-0.4,8.8,0,13.2,1.5c3.8,1.2,7.2,3.1,10.2,5.4c0.9,0.7,1.8,1.5,2.6,2.2c2.2,2.1,4.1,4.6,5.6,7.2
				C405.1,422.9,406.4,432.5,403.4,441.7z"/>
			<path class="st5" d="M392.4,405.7L347.1,453c-5.4-6.3-8.3-14.6-7.8-23.1l29.8-31c4.3-0.4,8.8,0,13.2,1.5
				C386,401.5,389.4,403.4,392.4,405.7z"/>
			<path class="st5" d="M400.6,415.1l-43.7,45.6c-2.8-1.4-5.2-3.2-7.4-5.3L395,408C397.2,410.1,399.1,412.5,400.6,415.1z"/>
			<path class="st6" d="M374.3,400.3c-3.9-0.4-4.6,0-6.3,3.4c0.4-3.8,0.1-4.5-3.4-6.3c3.9,0.4,4.6,0,6.3-3.4
				C370.5,397.9,370.9,398.6,374.3,400.3z"/>
			<path class="st6" d="M360.6,462.1c-3.3-0.3-3.9,0-5.3,2.9c0.4-3.2,0-3.8-2.9-5.3c3.3,0.3,3.9,0,5.3-2.9
				C357.3,460,357.6,460.6,360.6,462.1z"/>
		</g>
	</g>
	<g>
		<g>
			<path class="st7" d="M398,298.7c-24.2,0-43.9-19.7-43.9-43.9c0-24.2,19.7-43.9,43.9-43.9c24.2,0,43.9,19.7,43.9,43.9
				C442,279,422.3,298.7,398,298.7z M398,212.9c-23,0-41.8,18.7-41.8,41.8c0,23,18.7,41.8,41.8,41.8c23,0,41.8-18.7,41.8-41.8
				C439.8,231.7,421.1,212.9,398,212.9z"/>
		</g>
		<g>
			<g>
				<path class="st7" d="M398,279.7c-3.2,0-5.8-2.6-5.8-5.8v-80.6c0-3.2,2.6-5.8,5.8-5.8s5.8,2.6,5.8,5.8v80.6
					C403.9,277.1,401.3,279.7,398,279.7z"/>
			</g>
		</g>
	</g>
	<g>
		<g>
			<path class="st6" d="M398,298.7c-24.2,0-43.9-19.7-43.9-43.9c0-24.2,19.7-43.9,43.9-43.9c24.2,0,43.9,19.7,43.9,43.9
				C442,279,422.3,298.7,398,298.7z M398,212.9c-23,0-41.8,18.7-41.8,41.8c0,23,18.7,41.8,41.8,41.8c23,0,41.8-18.7,41.8-41.8
				C439.8,231.7,421.1,212.9,398,212.9z"/>
		</g>
		<g>
			<g>
				<path class="st6" d="M398,279.7c-3.2,0-5.8-2.6-5.8-5.8v-80.6c0-3.2,2.6-5.8,5.8-5.8s5.8,2.6,5.8,5.8v80.6
					C403.9,277.1,401.3,279.7,398,279.7z"/>
			</g>
			<g>
				<path class="st6" d="M398.4,284.5c-0.1,0-0.2,0-0.2,0c-1.8-0.1-3.4-1-4.5-2.4l-24.2-31c-1.9-2.6-1.3-6.3,1.3-8.1
					c2.6-1.9,6.3-1.3,8.2,1.3l19.9,25.1l18.6-25.4c2.1-2.4,5.8-2.7,8.2-0.6c2.4,2.1,2.7,5.8,0.6,8.2l-23.4,31
					C401.8,283.7,400.2,284.5,398.4,284.5z"/>
			</g>
		</g>
	</g>
	<g>
		<g>
			<path class="st6" d="M106.8,294.2c-24.2,0-43.9-19.7-43.9-43.9c0-24.2,19.7-43.9,43.9-43.9c24.2,0,43.9,19.7,43.9,43.9
				C150.8,274.5,131.1,294.2,106.8,294.2z M106.8,208.5c-23,0-41.8,18.7-41.8,41.8c0,23,18.7,41.8,41.8,41.8s41.8-18.7,41.8-41.8
				C148.6,227.2,129.9,208.5,106.8,208.5z"/>
		</g>
		<g>
			
				<ellipse transform="matrix(0.5847 -0.8112 0.8112 0.5847 -158.6559 190.5878)" class="st6" cx="106.8" cy="250.3" rx="31.8" ry="31.8"/>
			<path class="st2" d="M130.9,263.6c-4.7,8.5-13.7,14.3-24.1,14.3c-10.4,0-19.4-5.8-24.1-14.3c3-5.3,7.6-9.4,13.2-11.9
				c-2.4-2.6-3.8-6.1-3.8-9.9c0-8.2,6.6-14.8,14.8-14.8c8.2,0,14.8,6.6,14.8,14.8c0,3.8-1.5,7.3-3.8,9.9
				C123.3,254.2,128,258.3,130.9,263.6z"/>
		</g>
	</g>
	<g>
		<path class="st3" d="M443.9,325.6l-18.4-9.9c-0.5,1-1,1.9-1.6,2.9l0,0c-0.8,1.4,2.8,4.8,7.9,7.5c5.1,2.8,9.9,3.8,10.6,2.4
			C442.5,328.4,443.9,325.6,443.9,325.6z"/>
		<path class="st4" d="M443.9,325.8c-0.8,1.4-5.5,0.3-10.6-2.4c-5.1-2.8-8.7-6.1-7.9-7.5s5.5-0.3,10.6,2.4
			C441.1,321,444.7,324.4,443.9,325.8z"/>
	</g>
	<g>
		<path class="st3" d="M362,362.9l-18.7,3c0.2,1,0.3,2,0.5,2.9l0,0c0.2,1.4,4.6,1.9,9.8,1c5.2-0.8,9.2-2.7,9-4.1
			C362.5,365.7,362,362.9,362,362.9z"/>
		<path class="st4" d="M362.1,363c0.2,1.4-3.8,3.3-9,4.1c-5.2,0.8-9.6,0.4-9.8-1c-0.2-1.4,3.8-3.3,9-4.1
			C357.5,361.1,361.9,361.6,362.1,363z"/>
	</g>
	<g>
		<path class="st3" d="M384.3,330.1l-17-8.4c-0.4,0.9-0.9,1.8-1.3,2.7l0,0c-0.6,1.3,2.7,4.2,7.4,6.5c4.7,2.3,9,3.2,9.7,1.9
			C383.1,332.7,384.3,330.1,384.3,330.1z"/>
		<path class="st4" d="M384.3,330.3c-0.6,1.3-5,0.5-9.7-1.9c-4.7-2.3-8-5.2-7.4-6.5c0.6-1.3,5-0.5,9.7,1.9
			C381.6,326.1,384.9,329,384.3,330.3z"/>
	</g>
	<g>
		<path class="st3" d="M359,298.6l-19.5,3.2c0.2,1,0.3,2,0.5,3.1l0,0c0.2,1.5,4.8,2,10.3,1.1c5.4-0.9,9.6-2.8,9.4-4.3
			C359.6,301.5,359,298.6,359,298.6z"/>
		<path class="st4" d="M359.1,298.8c0.2,1.5-4,3.4-9.4,4.3c-5.4,0.9-10,0.4-10.3-1.1c-0.2-1.5,4-3.4,9.4-4.3
			C354.3,296.8,358.9,297.3,359.1,298.8z"/>
	</g>
	<g>
		<path class="st7" d="M152.5,364.2H59.1c-12.2,0-22.1-9.9-22.1-22.1v0c0-12.2,9.9-22.1,22.1-22.1h93.4c12.2,0,22.1,9.9,22.1,22.1v0
			C174.6,354.4,164.7,364.2,152.5,364.2z"/>
		<g>
			<path class="st3" d="M79.8,336v12.4c0,3.3-2.7,6.1-6.1,6.1H50.2c-1.2,0-2.4-0.4-3.3-1c-1.6-1.1-2.7-2.9-2.7-5.1V336
				c0-3.3,2.7-6.1,6.1-6.1h23.5c1.4,0,2.6,0.5,3.6,1.2C78.8,332.2,79.8,334,79.8,336z"/>
			<path class="st0" d="M127.6,347.2H88.6c-2.8,0-5-2.3-5-5l0,0c0-2.8,2.3-5,5-5h38.9c2.8,0,5,2.3,5,5l0,0
				C132.6,345,130.4,347.2,127.6,347.2z"/>
			<path class="st8" d="M162.4,347.2h-19.5c-2.8,0-5-2.3-5-5l0,0c0-2.8,2.3-5,5-5h19.5c2.8,0,5,2.3,5,5l0,0
				C167.4,345,165.2,347.2,162.4,347.2z"/>
		</g>
		<path class="st4" d="M77.3,331.1l-30.4,22.3c-1.6-1.1-2.7-2.9-2.7-5.1V336c0-3.3,2.7-6.1,6.1-6.1h23.5
			C75.1,329.9,76.3,330.4,77.3,331.1z"/>
		<path class="st9" d="M71.9,347.5c0,2.2-1.8,4.1-4.1,4.1c-2.2,0-4.1-1.8-4.1-4.1c0-2.2,1.8-4.1,4.1-4.1
			C70.1,343.4,71.9,345.2,71.9,347.5z"/>
		<path class="st0" d="M76.7,347.5c0,2.2-1.8,4.1-4.1,4.1c-2.2,0-4.1-1.8-4.1-4.1c0-2.2,1.8-4.1,4.1-4.1
			C74.9,343.4,76.7,345.2,76.7,347.5z"/>
	</g>
	<g>
		<path class="st7" d="M152.5,417.7H59.1c-12.2,0-22.1-9.9-22.1-22.1v0c0-12.2,9.9-22.1,22.1-22.1h93.4c12.2,0,22.1,9.9,22.1,22.1v0
			C174.6,407.8,164.7,417.7,152.5,417.7z"/>
		<g>
			<path class="st10" d="M79.8,389.4v12.4c0,3.3-2.7,6.1-6.1,6.1H50.2c-1.2,0-2.4-0.4-3.3-1c-1.6-1.1-2.7-2.9-2.7-5.1v-12.4
				c0-3.3,2.7-6.1,6.1-6.1h23.5c1.4,0,2.6,0.5,3.6,1.2C78.8,385.7,79.8,387.4,79.8,389.4z"/>
			<path class="st0" d="M127.6,400.7H88.6c-2.8,0-5-2.3-5-5l0,0c0-2.8,2.3-5,5-5h38.9c2.8,0,5,2.3,5,5l0,0
				C132.6,398.4,130.4,400.7,127.6,400.7z"/>
			<path class="st8" d="M162.4,400.7h-19.5c-2.8,0-5-2.3-5-5l0,0c0-2.8,2.3-5,5-5h19.5c2.8,0,5,2.3,5,5l0,0
				C167.4,398.4,165.2,400.7,162.4,400.7z"/>
		</g>
		<path class="st9" d="M77.3,384.6l-30.4,22.3c-1.6-1.1-2.7-2.9-2.7-5.1v-12.4c0-3.3,2.7-6.1,6.1-6.1h23.5
			C75.1,383.4,76.3,383.8,77.3,384.6z"/>
		
			<ellipse transform="matrix(0.9996 -2.937409e-02 2.937409e-02 0.9996 -11.747 2.1648)" class="st11" cx="67.8" cy="400.9" rx="4.1" ry="4.1"/>
		<path class="st0" d="M76.7,400.9c0,2.2-1.8,4.1-4.1,4.1c-2.2,0-4.1-1.8-4.1-4.1c0-2.2,1.8-4.1,4.1-4.1
			C74.9,396.8,76.7,398.7,76.7,400.9z"/>
	</g>
	<g>
		<path class="st7" d="M152.5,471.1H59.1c-12.2,0-22.1-9.9-22.1-22.1v0c0-12.2,9.9-22.1,22.1-22.1h93.4c12.2,0,22.1,9.9,22.1,22.1v0
			C174.6,461.3,164.7,471.1,152.5,471.1z"/>
		<g>
			<path class="st3" d="M79.8,442.9v12.4c0,3.3-2.7,6.1-6.1,6.1H50.2c-1.2,0-2.4-0.4-3.3-1c-1.6-1.1-2.7-2.9-2.7-5.1v-12.4
				c0-3.3,2.7-6.1,6.1-6.1h23.5c1.4,0,2.6,0.5,3.6,1.2C78.8,439.1,79.8,440.9,79.8,442.9z"/>
			<path class="st0" d="M127.6,454.1H88.6c-2.8,0-5-2.3-5-5l0,0c0-2.8,2.3-5,5-5h38.9c2.8,0,5,2.3,5,5l0,0
				C132.6,451.9,130.4,454.1,127.6,454.1z"/>
			<path class="st8" d="M162.4,454.1h-19.5c-2.8,0-5-2.3-5-5l0,0c0-2.8,2.3-5,5-5h19.5c2.8,0,5,2.3,5,5l0,0
				C167.4,451.9,165.2,454.1,162.4,454.1z"/>
		</g>
		<path class="st4" d="M77.3,438l-30.4,22.3c-1.6-1.1-2.7-2.9-2.7-5.1v-12.4c0-3.3,2.7-6.1,6.1-6.1h23.5
			C75.1,436.8,76.3,437.3,77.3,438z"/>
		<path class="st9" d="M71.9,454.4c0,2.2-1.8,4.1-4.1,4.1c-2.2,0-4.1-1.8-4.1-4.1c0-2.2,1.8-4.1,4.1-4.1
			C70.1,450.3,71.9,452.1,71.9,454.4z"/>
		<path class="st0" d="M76.7,454.4c0,2.2-1.8,4.1-4.1,4.1c-2.2,0-4.1-1.8-4.1-4.1c0-2.2,1.8-4.1,4.1-4.1
			C74.9,450.3,76.7,452.1,76.7,454.4z"/>
	</g>
</g>
<g id="Layer_1">
</g>
</svg>
