<?xml version="1.0" encoding="utf-8"?>
<!-- Generator: Adobe Illustrator 24.3.0, SVG Export Plug-In . SVG Version: 6.00 Build 0)  -->
<svg version="1.1" xmlns="http://www.w3.org/2000/svg" xmlns:xlink="http://www.w3.org/1999/xlink" x="0px" y="0px"
	 viewBox="0 0 500 500" style="enable-background:new 0 0 500 500;" xml:space="preserve">
<style type="text/css">
	.st0{fill:#FFFFFF;}
	.st1{fill:#E5E5E5;}
	.st2{fill:#54D6BE;}
	.st3{fill:#3FA18F;}
	.st4{fill:#13416B;}
	.st5{fill:#FCC5A7;}
	.st6{fill:#F7EAE2;}
</style>
<g id="_x39_8">
	<path class="st0" d="M399,374.4c0,14.7-12,26.7-26.7,26.7H220.2c-14.7,0-26.7-12-26.7-26.7V27.5c0-14.7,12-26.7,26.7-26.7h152.1
		c14.7,0,26.7,12,26.7,26.7V374.4z"/>
	<path class="st1" d="M322.1,33.9c0,1.9-1.6,3.5-3.5,3.5h-44.7c-1.9,0-3.5-1.6-3.5-3.5v-0.3c0-1.9,1.6-3.5,3.5-3.5h44.7
		c1.9,0,3.5,1.6,3.5,3.5V33.9z"/>
	<path class="st1" d="M301.8,18.7c0,3.1-2.5,5.5-5.5,5.5c-3.1,0-5.5-2.5-5.5-5.5c0-3.1,2.5-5.5,5.5-5.5
		C299.3,13.2,301.8,15.7,301.8,18.7z"/>
	<path class="st1" d="M313.6,375.7c0,9.6-7.8,17.4-17.4,17.4c-9.6,0-17.4-7.8-17.4-17.4c0-9.6,7.8-17.4,17.4-17.4
		C305.9,358.3,313.6,366.1,313.6,375.7z"/>
	<rect x="201.4" y="52" class="st2" width="189.7" height="299.9"/>
	<g>
		<g>
			<g>
				<path class="st3" d="M330.2,229.1c0,17.1-14.1,31-31.5,31c-17.4,0-31.5-13.9-31.5-31c0-17.1,14.1-31,31.5-31
					C316.1,198.1,330.2,212,330.2,229.1z"/>
			</g>
			<g>
				<g>
					<path class="st3" d="M298.7,184.9c-24.8,0-44.9,19.8-44.9,44.2s20.1,44.2,44.9,44.2c24.8,0,44.9-19.8,44.9-44.2
						S323.5,184.9,298.7,184.9z M298.7,267.5c-21.6,0-39.1-17.2-39.1-38.4c0-21.2,17.5-38.4,39.1-38.4c21.6,0,39.1,17.2,39.1,38.4
						C337.7,250.3,320.2,267.5,298.7,267.5z"/>
				</g>
			</g>
		</g>
	</g>
	<path class="st0" d="M329.3,229.4c0,16.6-13.3,30.2-30.1,30.4c-16.9,0.2-30.6-13.4-30.7-30.4c-0.2-16.4,13.4-30.3,29.9-30.4
		C315.5,198.8,329.1,212.2,329.3,229.4z M292.8,232c-1.8-1.9-3.6-3.6-5.3-5.3c-0.8-0.8-1.4-0.8-2.2,0c-1.5,1.5-3.1,3-4.6,4.6
		c-0.9,0.9-0.9,1.5,0,2.4c3.6,3.6,7.2,7.2,10.8,10.8c1,1,1.5,1.1,2.5,0c7.8-7.8,15.5-15.5,23.3-23.3c0.8-0.8,0.8-1.4,0-2.1
		c-1.6-1.6-3.1-3.2-4.7-4.7c-0.8-0.8-1.4-0.8-2.1,0c-3.6,3.6-7.1,7.1-10.7,10.7C297.4,227.2,295.2,229.5,292.8,232z"/>
	<g>
		<polygon class="st0" points="75.6,399.3 148.5,447.8 125.5,482.3 53.2,433.2 		"/>
		<polygon class="st4" points="65.7,402.6 145.8,460 120.4,501.1 6,501.1 		"/>
		<path class="st5" d="M100.1,375.1c0,0-2.1-16.9,5.5-31.2c7.6-14.3,24-36.5,34.8-53c10.8-16.6,17.8-17.1,24-14.1
			c6.2,3,8.2,7.3,6.1,10.2c-2.1,2.9-9.4,12.5-11,14.4c-2.3,2.7-0.3,3.6,0.3,2.8c1.3-1.7,7.2-8,12.2-14.6c5.1-6.7,11.9-6.8,16.9-4.4
			c5,2.3,8.1,8.3,6.2,11.2c-1.8,2.9-11.6,17.9-13.1,20.1c-1.5,2.2-0.1,2.3,0.6,2.3s8.9-11.3,13.8-18.3c4.9-7,11.7-8.8,17.3-6.9
			c5.6,1.9,9.2,6.4,7.7,9.2c-1.5,2.8-14.7,23.1-15.8,25c-1.1,1.9,0.5,2.9,2.7,0.4c2.1-2.5,54.4-80.6,58-85.6
			c3.6-5,11.4-6.8,18.9-2.1c7.5,4.7,4,14.6,1.1,19c-2.9,4.4-66.2,96.4-81.2,115.9c-0.9,1.2,1,1.6,1.7,1c0.7-0.7,13.6-17.3,21.7-27.2
			c8.7-10.5,15.4-9.6,18-8.8c3.3,1,6.1,2.5,7.8,4c-2.2,1.9-7.7,6.7-10.1,10.1c-1.7,2.5-2.7,5.8-2.1,8.5
			c-9.1,9.1-21.5,20.6-33.5,31.3c-23.1,20.5-49.3,27.9-49.3,27.9l-15,22.9l-62.6-41.8L100.1,375.1z"/>
		<path class="st6" d="M244.1,354.5c2.3-3.5,7.8-8.3,10.1-10.1c0.9,0.9,1.5,1.8,1.6,2.8c0.1,1.3-5.4,7.5-13.8,15.9
			C241.4,360.3,242.5,356.9,244.1,354.5z"/>
		<path class="st6" d="M268.2,244.3c1.7-2.4,4.5-3.8,7.8-3.8c2.4,0,4.9,0.8,7.3,2.2c1.7,1.1,2.8,2.6,3.2,4.5
			c0.9,3.9-1.2,8.5-2.6,10.6c-0.2,0.3-1,1.4-2.1,3.1c-3.5,0.2-8.3,0.3-11.8-2.4c-3.4-2.6-5.7-5.8-5.7-8.5
			C266.8,246.3,267.8,244.9,268.2,244.3z"/>
	</g>
</g>
<g id="Layer_1">
</g>
</svg>
