<?xml version="1.0" encoding="utf-8"?>
<!-- Generator: Adobe Illustrator 24.3.0, SVG Export Plug-In . SVG Version: 6.00 Build 0)  -->
<svg version="1.1" xmlns="http://www.w3.org/2000/svg" xmlns:xlink="http://www.w3.org/1999/xlink" x="0px" y="0px"
	 viewBox="0 0 500 347" style="enable-background:new 0 0 500 347;" xml:space="preserve">
<style type="text/css">
	.st0{fill:#C0BAC4;}
	.st1{fill:#E2DFE8;}
	.st2{fill:#EDE8EC;}
	.st3{fill:#A7ADAD;}
	.st4{fill:url(#SVGID_1_);}
	.st5{fill:#F7F072;}
	.st6{fill:#FCD947;}
	.st7{fill:#FAD733;}
	.st8{fill:#FE9B00;}
	.st9{fill:#E17900;}
	.st10{fill:#FFEE58;}
	.st11{fill:#FDD43A;}
	.st12{fill:#FFBF03;}
	.st13{fill:#F4DF45;}
	.st14{opacity:0.63;fill:url(#SVGID_2_);}
</style>
<g id="_x39_8">
	<g>
		<path class="st0" d="M149.4,346.7h16.8l0.5-24.9L1.9,236.6v17.9c0,9.4,5.2,18,13.5,22.3L149.4,346.7L149.4,346.7z"/>
		<path class="st1" d="M166.7,321.8l-0.5,24.9h14.9l298.8-171.5c12.2-7,19.7-19.9,19.7-34l0-10.5L166.7,321.8z"/>
		<path class="st2" d="M130.6,322l-117-67.5c-17.4-10-15.2-27.7,4.9-39.3L302.9,51c20.1-11.6,50.7-12.8,68-2.8l117,67.5
			c17.4,10,15.2,27.7-4.9,39.3L198.6,319.2C178.6,330.8,148,332.1,130.6,322z"/>
		<path class="st3" d="M441.3,112.6l-60.8-35.1c-1.4-0.8-1.3-2.3,0.4-3.2l0,0c1.7-1,4.2-1.1,5.6-0.2l60.8,35.1
			c1.4,0.8,1.3,2.3-0.4,3.2l0,0C445.3,113.3,442.8,113.4,441.3,112.6z"/>
		<linearGradient id="SVGID_1_" gradientUnits="userSpaceOnUse" x1="46.8137" y1="182.1618" x2="464.939" y2="182.1618">
			<stop  offset="0.2946" style="stop-color:#4A67A1"/>
			<stop  offset="0.8589" style="stop-color:#4A98A1"/>
		</linearGradient>
		<polygon class="st4" points="197.3,302.9 46.8,216 314.5,61.5 464.9,148.3 		"/>
		<ellipse class="st3" cx="96.6" cy="274.1" rx="21.5" ry="12.4"/>
		<g>
			
				<ellipse transform="matrix(0.3916 -0.9202 0.9202 0.3916 37.541 199.4001)" class="st5" cx="169.5" cy="71.3" rx="56" ry="31.7"/>
			
				<ellipse transform="matrix(0.3916 -0.9202 0.9202 0.3916 40.4378 206.9203)" class="st6" cx="176.7" cy="72.9" rx="56" ry="31.7"/>
			<path class="st7" d="M213.2,51.8c0,26.9-16.3,58.1-36.5,69.7V24.2C196.8,12.6,213.2,24.9,213.2,51.8z"/>
			
				<ellipse transform="matrix(0.3916 -0.9202 0.9202 0.3916 40.4377 206.9202)" class="st8" cx="176.7" cy="72.9" rx="47.3" ry="26.7"/>
			<path class="st9" d="M208.9,54.3c0,27-15.3,49.8-32.3,59.7v-82C191.7,21.5,208.9,29.5,208.9,54.3z"/>
			<path class="st10" d="M185.5,52.3c0,0-0.1,0-0.2,0c-0.3,0.3-0.8,0.2-1.2,0.4c1,0.6,1.1,7,1.1,7.3c0,0.3,1.3,10.2-10.8,15l0.1,2
				c0,0,8.8-4.2,10.5-7.6c0,0,2.5-2.9,2.5-7.5C187.5,57.2,188.1,53.4,185.5,52.3z"/>
			<path class="st10" d="M187.1,71.3c0,0-0.1,0-0.3,0c-0.4,0.3-0.9,0.2-1.3,0.5c1.1,0.7,1.3,8,1.3,8.3c0,0.3,1.5,11.6-12.3,17.1
				l0.1,2.3c0,0,10.1-4.7,12-8.7c0,0,2.8-3.3,2.8-8.5S190,72.5,187.1,71.3z"/>
			<path class="st11" d="M192.5,71.6c-1.6-1-4-1-7.3-0.1c2.6-2.6,4.6-5.1,5.9-7.7c1.3-2.6,2-5.2,2-7.8c0-3.1-0.9-5.2-2.8-6.2
				c-1.9-1-4.5-0.6-8,1.4l-5,3v-8l-3.9,2.2v8l-9.1,5.3v2.3l3-1.7c0.7-0.4,1.3-0.5,1.7-0.3c0.4,0.2,0.6,0.8,0.6,1.6v36.7
				c0,0.5-0.2,1-0.6,1.6c-0.4,0.6-1,1.1-1.9,1.6l-2.8,1.6v2.3l9.1-5.3v7.6l3.9-2.2v-7.6l4.4-2.5c2.7-1.6,5.2-3.6,7.3-6.1
				c2.1-2.5,3.7-4.8,4.6-7.1c0.9-2.3,1.4-4.6,1.4-6.8C194.9,74.7,194.1,72.7,192.5,71.6z M184.3,53.4c1.1-0.1,1.9,0.4,2.5,1.3
				c0.6,0.9,0.8,2.5,0.8,4.7c0,3.6-0.6,6.5-1.8,8.7c-1.2,2.3-2.8,4-4.8,5.1l-6.5,3.8V60.6c0-0.9,0.2-1.7,0.7-2.3
				c0.4-0.6,1.6-1.5,3.5-2.6C181.3,54.3,183.2,53.5,184.3,53.4z M187.3,89.6c-1.3,2.4-3.4,4.4-6.1,6L177,98c-0.9,0.5-1.6,0.7-2,0.5
				c-0.4-0.2-0.5-0.7-0.5-1.5V79.3l7.1-4.1c2.4-1.4,4.3-1.6,5.6-0.5c1.4,1,2,3.1,2,6.2C189.3,84.3,188.6,87.2,187.3,89.6z"/>
			<path class="st12" d="M192.5,71.6c-1.6-1-4-1-7.3-0.1c2.6-2.6,4.6-5.1,5.9-7.7c1.3-2.6,2-5.2,2-7.8c0-3.1-0.9-5.2-2.8-6.2
				c-1-0.6-2.3-0.6-3.9-0.2V41l-3.9,2.2v8c-0.1,0.1-0.2,0.1-0.3,0.2l-2.6,1.5v2.3c2.2-1.2,3.7-1.8,4.7-1.9c1.1-0.1,1.9,0.4,2.5,1.3
				c0.6,0.9,0.8,2.5,0.8,4.7c0,3.6-0.6,6.5-1.8,8.7c-1.2,2.3-2.8,4-4.8,5.1l-1.4,0.8v2.3l2-1.2c2.4-1.4,4.3-1.6,5.6-0.5
				c1.4,1,2,3.1,2,6.2c0,3.4-0.7,6.3-2,8.7c-1.3,2.4-3.4,4.4-6.1,6l-1.6,0.9v2.3l2-1.2c0.3-0.2,0.5-0.3,0.8-0.5v7.6l3.9-2.2v-8.3
				c0.9-0.8,1.8-1.7,2.6-2.6c2.1-2.5,3.7-4.8,4.6-7.1c0.9-2.3,1.4-4.6,1.4-6.8C194.9,74.6,194.1,72.6,192.5,71.6z"/>
			<polygon class="st10" points="173.3,48.6 170.3,47.5 170.3,54.8 173.3,56.6 			"/>
			<polygon class="st13" points="173.3,56.6 170.3,54.8 161.3,60.2 164.2,61.9 			"/>
			<polygon class="st10" points="161.3,60.2 161.3,62.6 164.2,64.2 164.2,61.9 			"/>
			<path class="st10" d="M167.3,62.4l0,38.5l1.6,1.1c0,0,0.7-0.4,0.6-1.6c-0.1-1.2,0-36.7,0-36.7S169.7,60.9,167.3,62.4z"/>
			<path class="st13" d="M164.2,105.4l-1.9-0.6c0,0,5-2.6,5-3.8l2.1,0.5C169.4,101.5,168.4,103.9,164.2,105.4z"/>
			<polygon class="st10" points="164.2,107.7 162.3,107 162.3,104.7 164.2,105.4 			"/>
			<polygon class="st13" points="170.3,47.5 174.9,45.4 177.2,46.4 173.3,48.6 			"/>
			<polygon class="st13" points="179.6,42.4 183.4,40.3 186.3,41 182.4,43.3 			"/>
			<polygon class="st13" points="177.1,51.2 179.6,49.8 182.4,51.3 177.2,54.4 			"/>
			<polygon class="st13" points="182.4,43.3 179.6,42.4 179.6,49.8 182.4,51.3 			"/>
			<polygon class="st10" points="173.3,102.4 173.3,110.1 171.3,109.5 171.3,103.6 			"/>
			<polygon class="st10" points="182.4,104.7 180.6,104.3 180.6,98.3 182.4,97.1 			"/>
			<polygon class="st5" points="156.2,125 151,123.9 153.2,123.7 			"/>
			<path class="st5" d="M186.5,18.4l8.9,1.9c0,0-3-0.5-3.8-0.5C190.9,19.9,186.5,18.4,186.5,18.4z"/>
		</g>
		<g>
			
				<ellipse transform="matrix(0.3916 -0.9202 0.9202 0.3916 123.6971 303.1355)" class="st5" cx="291.1" cy="58" rx="56" ry="31.7"/>
			
				<ellipse transform="matrix(0.3916 -0.9202 0.9202 0.3916 126.5936 310.6555)" class="st6" cx="298.2" cy="59.6" rx="56" ry="31.7"/>
			<path class="st7" d="M334.7,38.5c0,26.9-16.3,58.1-36.5,69.7V10.9C318.4-0.7,334.7,11.7,334.7,38.5z"/>
			
				<ellipse transform="matrix(0.3916 -0.9202 0.9202 0.3916 126.5939 310.6557)" class="st8" cx="298.2" cy="59.6" rx="47.3" ry="26.7"/>
			<path class="st9" d="M330.5,41c0,27-15.3,49.8-32.3,59.7v-82C313.3,8.2,330.5,16.2,330.5,41z"/>
			<path class="st10" d="M307,39c0,0-0.1,0-0.2,0c-0.3,0.3-0.8,0.2-1.2,0.4c1,0.6,1.1,7,1.1,7.3c0,0.3,1.3,10.2-10.8,15l0.1,2
				c0,0,8.8-4.2,10.5-7.6c0,0,2.5-2.9,2.5-7.5C309,44,309.6,40.1,307,39z"/>
			<path class="st10" d="M308.6,58c0,0-0.1,0-0.3,0c-0.4,0.3-0.9,0.2-1.3,0.5c1.1,0.7,1.3,8,1.3,8.3c0,0.3,1.5,11.6-12.3,17.1
				l0.1,2.3c0,0,10.1-4.7,12-8.7c0,0,2.8-3.3,2.8-8.5C310.8,63.7,311.5,59.3,308.6,58z"/>
			<path class="st11" d="M314,58.4c-1.6-1-4-1-7.3-0.1c2.6-2.6,4.6-5.1,5.9-7.7c1.3-2.6,2-5.2,2-7.8c0-3.1-0.9-5.2-2.8-6.2
				c-1.9-1-4.5-0.6-8,1.4l-5,3v-8l-3.9,2.2v8l-9.1,5.3v2.3l3-1.7c0.7-0.4,1.3-0.5,1.7-0.3c0.4,0.2,0.6,0.8,0.6,1.6v36.7
				c0,0.5-0.2,1-0.6,1.6c-0.4,0.6-1,1.1-1.9,1.6l-2.8,1.6v2.3l9.1-5.3v7.6l3.9-2.2v-7.6l4.4-2.5c2.7-1.6,5.2-3.6,7.3-6.1
				c2.1-2.5,3.7-4.8,4.6-7.1c0.9-2.3,1.4-4.6,1.4-6.8C316.4,61.4,315.6,59.4,314,58.4z M305.8,40.1c1.1-0.1,1.9,0.4,2.5,1.3
				c0.6,0.9,0.8,2.5,0.8,4.7c0,3.6-0.6,6.5-1.8,8.7c-1.2,2.3-2.8,4-4.8,5.1l-6.5,3.8V47.4c0-0.9,0.2-1.7,0.7-2.3
				c0.4-0.6,1.6-1.5,3.5-2.6C302.8,41,304.7,40.2,305.8,40.1z M308.8,76.4c-1.3,2.4-3.4,4.4-6.1,6l-4.2,2.4c-0.9,0.5-1.6,0.7-2,0.5
				c-0.4-0.2-0.5-0.7-0.5-1.5V66l7.1-4.1c2.4-1.4,4.3-1.6,5.6-0.5c1.4,1,2,3.1,2,6.2C310.8,71.1,310.1,74,308.8,76.4z"/>
			<path class="st12" d="M314,58.3c-1.6-1-4-1-7.3-0.1c2.6-2.6,4.6-5.1,5.9-7.7c1.3-2.6,2-5.2,2-7.8c0-3.1-0.9-5.2-2.8-6.2
				c-1-0.6-2.3-0.6-3.9-0.2v-8.6L304,30v8c-0.1,0.1-0.2,0.1-0.3,0.2l-2.6,1.5v2.3c2.2-1.2,3.7-1.8,4.7-1.9c1.1-0.1,1.9,0.4,2.5,1.3
				c0.6,0.9,0.8,2.5,0.8,4.7c0,3.6-0.6,6.5-1.8,8.7c-1.2,2.3-2.8,4-4.8,5.1l-1.4,0.8V63l2-1.2c2.4-1.4,4.3-1.6,5.6-0.5
				c1.4,1,2,3.1,2,6.2c0,3.4-0.7,6.3-2,8.7c-1.3,2.4-3.4,4.4-6.1,6l-1.6,0.9v2.3l2-1.2c0.3-0.2,0.5-0.3,0.8-0.5v7.6l3.9-2.2v-8.3
				c0.9-0.8,1.8-1.7,2.6-2.6c2.1-2.5,3.7-4.8,4.6-7.1c0.9-2.3,1.4-4.6,1.4-6.8C316.4,61.3,315.6,59.3,314,58.3z"/>
			<polygon class="st10" points="294.9,35.3 291.8,34.3 291.8,41.5 294.9,43.3 			"/>
			<polygon class="st13" points="294.9,43.3 291.8,41.5 282.8,46.9 285.8,48.6 			"/>
			<polygon class="st10" points="282.8,46.9 282.8,49.3 285.8,50.9 285.8,48.6 			"/>
			<path class="st10" d="M288.8,49.2l0,38.5l1.6,1.1c0,0,0.7-0.4,0.6-1.6c-0.1-1.2,0-36.7,0-36.7S291.2,47.6,288.8,49.2z"/>
			<path class="st13" d="M285.8,92.1l-1.9-0.6c0,0,5-2.6,5-3.8l2.1,0.5C290.9,88.2,289.9,90.6,285.8,92.1z"/>
			<polygon class="st10" points="285.8,94.4 283.9,93.7 283.9,91.5 285.8,92.1 			"/>
			<polygon class="st13" points="291.8,34.3 296.4,32.1 298.8,33.1 294.9,35.3 			"/>
			<polygon class="st13" points="301.1,29.1 304.9,27.1 307.8,27.8 303.9,30 			"/>
			<polygon class="st13" points="298.7,37.9 301.1,36.5 304,38 298.8,41.1 			"/>
			<polygon class="st13" points="304,30 301.1,29.1 301.1,36.5 304,38 			"/>
			<polygon class="st10" points="294.9,89.2 294.9,96.8 292.9,96.2 292.9,90.3 			"/>
			<polygon class="st10" points="304,91.5 302.1,91 302.1,85 304,83.8 			"/>
			<polygon class="st5" points="277.7,111.7 272.5,110.6 274.7,110.4 			"/>
			<path class="st5" d="M308.1,5.2L317,7c0,0-3-0.5-3.8-0.5C312.4,6.6,308.1,5.2,308.1,5.2z"/>
		</g>
		<g>
			
				<ellipse transform="matrix(0.3916 -0.9202 0.9202 0.3916 -22.2288 318.4362)" class="st5" cx="229.7" cy="176" rx="56" ry="31.7"/>
			
				<ellipse transform="matrix(0.3916 -0.9202 0.9202 0.3916 -19.3324 325.956)" class="st6" cx="236.8" cy="177.6" rx="56" ry="31.7"/>
			<path class="st7" d="M273.3,156.5c0,26.9-16.3,58.1-36.5,69.7v-97.3C257,117.3,273.3,129.7,273.3,156.5z"/>
			
				<ellipse transform="matrix(0.3916 -0.9202 0.9202 0.3916 -19.3325 325.9557)" class="st8" cx="236.8" cy="177.6" rx="47.3" ry="26.7"/>
			<path class="st9" d="M269.1,159c0,27-15.3,49.8-32.3,59.7v-82C251.9,126.2,269.1,134.2,269.1,159z"/>
			<path class="st10" d="M245.6,157c0,0-0.1,0-0.2,0c-0.3,0.3-0.8,0.2-1.2,0.4c1,0.6,1.1,7,1.1,7.3c0,0.3,1.3,10.2-10.8,15l0.1,2
				c0,0,8.8-4.2,10.5-7.6c0,0,2.5-2.9,2.5-7.5C247.6,161.9,248.2,158.1,245.6,157z"/>
			<path class="st10" d="M247.2,176c0,0-0.1,0-0.3,0c-0.4,0.3-0.9,0.2-1.3,0.5c1.1,0.7,1.3,8,1.3,8.3c0,0.3,1.5,11.6-12.3,17.1
				l0.1,2.3c0,0,10.1-4.7,12-8.7c0,0,2.8-3.3,2.8-8.5C249.4,181.7,250.1,177.2,247.2,176z"/>
			<path class="st11" d="M252.6,176.4c-1.6-1-4-1-7.3-0.1c2.6-2.6,4.6-5.1,5.9-7.7s2-5.2,2-7.8c0-3.1-0.9-5.2-2.8-6.2
				c-1.9-1-4.5-0.6-8,1.4l-5,3v-8l-3.9,2.2v8l-9.1,5.3v2.3l3-1.7c0.7-0.4,1.3-0.5,1.7-0.3c0.4,0.2,0.6,0.8,0.6,1.6v36.7
				c0,0.5-0.2,1-0.6,1.6c-0.4,0.6-1,1.1-1.9,1.6l-2.8,1.6v2.3l9.1-5.3v7.6l3.9-2.2v-7.6l4.4-2.5c2.7-1.6,5.2-3.6,7.3-6.1
				c2.1-2.5,3.7-4.8,4.6-7.1c0.9-2.3,1.4-4.6,1.4-6.8C255.1,179.4,254.2,177.4,252.6,176.4z M244.4,158.1c1.1-0.1,1.9,0.4,2.5,1.3
				c0.6,0.9,0.8,2.5,0.8,4.7c0,3.6-0.6,6.5-1.8,8.7c-1.2,2.3-2.8,4-4.8,5.1l-6.5,3.8v-16.3c0-0.9,0.2-1.7,0.7-2.3
				c0.4-0.6,1.6-1.5,3.5-2.6C241.5,159,243.3,158.2,244.4,158.1z M247.4,194.3c-1.3,2.4-3.4,4.4-6.1,6l-4.2,2.4
				c-0.9,0.5-1.6,0.7-2,0.5c-0.4-0.2-0.5-0.7-0.5-1.5V184l7.1-4.1c2.4-1.4,4.3-1.6,5.6-0.5c1.4,1,2,3.1,2,6.2
				C249.4,189.1,248.7,192,247.4,194.3z"/>
			<path class="st12" d="M252.6,176.3c-1.6-1-4-1-7.3-0.1c2.6-2.6,4.6-5.1,5.9-7.7c1.3-2.6,2-5.2,2-7.8c0-3.1-0.9-5.2-2.8-6.2
				c-1-0.6-2.3-0.6-3.9-0.2v-8.6l-3.9,2.2v8c-0.1,0.1-0.2,0.1-0.3,0.2l-2.6,1.5v2.3c2.2-1.2,3.7-1.8,4.7-1.9
				c1.1-0.1,1.9,0.4,2.5,1.3c0.6,0.9,0.8,2.5,0.8,4.7c0,3.6-0.6,6.5-1.8,8.7c-1.2,2.3-2.8,4-4.8,5.1l-1.4,0.8v2.3l2-1.2
				c2.4-1.4,4.3-1.6,5.6-0.5c1.4,1,2,3.1,2,6.2c0,3.4-0.7,6.3-2,8.7c-1.3,2.4-3.4,4.4-6.1,6l-1.6,0.9v2.3l2-1.2
				c0.3-0.2,0.5-0.3,0.8-0.5v7.6l3.9-2.2v-8.3c0.9-0.8,1.8-1.7,2.6-2.6c2.1-2.5,3.7-4.8,4.6-7.1c0.9-2.3,1.4-4.6,1.4-6.8
				C255.1,179.3,254.2,177.3,252.6,176.3z"/>
			<polygon class="st10" points="233.5,153.3 230.4,152.2 230.4,159.5 233.5,161.3 			"/>
			<polygon class="st13" points="233.5,161.3 230.4,159.5 221.4,164.9 224.4,166.6 			"/>
			<polygon class="st10" points="221.4,164.9 221.4,167.3 224.4,168.9 224.4,166.6 			"/>
			<path class="st10" d="M227.4,167.2l0,38.5l1.6,1.1c0,0,0.7-0.4,0.6-1.6c-0.1-1.2,0-36.7,0-36.7S229.8,165.6,227.4,167.2z"/>
			<path class="st13" d="M224.4,210.1l-1.9-0.6c0,0,5-2.6,5-3.8l2.1,0.5C229.5,206.2,228.5,208.6,224.4,210.1z"/>
			<polygon class="st10" points="224.4,212.4 222.5,211.7 222.5,209.5 224.4,210.1 			"/>
			<polygon class="st13" points="230.4,152.2 235,150.1 237.4,151.1 233.5,153.3 			"/>
			<polygon class="st13" points="239.7,147.1 243.5,145.1 246.4,145.8 242.5,148 			"/>
			<polygon class="st13" points="237.3,155.9 239.7,154.5 242.6,156 237.4,159.1 			"/>
			<polygon class="st13" points="242.6,148 239.7,147.1 239.7,154.5 242.6,156 			"/>
			<polygon class="st10" points="233.5,207.2 233.5,214.8 231.5,214.2 231.5,208.3 			"/>
			<polygon class="st10" points="242.6,209.5 240.7,209 240.7,203 242.6,201.8 			"/>
			<polygon class="st5" points="216.4,229.7 211.1,228.6 213.3,228.4 			"/>
			<path class="st5" d="M246.7,123.1l8.9,1.9c0,0-3-0.5-3.8-0.5C251,124.6,246.7,123.1,246.7,123.1z"/>
		</g>
		<linearGradient id="SVGID_2_" gradientUnits="userSpaceOnUse" x1="102.5951" y1="314.8604" x2="408.8457" y2="99.1828">
			<stop  offset="0.2946" style="stop-color:#4A67A1"/>
			<stop  offset="0.8589" style="stop-color:#4A98A1"/>
			<stop  offset="0.9994" style="stop-color:#4A98A1"/>
		</linearGradient>
		<path class="st14" d="M198.1,218.6l80.1-52.1c0,0,22.8,42.5-9.2,59.7C237,243.5,201.1,256.8,198.1,218.6z"/>
	</g>
</g>
<g id="Layer_1">
</g>
</svg>
