<?xml version="1.0" encoding="utf-8"?>
<!-- Generator: Adobe Illustrator 24.3.0, SVG Export Plug-In . SVG Version: 6.00 Build 0)  -->
<svg version="1.1" xmlns="http://www.w3.org/2000/svg" xmlns:xlink="http://www.w3.org/1999/xlink" x="0px" y="0px"
	 viewBox="0 0 500 347" style="enable-background:new 0 0 500 347;" xml:space="preserve">
<style type="text/css">
	.st0{fill:none;stroke:#B3B3B3;stroke-width:2.8947;stroke-linecap:round;stroke-linejoin:round;stroke-miterlimit:10;}
	.st1{fill:#E6E6E6;}
	.st2{fill:#666666;stroke:#B3B3B3;stroke-width:0.75;stroke-linecap:round;stroke-linejoin:round;stroke-miterlimit:10;}
	.st3{fill:#55BCB3;}
	.st4{fill:#76D3C7;}
	.st5{opacity:0.5;fill:#5C3249;}
	.st6{clip-path:url(#SVGID_2_);}
	.st7{fill:#FFD057;}
	.st8{fill:#F5B438;}
	.st9{fill:#FFDE77;}
	.st10{fill:#FFFFFF;}
</style>
<g id="_x39_8">
	<g>
		<g>
			<g>
				<path class="st0" d="M393.8,332.5c-1.5,8.8-9.8,14.8-18.7,13.4l-105.7-17.4c-8.8-1.5-14.8-9.8-13.4-18.7l39-236.4
					c1.5-8.8,9.8-14.8,18.7-13.4l105.7,17.4c8.8,1.5,14.8,9.8,13.4,18.7L393.8,332.5z"/>
				<path class="st1" d="M388.3,331.6c-1.5,8.8-9.8,14.8-18.7,13.4L264,327.5c-8.8-1.5-14.8-9.8-13.4-18.7l39-236.4
					c1.5-8.8,9.8-14.8,18.7-13.4l105.7,17.4c8.8,1.5,14.8,9.8,13.4,18.7L388.3,331.6z"/>
				<path class="st2" d="M373.8,80c-0.2,1.3-1.4,2.2-2.7,2L347.1,78c-1.3-0.2-2.2-1.4-2-2.7l0,0c0.2-1.3,1.4-2.2,2.7-2l23.9,3.9
					C373.1,77.4,374,78.7,373.8,80L373.8,80z"/>
				<path class="st0" d="M308.4,317.1c-1,6.3,3.2,12.2,9.5,13.2l0,0c6.3,1,12.2-3.2,13.2-9.5l0,0c1-6.3-3.2-12.2-9.5-13.2l0,0
					C315.3,306.6,309.4,310.8,308.4,317.1L308.4,317.1z"/>
			</g>
			<g>
				<g>
					
						<rect x="231.7" y="136.6" transform="matrix(0.1626 -0.9867 0.9867 0.1626 89.4335 500.6515)" class="st3" width="216" height="122.1"/>
					<polygon class="st4" points="382.3,314.1 359.5,310.4 297,81.1 417.5,101 					"/>
				</g>
			</g>
		</g>
	</g>
	<g>
		<g>
			<g>
				<path class="st5" d="M337.1,203.4c-0.2,1.6-1.8,2.8-3.4,2.5l0,0c-1.6-0.2-2.8-1.8-2.5-3.4l11.8-81.5c0.2-1.6,1.8-2.8,3.4-2.5
					l0,0c1.6,0.2,2.8,1.8,2.5,3.4L337.1,203.4z"/>
				<path class="st5" d="M333.5,186.6l-2.3,15.9c-0.2,1.6,0.9,3.2,2.5,3.4c1.6,0.2,3.2-0.9,3.4-2.5l2.6-17.8
					C337.7,185.9,335.6,186.3,333.5,186.6z"/>
			</g>
			<g>
				<defs>
					<polygon id="SVGID_1_" points="282.8,73.3 238.5,284.3 324.5,298.2 353.3,93.2 					"/>
				</defs>
				<clipPath id="SVGID_2_">
					<use xlink:href="#SVGID_1_"  style="overflow:visible;"/>
				</clipPath>
				<g class="st6">
					
						<ellipse transform="matrix(0.7071 -0.7071 0.7071 0.7071 -15.0681 290.1979)" class="st7" cx="342.8" cy="163.3" rx="35.9" ry="35.9"/>
					<g>
						<path class="st8" d="M363.1,192.8l-49-7.9c0.9,1.1,1.8,2.2,2.8,3.2l42.6,6.9C360.8,194.4,362,193.6,363.1,192.8z"/>
						<path class="st8" d="M307.6,170.4c0.2,1,0.4,2,0.7,2.9l64,10.4c0.6-0.8,1.1-1.7,1.6-2.5L307.6,170.4z"/>
						<path class="st8" d="M309.8,177.5c0.4,1,0.9,2.1,1.5,3l55.9,9c0.8-0.8,1.6-1.6,2.4-2.4L309.8,177.5z"/>
						<path class="st8" d="M307.4,159.7l70.3,11.4c0.2-0.7,0.3-1.4,0.4-2.1c0-0.2,0.1-0.4,0.1-0.6L307.9,157L307.4,159.7z"/>
						<path class="st8" d="M365.5,135.6c-4.7-3.9-10.5-6.6-17-7.7c-6.5-1.1-12.9-0.3-18.6,1.9L365.5,135.6z"/>
						<path class="st8" d="M320.7,135l52,8.4c-0.7-1.1-1.5-2.2-2.4-3.2l-46.3-7.5C322.8,133.5,321.7,134.2,320.7,135z"/>
						<path class="st8" d="M322.6,193c4.2,2.9,9.1,4.9,14.4,5.7c5.4,0.9,10.6,0.5,15.5-0.9L322.6,193z"/>
						<path class="st8" d="M317,138.3c-0.8,0.8-1.5,1.6-2.2,2.4l61.5,10c-0.4-1-0.8-2-1.3-3L317,138.3z"/>
						<path class="st8" d="M306.9,163.6c0,0.9,0,1.9,0.1,2.8l68.7,11.1c0.4-0.9,0.7-1.7,1-2.6L306.9,163.6z"/>
						<path class="st8" d="M309.2,150.5c-0.2,0.5-0.4,1.1-0.6,1.6l-0.2,1.1l70.1,11.3c0-0.9,0-1.9,0-2.8L309.2,150.5z"/>
						<path class="st8" d="M312.3,144.3c-0.5,0.8-1,1.7-1.5,2.6l67.3,10.9c-0.2-1-0.3-1.9-0.6-2.9L312.3,144.3z"/>
					</g>
					
						<ellipse transform="matrix(0.9021 -0.4315 0.4315 0.9021 -37.0619 161.4026)" class="st9" cx="337.2" cy="162.4" rx="35.9" ry="35.9"/>
					
						<ellipse transform="matrix(0.9401 -0.341 0.341 0.9401 -35.1643 124.7356)" class="st7" cx="337.2" cy="162.4" rx="30" ry="30"/>
					<path class="st8" d="M310.8,158.1c2.6-15.8,17.1-26.8,32.8-25.1c-0.5-0.1-1.1-0.2-1.6-0.3c-16.4-2.7-31.8,8.5-34.4,24.9
						c-2.7,16.4,8.5,31.8,24.9,34.4c0.5,0.1,1.1,0.2,1.6,0.2C318.5,188.9,308.2,173.9,310.8,158.1z"/>
					<path class="st8" d="M350.7,162.3c-1.9-1.8-4.4-3.2-7.5-4l0.6-3.5c1.2,0.3,2.2,0.7,3,1.2c1.1,0.7,2.3,1.6,3.6,2.8l6-6.3
						c-1.2-1.6-3-3.1-5.4-4.4c-1.9-1-3.8-1.8-5.7-2.2l0.6-3.7l-3.6-0.6l-0.6,3.8c-1.7-0.1-3.3,0.1-4.8,0.6c-2.3,0.6-4.2,1.7-5.7,3.1
						c-1.5,1.4-2.4,3.1-2.7,5.1c-0.4,2.5,0.4,4.6,2.3,6.5c1.7,1.7,4.4,3.1,7.9,4.2l-0.6,3.7c-0.9-0.3-1.9-0.7-3.1-1.2
						c-1.6-0.8-2.9-1.7-3.7-2.7L324,171c1.1,1.9,2.9,3.5,5.2,4.9c2.2,1.3,4.6,2.2,7.1,2.7l-0.6,3.9l3.6,0.6l0.7-4.1
						c1.6,0,3.1-0.2,4.5-0.6c2.4-0.7,4.3-1.8,5.9-3.3c1.5-1.5,2.5-3.3,2.8-5.3C353.6,166.7,352.8,164.3,350.7,162.3z M339,157
						c-0.5-0.3-0.7-0.7-0.6-1.2c0.1-0.8,0.8-1.3,1.9-1.4l-0.5,2.9C339.4,157.2,339.2,157.1,339,157z M341.8,168.7
						c-0.1,0-0.2,0.1-0.3,0.1l0.5-2.8c0.2,0.1,0.4,0.2,0.5,0.2c0.4,0.2,0.6,0.6,0.5,1.1C342.9,167.9,342.5,168.4,341.8,168.7z"/>
					<path class="st9" d="M347.8,161.8c-1.9-1.8-4.4-3.2-7.5-4l0.6-3.5c1.2,0.3,2.2,0.7,3,1.2c1.1,0.7,2.3,1.6,3.6,2.8l6-6.3
						c-1.2-1.6-3-3.1-5.4-4.4c-1.9-1-3.8-1.8-5.7-2.2l0.6-3.7l-3.6-0.6l-0.6,3.8c-1.7-0.1-3.3,0.1-4.8,0.6c-2.3,0.6-4.2,1.7-5.7,3.1
						c-1.5,1.4-2.4,3.1-2.7,5.1c-0.4,2.5,0.4,4.6,2.3,6.5c1.7,1.7,4.4,3.1,7.9,4.2l-0.6,3.7c-0.9-0.3-1.9-0.7-3.1-1.2
						c-1.6-0.8-2.9-1.7-3.7-2.7l-7.1,6.3c1.1,1.9,2.9,3.5,5.2,4.9c2.2,1.3,4.6,2.2,7.1,2.7l-0.6,3.9l3.6,0.6l0.7-4.1
						c1.6,0,3.1-0.2,4.5-0.6c2.4-0.7,4.3-1.8,5.9-3.3c1.5-1.5,2.5-3.3,2.8-5.3C350.6,166.2,349.8,163.8,347.8,161.8z M336,156.5
						c-0.5-0.3-0.7-0.7-0.6-1.2c0.1-0.8,0.8-1.3,1.9-1.4l-0.5,2.9C336.5,156.7,336.2,156.6,336,156.5z M338.9,168.2
						c-0.1,0-0.2,0.1-0.3,0.1l0.5-2.8c0.2,0.1,0.4,0.2,0.5,0.2c0.4,0.2,0.6,0.6,0.5,1.1C340,167.4,339.6,167.9,338.9,168.2z"/>
				</g>
			</g>
		</g>
		<g>
			<circle class="st7" cx="110.7" cy="210" r="35.9"/>
			<g>
				<path class="st8" d="M132.9,238.2l-49.4-4.8c0.9,1.1,1.9,2.1,3,3.1l43,4.2C130.7,239.9,131.8,239.1,132.9,238.2z"/>
				<path class="st8" d="M76.1,219.4c0.3,1,0.6,1.9,0.9,2.9l64.5,6.2c0.5-0.9,1-1.7,1.4-2.6L76.1,219.4z"/>
				<path class="st8" d="M78.8,226.3c0.5,1,1.1,2,1.7,2.9l56.4,5.4c0.8-0.8,1.5-1.7,2.2-2.6L78.8,226.3z"/>
				<path class="st8" d="M75.2,208.8l70.9,6.9c0.1-0.7,0.2-1.4,0.3-2.1c0-0.2,0-0.4,0-0.6l-71-6.9L75.2,208.8z"/>
				<path class="st8" d="M131.7,180.9c-5-3.6-10.9-6-17.5-6.6c-6.6-0.6-12.9,0.5-18.4,3.1L131.7,180.9z"/>
				<path class="st8" d="M86.9,183.2l52.4,5.1c-0.8-1.1-1.7-2.1-2.6-3L90,180.8C88.9,181.5,87.9,182.4,86.9,183.2z"/>
				<path class="st8" d="M92.5,240.9c4.4,2.6,9.4,4.3,14.8,4.8c5.4,0.5,10.6-0.2,15.4-1.9L92.5,240.9z"/>
				<path class="st8" d="M83.4,186.8c-0.7,0.8-1.4,1.7-2,2.6l62.1,6c-0.4-1-0.9-2-1.5-2.9L83.4,186.8z"/>
				<path class="st8" d="M75,212.6c0.1,0.9,0.2,1.9,0.3,2.8l69.3,6.7c0.3-0.9,0.6-1.8,0.8-2.7L75,212.6z"/>
				<path class="st8" d="M76.4,199.4c-0.2,0.5-0.3,1.1-0.5,1.6l-0.1,1.1l70.7,6.8c0-0.9-0.1-1.9-0.2-2.8L76.4,199.4z"/>
				<path class="st8" d="M79.1,193c-0.5,0.9-0.9,1.7-1.3,2.7l67.9,6.6c-0.2-1-0.5-1.9-0.8-2.8L79.1,193z"/>
			</g>
			
				<ellipse transform="matrix(0.1436 -0.9896 0.9896 0.1436 -117.2853 283.4578)" class="st9" cx="105.1" cy="209.5" rx="35.9" ry="35.9"/>
			
				<ellipse transform="matrix(0.3157 -0.9489 0.9489 0.3157 -126.8369 243.1174)" class="st7" cx="105.1" cy="209.5" rx="30" ry="30"/>
			<path class="st8" d="M78.5,206.9c1.5-16,15.3-27.8,31.2-27.1c-0.5-0.1-1.1-0.1-1.6-0.2c-16.5-1.6-31.2,10.5-32.8,27
				c-1.6,16.5,10.5,31.2,27,32.8c0.5,0.1,1.1,0.1,1.6,0.1C88.2,237.1,76.9,222.9,78.5,206.9z"/>
			<path class="st8" d="M118.6,208.5c-2-1.7-4.6-2.9-7.7-3.6l0.3-3.5c1.2,0.2,2.2,0.5,3.1,1c1.2,0.6,2.4,1.5,3.8,2.6l5.6-6.6
				c-1.3-1.5-3.2-2.9-5.6-4c-2-0.9-3.9-1.5-5.9-1.9l0.4-3.7l-3.6-0.3l-0.4,3.8c-1.7,0-3.3,0.3-4.8,0.9c-2.2,0.8-4,1.9-5.5,3.5
				c-1.4,1.5-2.2,3.3-2.4,5.3c-0.2,2.5,0.6,4.6,2.7,6.3c1.8,1.6,4.6,2.8,8.1,3.7l-0.4,3.7c-0.9-0.2-2-0.6-3.1-1
				c-1.7-0.7-3-1.5-3.9-2.5l-6.7,6.8c1.2,1.8,3.1,3.3,5.5,4.5c2.3,1.2,4.7,1.9,7.2,2.2l-0.4,3.9l3.6,0.3l0.4-4.1
				c1.6-0.1,3.1-0.4,4.5-0.9c2.3-0.8,4.2-2.1,5.6-3.7c1.4-1.6,2.2-3.5,2.4-5.5C121.8,212.8,120.8,210.4,118.6,208.5z M106.6,204
				c-0.5-0.2-0.8-0.6-0.7-1.1c0.1-0.8,0.7-1.3,1.8-1.5l-0.3,2.9C107,204.1,106.7,204,106.6,204z M110.1,215.5
				c-0.1,0-0.2,0.1-0.3,0.1l0.3-2.9c0.2,0.1,0.4,0.1,0.5,0.2c0.4,0.2,0.6,0.5,0.6,1.1C111.2,214.7,110.8,215.2,110.1,215.5z"/>
			<path class="st9" d="M115.6,208.2c-2-1.7-4.6-2.9-7.7-3.6l0.3-3.5c1.2,0.2,2.2,0.5,3.1,1c1.2,0.6,2.4,1.5,3.8,2.6l5.6-6.6
				c-1.3-1.5-3.2-2.9-5.6-4c-2-0.9-3.9-1.5-5.9-1.9l0.4-3.7l-3.6-0.3l-0.4,3.8c-1.7,0-3.3,0.3-4.8,0.9c-2.2,0.8-4,1.9-5.5,3.5
				c-1.4,1.5-2.2,3.3-2.4,5.3c-0.2,2.5,0.6,4.6,2.7,6.3c1.8,1.6,4.6,2.8,8.1,3.7l-0.4,3.7c-0.9-0.2-2-0.6-3.1-1
				c-1.7-0.7-3-1.5-3.9-2.5l-6.7,6.8c1.2,1.8,3.1,3.3,5.5,4.5c2.3,1.2,4.7,1.9,7.2,2.2l-0.4,3.9l3.6,0.3l0.4-4.1
				c1.6-0.1,3.1-0.4,4.5-0.9c2.3-0.8,4.2-2.1,5.6-3.7c1.4-1.6,2.2-3.5,2.4-5.5C118.7,212.5,117.8,210.1,115.6,208.2z M103.6,203.7
				c-0.5-0.2-0.8-0.6-0.7-1.1c0.1-0.8,0.7-1.3,1.8-1.5l-0.3,2.9C104,203.8,103.7,203.8,103.6,203.7z M107.1,215.2
				c-0.1,0-0.2,0.1-0.3,0.1l0.3-2.9c0.2,0.1,0.4,0.1,0.5,0.2c0.4,0.2,0.6,0.5,0.6,1.1C108.2,214.4,107.8,214.9,107.1,215.2z"/>
		</g>
		<g>
			
				<ellipse transform="matrix(0.9257 -0.3784 0.3784 0.9257 -38.6271 65.6017)" class="st7" cx="147.6" cy="131.1" rx="35.9" ry="35.9"/>
			<g>
				<path class="st8" d="M183.2,135.9l-38.8,30.9c1.4,0.1,2.8,0.2,4.3,0.1l33.8-26.9C182.7,138.7,183,137.3,183.2,135.9z"/>
				<path class="st8" d="M129.2,161.9c0.9,0.5,1.7,1,2.6,1.4l50.7-40.4c-0.2-1-0.5-1.9-0.8-2.9L129.2,161.9z"/>
				<path class="st8" d="M136,165c1.1,0.4,2.2,0.7,3.2,0.9l44.3-35.3c0-1.1-0.1-2.3-0.2-3.4L136,165z"/>
				<path class="st8" d="M121.2,154.9l55.7-44.4c-0.4-0.6-0.8-1.2-1.3-1.7c-0.1-0.2-0.3-0.3-0.4-0.5l-55.8,44.4L121.2,154.9z"/>
				<path class="st8" d="M142.4,95.6c-6.1,0.9-12,3.3-17.2,7.4s-8.9,9.3-11.1,15.1L142.4,95.6z"/>
				<path class="st8" d="M111.9,128.4L153,95.6c-1.3-0.2-2.6-0.3-4-0.4l-36.7,29.2C112.1,125.8,112,127.1,111.9,128.4z"/>
				<path class="st8" d="M156,166c4.9-1.2,9.7-3.4,14-6.8s7.5-7.5,9.8-12.1L156,166z"/>
				<path class="st8" d="M111.8,133.4c0.1,1.1,0.2,2.2,0.4,3.3l48.8-38.9c-1-0.4-2-0.8-3.1-1.1L111.8,133.4z"/>
				<path class="st8" d="M123.7,157.8c0.7,0.6,1.4,1.2,2.2,1.8l54.4-43.4c-0.4-0.9-0.8-1.7-1.3-2.5L123.7,157.8z"/>
				<path class="st8" d="M115.6,147.3c0.3,0.5,0.5,1,0.8,1.5l0.7,0.8l55.5-44.3c-0.7-0.7-1.4-1.3-2.1-1.9L115.6,147.3z"/>
				<path class="st8" d="M113.1,140.9c0.3,0.9,0.6,1.9,0.9,2.8l53.3-42.5c-0.8-0.5-1.7-1.1-2.5-1.5L113.1,140.9z"/>
			</g>
			
				<ellipse transform="matrix(0.3818 -0.9242 0.9242 0.3818 -35.8572 215.5899)" class="st9" cx="143.2" cy="134.6" rx="35.9" ry="35.9"/>
			
				<ellipse transform="matrix(0.2838 -0.9589 0.9589 0.2838 -26.4794 233.7484)" class="st7" cx="143.2" cy="134.6" rx="30" ry="30"/>
			<path class="st8" d="M122.3,151.3c-10-12.5-8.3-30.6,3.5-41.2c-0.4,0.3-0.9,0.6-1.3,1c-13,10.3-15.1,29.2-4.8,42.2
				c10.3,13,29.2,15.1,42.2,4.8c0.4-0.3,0.8-0.7,1.2-1C150.3,166.3,132.3,163.8,122.3,151.3z"/>
			<path class="st8" d="M152.2,124.5c-2.6,0.2-5.3,1.1-8,2.8l-2.2-2.7c1-0.7,2-1.2,2.9-1.4c1.2-0.4,2.7-0.6,4.5-0.7l-0.6-8.6
				c-2-0.2-4.3,0.1-6.9,1c-2.1,0.7-3.9,1.6-5.5,2.7l-2.3-2.9l-2.8,2.3l2.4,3c-1.2,1.2-2.1,2.5-2.8,4c-1.1,2.1-1.6,4.2-1.5,6.3
				c0,2.1,0.7,3.9,1.9,5.5c1.6,2,3.7,2.8,6.3,2.7c2.4-0.1,5.2-1.1,8.4-3l2.3,2.9c-0.8,0.5-1.8,1-3,1.4c-1.7,0.7-3.2,1-4.5,0.9
				l-0.1,9.5c2.1,0.4,4.5,0.2,7.1-0.6c2.5-0.7,4.7-1.9,6.7-3.4l2.5,3.1l2.8-2.3l-2.6-3.3c1.1-1.2,1.9-2.4,2.6-3.8
				c1.1-2.2,1.6-4.4,1.5-6.6c-0.1-2.2-0.8-4-2.1-5.6C157.5,125.4,155.1,124.3,152.2,124.5z M140.4,129.6c-0.5,0.2-1,0.1-1.3-0.3
				c-0.5-0.6-0.4-1.4,0.2-2.3l1.8,2.3C140.9,129.4,140.6,129.6,140.4,129.6z M151,135.4c0,0.1-0.1,0.2-0.1,0.3l-1.8-2.3
				c0.2-0.1,0.4-0.2,0.5-0.2c0.4-0.2,0.8,0,1.1,0.4C151.2,134.1,151.3,134.7,151,135.4z"/>
			<path class="st9" d="M149.9,126.4c-2.6,0.2-5.3,1.1-8,2.8l-2.2-2.7c1-0.7,2-1.2,2.9-1.4c1.2-0.4,2.7-0.6,4.5-0.7l-0.6-8.6
				c-2-0.2-4.3,0.1-6.9,1c-2.1,0.7-3.9,1.6-5.5,2.7l-2.3-2.9l-2.8,2.3l2.4,3c-1.2,1.2-2.1,2.5-2.8,4c-1.1,2.1-1.6,4.2-1.5,6.3
				c0,2.1,0.7,3.9,1.9,5.5c1.6,2,3.7,2.8,6.3,2.7c2.4-0.1,5.2-1.1,8.4-3l2.3,2.9c-0.8,0.5-1.8,1-3,1.4c-1.7,0.7-3.2,1-4.5,0.9
				l-0.1,9.5c2.1,0.4,4.5,0.2,7.1-0.6c2.5-0.7,4.7-1.9,6.7-3.4l2.5,3.1l2.8-2.3l-2.6-3.3c1.1-1.2,1.9-2.4,2.6-3.8
				c1.1-2.2,1.6-4.4,1.5-6.6c-0.1-2.2-0.8-4-2.1-5.6C155.1,127.3,152.7,126.2,149.9,126.4z M138.1,131.5c-0.5,0.2-1,0.1-1.3-0.3
				c-0.5-0.6-0.4-1.4,0.2-2.3l1.8,2.3C138.5,131.3,138.2,131.5,138.1,131.5z M148.7,137.3c0,0.1-0.1,0.2-0.1,0.3l-1.8-2.3
				c0.2-0.1,0.4-0.2,0.5-0.2c0.4-0.2,0.8,0,1.1,0.4C148.8,136,148.9,136.6,148.7,137.3z"/>
		</g>
		<g>
			
				<ellipse transform="matrix(0.7071 -0.7071 0.7071 0.7071 -5.4761 197.9501)" class="st7" cx="236.2" cy="105.6" rx="35.9" ry="35.9"/>
			<g>
				<path class="st8" d="M251.5,138l-47-15.8c0.7,1.3,1.4,2.5,2.2,3.7l40.9,13.8C248.9,139.2,250.2,138.6,251.5,138z"/>
				<path class="st8" d="M200.4,106.8c0,1,0.1,2,0.2,3l61.4,20.7c0.7-0.7,1.4-1.5,2-2.2L200.4,106.8z"/>
				<path class="st8" d="M201.4,114.2c0.3,1.1,0.6,2.2,1,3.2l53.7,18.1c0.9-0.6,1.9-1.3,2.7-2L201.4,114.2z"/>
				<path class="st8" d="M201.9,96.3l67.5,22.7c0.3-0.7,0.5-1.3,0.7-2c0.1-0.2,0.1-0.4,0.2-0.6l-67.6-22.8L201.9,96.3z"/>
				<path class="st8" d="M263.2,82c-4-4.6-9.3-8.3-15.5-10.4c-6.2-2.1-12.6-2.4-18.7-1.1L263.2,82z"/>
				<path class="st8" d="M219,74.1l49.9,16.8c-0.5-1.2-1.2-2.4-1.8-3.5l-44.4-15C221.4,72.9,220.2,73.5,219,74.1z"/>
				<path class="st8" d="M211.5,131.6c3.7,3.5,8.2,6.3,13.3,8c5.1,1.7,10.4,2.2,15.4,1.7L211.5,131.6z"/>
				<path class="st8" d="M214.9,76.8c-0.9,0.6-1.7,1.3-2.5,2.1l59.1,19.9c-0.2-1.1-0.5-2.1-0.8-3.2L214.9,76.8z"/>
				<path class="st8" d="M200.8,100c-0.1,0.9-0.3,1.9-0.3,2.8l65.9,22.2c0.5-0.8,1-1.6,1.4-2.4L200.8,100z"/>
				<path class="st8" d="M205.2,87.5c-0.3,0.5-0.6,1-0.8,1.5l-0.3,1l67.3,22.7c0.2-0.9,0.3-1.8,0.5-2.8L205.2,87.5z"/>
				<path class="st8" d="M209.3,81.9c-0.6,0.7-1.3,1.5-1.9,2.3l64.6,21.8c0-1,0-2-0.1-2.9L209.3,81.9z"/>
			</g>
			
				<ellipse transform="matrix(0.3224 -0.9466 0.9466 0.3224 58.1887 288.8781)" class="st9" cx="230.9" cy="103.8" rx="35.9" ry="35.9"/>
			
				<ellipse transform="matrix(0.9714 -0.2373 0.2373 0.9714 -18.0359 57.7579)" class="st7" cx="230.9" cy="103.8" rx="30" ry="30"/>
			<path class="st8" d="M205.5,95.2c5.1-15.2,21.2-23.6,36.5-19.4c-0.5-0.2-1-0.4-1.5-0.6c-15.7-5.3-32.8,3.2-38.1,18.9
				s3.2,32.8,18.9,38.1c0.5,0.2,1,0.3,1.6,0.5C208.1,126.9,200.4,110.4,205.5,95.2z"/>
			<path class="st8" d="M244.2,105.9c-1.5-2.1-3.8-3.8-6.7-5.2l1.1-3.3c1.1,0.5,2,1,2.8,1.6c1,0.8,2,2,3.1,3.4l6.9-5.2
				c-0.9-1.8-2.5-3.5-4.6-5.2c-1.7-1.3-3.5-2.4-5.3-3.2l1.2-3.5l-3.4-1.2l-1.2,3.6c-1.6-0.3-3.2-0.4-4.9-0.2c-2.3,0.3-4.4,1-6.1,2.1
				c-1.7,1.2-2.9,2.7-3.5,4.6c-0.8,2.4-0.4,4.6,1.2,6.8c1.4,2,3.8,3.8,7.1,5.5l-1.2,3.6c-0.9-0.4-1.8-1-2.8-1.7
				c-1.5-1.1-2.6-2.2-3.3-3.3l-8,5.1c0.8,2,2.3,3.9,4.3,5.7c2,1.7,4.1,2.9,6.5,3.8l-1.3,3.7l3.4,1.2l1.3-3.9
				c1.6,0.3,3.1,0.3,4.6,0.1c2.5-0.3,4.6-1,6.3-2.3c1.8-1.3,3-2.9,3.6-4.8C246.3,110.7,245.9,108.2,244.2,105.9z M233.5,98.7
				c-0.5-0.3-0.6-0.8-0.4-1.3c0.3-0.8,1-1.1,2.1-1.1l-0.9,2.8C233.9,99,233.7,98.9,233.5,98.7z M234.4,110.8c-0.1,0-0.2,0-0.3,0
				l0.9-2.7c0.2,0.1,0.4,0.2,0.5,0.3c0.4,0.3,0.5,0.7,0.3,1.2C235.6,110.2,235.1,110.6,234.4,110.8z"/>
			<path class="st9" d="M241.4,104.9c-1.5-2.1-3.8-3.8-6.7-5.2l1.1-3.3c1.1,0.5,2,1,2.8,1.6c1,0.8,2,2,3.1,3.4l6.9-5.2
				c-0.9-1.8-2.5-3.5-4.6-5.2c-1.7-1.3-3.5-2.4-5.3-3.2l1.2-3.5l-3.4-1.2l-1.2,3.6c-1.6-0.3-3.2-0.4-4.9-0.2c-2.3,0.3-4.4,1-6.1,2.1
				c-1.7,1.2-2.9,2.7-3.5,4.6c-0.8,2.4-0.4,4.6,1.2,6.8c1.4,2,3.8,3.8,7.1,5.5l-1.2,3.6c-0.9-0.4-1.8-1-2.8-1.7
				c-1.5-1.1-2.6-2.2-3.3-3.3l-8,5.1c0.8,2,2.3,3.9,4.3,5.7c2,1.7,4.1,2.9,6.5,3.8l-1.3,3.7l3.4,1.2l1.3-3.9
				c1.6,0.3,3.1,0.3,4.6,0.1c2.5-0.3,4.6-1,6.3-2.3c1.8-1.3,3-2.9,3.6-4.8C243.5,109.8,243.1,107.2,241.4,104.9z M230.7,97.8
				c-0.5-0.3-0.6-0.8-0.4-1.3c0.3-0.8,1-1.1,2.1-1.1l-0.9,2.8C231.1,98,230.8,97.9,230.7,97.8z M231.5,109.8c-0.1,0-0.2,0-0.3,0
				l0.9-2.7c0.2,0.1,0.4,0.2,0.5,0.3c0.4,0.3,0.5,0.7,0.3,1.2C232.8,109.2,232.3,109.6,231.5,109.8z"/>
		</g>
	</g>
	<g>
		<g>
			<g>
				<path class="st10" d="M63.4,113.4c0.4-1.4,0.8-2.6,1.2-3.9c0.4-1.3,0.9-2.5,1.3-3.7c0.9-2.5,1.9-4.9,3-7.3
					c2.1-4.8,4.5-9.5,7.1-14c5.2-9.1,11.4-17.7,18.4-25.6c7-7.9,14.8-15.2,23.3-21.5c8.5-6.3,17.7-11.8,27.4-16.4
					c9.7-4.4,19.8-7.9,30.2-10.6c2.6-0.6,5.2-1.1,7.8-1.7l3.9-0.8l3.9-0.6l7.9-1.2l7.9-0.8c21.2-1.9,42.5-0.7,63.3,2.4l-4,22.4
					c-19.2-4.1-38.7-6.3-58.2-5.8l-7.3,0.2l-7.2,0.7l-3.6,0.3l-3.6,0.6c-2.4,0.4-4.8,0.7-7.2,1.1c-9.5,1.9-18.8,4.5-27.9,7.9
					c-18,7.1-34.6,17.8-48.4,31.7c-6.9,6.9-13.1,14.6-18.6,22.8c-2.7,4.1-5.2,8.4-7.5,12.7c-1.1,2.2-2.2,4.4-3.2,6.6
					c-0.5,1.1-1,2.2-1.4,3.4c-0.5,1.1-0.9,2.3-1.3,3.3L63.4,113.4z"/>
			</g>
			<polygon class="st10" points="49.7,97.8 93.3,114.8 57.7,139.1 			"/>
		</g>
	</g>
</g>
<g id="Layer_1">
</g>
</svg>
