<?xml version="1.0" encoding="utf-8"?>
<!-- Generator: Adobe Illustrator 24.3.0, SVG Export Plug-In . SVG Version: 6.00 Build 0)  -->
<svg version="1.1" xmlns="http://www.w3.org/2000/svg" xmlns:xlink="http://www.w3.org/1999/xlink" x="0px" y="0px"
	 viewBox="0 0 500 347" style="enable-background:new 0 0 500 347;" xml:space="preserve">
<style type="text/css">
	.st0{fill:#DA4139;}
	.st1{fill:#E6E6E6;}
	.st2{fill:#76D3C7;}
	.st3{fill:none;stroke:#B3B3B3;stroke-width:2.8947;stroke-linecap:round;stroke-linejoin:round;stroke-miterlimit:10;}
	.st4{fill:#55BCB3;}
	.st5{fill:#FFFFFF;}
</style>
<g id="_x39_8">
	<g>
		<g>
			<path class="st0" d="M396,258.5c0,0,0.5,26.9-16.6,51.8c-17.1,24.9-48.6,36.1-48.6,36.1s-39-36.9-69.3-65.4
				c-7.1-6.7-13.8-13-19.4-18.2c-0.3-2.6-1.7-10.2-3.7-20.8c-3.8-19.4-9.6-48.9-14.5-76.2c3.2-5.8,6.8-11.5,9.4-17.5
				c0.5-1.1,1-2.3,1.4-3.4c0.2-0.4,0.3-0.9,0.5-1.3c2.1,2.1,4.2,4.2,6.5,6.5c8.4,8.3,17.9,17.2,26.7,24.4
				c5.5,4.5,10.7,8.4,15.1,10.9C302.8,196.5,396,258.5,396,258.5z"/>
		</g>
		<g>
			<path class="st0" d="M79.4,167.7c10.6-4.5,29.2,7.6,37.7,13.1c0,0,0,0,0.1,0c7.5,4.9,15.3,12,14.9,21c-0.1,3-1.3,6.1-3.6,8
				c-0.3,0.2-0.6,0.5-0.9,0.7c-4.6,2.9-11.1,1-16.2-1.5C103.8,205.4,57.8,176.9,79.4,167.7z"/>
			<path class="st0" d="M129,179.7c-10.3,5.1-29.5-5.6-38.4-10.6c0,0-0.1-0.1-0.1-0.1c-7.8-4.4-16-11-16.3-20
				c-0.1-3,0.9-6.2,3.1-8.3c1.2-1.1,2.6-1.8,4.2-2.2c4-1,8.9,0.3,13,2C102.3,143.7,150.1,169.2,129,179.7z"/>
			<path class="st0" d="M127.3,155.5c-10.8,4-28.9-8.8-37.2-14.7c-1.1-0.8-2.3-1.7-3.4-2.6c-6.1-5-11.3-11.4-10.7-19
				c0.2-3,1.5-6.1,4-7.9c1.1-0.9,2.4-1.4,3.7-1.6c4.3-0.9,9.3,1,13.4,3.2C104.4,116.9,149.3,147.2,127.3,155.5z"/>
			<path class="st0" d="M123.8,123.7c-10.8,4-28.9-8.8-37.2-14.7c-1.1-0.8-2.3-1.7-3.4-2.6c-6.1-5-11.3-11.4-10.7-19
				c0.2-3,1.5-6.1,4-7.9c1.1-0.9,2.4-1.4,3.7-1.6c4.3-0.9,9.3,1,13.4,3.2C101,85.1,145.9,115.4,123.8,123.7z"/>
		</g>
		<g>
			<g>
				<path class="st1" d="M242.8,13.9l0.1,9.7l1.8,236.4l0.2,27.1c0.1,7.7-6.1,14-13.8,14.1l-118.8,0.9c-7.7,0.1-14-6.1-14.1-13.8
					l-0.2-28L96.2,23.8l0-6.3C96.1,8.5,103.4,1.1,112.5,1l116.3-0.9C236.5,0,242.8,6.2,242.8,13.9z"/>
				<polygon class="st2" points="236.5,30.1 239.3,260.6 105,260.7 103.9,172.6 102.1,30.3 227.5,30.1 				"/>
				<path class="st3" d="M174.2,15.5c-0.3-3.2-3.1-5.5-6.2-5.3c-3.2,0.3-5.5,3.1-5.3,6.2c0.3,3.2,3.1,5.5,6.2,5.3
					C172.1,21.5,174.5,18.7,174.2,15.5z"/>
				<path class="st4" d="M236.5,30.1l2.8,230.4L105,260.7l-1.1-88.1c3.2-1.3,6.3-2.8,9.3-4.4c8.9-4.9,16.9-11.2,24.6-17.7
					c14.8-12.5,29.2-25.8,41.2-41.1c19.1-24.4,31.7-53.2,48.5-79.3L236.5,30.1z"/>
			</g>
			<g>
				<g>
					<path class="st5" d="M217.1,139.5c2.2,26.2-17.2,49.2-43.4,51.4c-11.7,1-22.8-2.3-31.7-8.7c-2.2-1.5-4.2-3.3-6.1-5.2
						c-7.6-7.6-12.7-17.9-13.7-29.5c-2.2-26.2,17.2-49.2,43.4-51.4c14.5-1.2,28,4.1,37.5,13.6c0.4,0.4,0.9,0.9,1.3,1.3
						C211.5,118.6,216.1,128.5,217.1,139.5z"/>
					<g>
						<path class="st4" d="M162.6,174.3c-2.5,0-5-0.8-7-2.6L141,159.4c-4.6-3.9-5.2-10.7-1.3-15.3c3.9-4.6,10.7-5.2,15.3-1.3
							l6.3,5.3l21.2-25.1c3.9-4.6,10.7-5.2,15.3-1.3c4.6,3.9,5.2,10.7,1.3,15.3L171,170.4C168.8,173,165.7,174.3,162.6,174.3z"/>
					</g>
				</g>
			</g>
		</g>
		<g>
			<path class="st0" d="M267.1,196.6c-0.4,5.1,1,11.9,2.6,19.1c3,13,7,27.5,4.3,37.3c-0.5,1.8-1.2,3.4-2.1,4.8
				c-6,8.9-26.9-8.9-33-15.1c-0.2-0.2-0.4-0.4-0.6-0.6c-6-6.2-11.3-13.2-15.1-20.9c-6.8-13.6-9.2-29.9-4.3-44.3
				c1.3-3.8,3-7.4,4.9-10.9c3.2-5.8,6.8-11.5,9.4-17.5c0.5-1.1,1-2.3,1.4-3.4c0.2-0.4,0.3-0.9,0.5-1.3c2.7-8,3.6-16.7,5.2-25.1
				c1.2-6.1,2.7-12,5.7-17.5c2.8-5.1,8.1-10,13.7-8.4c5.8,1.8,7.3,9.2,7.7,15.3c1.4,22.1,1.7,44.3,0.9,66.4
				C268,181.8,267.6,189.2,267.1,196.6z"/>
		</g>
	</g>
</g>
<g id="Layer_1">
</g>
</svg>
