<?xml version="1.0" encoding="utf-8"?>
<!-- Generator: Adobe Illustrator 24.3.0, SVG Export Plug-In . SVG Version: 6.00 Build 0)  -->
<svg version="1.1" id="Layer_1" xmlns="http://www.w3.org/2000/svg" xmlns:xlink="http://www.w3.org/1999/xlink" x="0px" y="0px"
	 viewBox="0 0 446.1 465.9" style="enable-background:new 0 0 446.1 465.9;" xml:space="preserve">
<style type="text/css">
	.st0{fill:#F7A605;}
	.st1{fill:#55BCB3;}
</style>
<g>
	<path class="st0" d="M232.5,116c0,63.8-51.9,115.9-115.6,116C52.7,232,0.5,180.2,0.5,116.5C0.4,52.1,52.1,0,116.1,0
		C180.5,0,232.4,51.7,232.5,116z M116.6,203.9c49.2-0.5,88.3-40,87.9-88.8c-0.5-48.6-40.2-87.6-88.9-87.2
		c-48.3,0.4-87.5,40.4-87,88.9C28.9,165,68.7,204.4,116.6,203.9z"/>
	<path class="st0" d="M213.8,350.2c-0.2-64.1,51.7-116.1,115.9-116.2c63.8-0.1,115.9,51.7,116.1,115.4
		c0.2,64.1-51.6,116.3-115.3,116.4C266,466,214,414.4,213.8,350.2z M329.9,261.9c-48.3-0.1-87.9,39.2-88.1,87.5
		c-0.2,48.8,39.1,88.4,87.9,88.5c48.5,0.2,87.9-39.3,88.1-88.1C417.9,301.5,378.4,262,329.9,261.9z"/>
	<path class="st0" d="M209.1,314.7c-6.6,23.5-6.7,46.7,0,70.2c-30.2,0-60,0-90.3,0c0,2.7,0,5.1,0,7.4c0,3.6,0,7.2,0,10.8
		c-0.1,11.3-11.3,17.8-21.1,12.1c-13.8-8-27.4-16.2-41.2-24.3c-16.1-9.5-32.2-19-48.3-28.6c-10.4-6.2-10.6-18.6-0.2-24.8
		c29.8-17.7,59.7-35.4,89.7-53c9.8-5.8,21,0.7,21,12.1c0,5.9,0,11.7,0,17.9C148.9,314.7,178.8,314.7,209.1,314.7z"/>
	<path class="st0" d="M327.5,151.1c-30.2,0-60,0-90.3,0c3.2-11.7,5-23.2,5-35c0-11.8-1.7-23.5-5-35.3c1.6,0,2.7,0,3.9,0
		c27.7,0,55.4,0,83.2,0c2.6,0,3.5-0.6,3.4-3.3c-0.2-4.8-0.1-9.6-0.1-14.4c0.1-12,11.2-18.3,21.7-12.2c12.8,7.5,25.5,15.1,38.3,22.6
		c16.9,10,33.8,19.9,50.6,29.9c6.8,4,9.5,10.7,6.6,17.3c-1.2,2.7-3.4,5.5-5.9,6.9c-29.9,17.9-60,35.6-90.1,53.3
		c-10.2,6-21.1-0.5-21.2-12.4C327.5,163,327.5,157.3,327.5,151.1z"/>
	<path class="st0" d="M344.8,403.7c-4.3,0-8.3,0-12.3,0c0-4.8-0.3-9.5,0.1-14.1c0.4-3.8,2.7-5.4,6.2-5.2c3.4,0.2,5.8,2.4,6,6
		C344.9,394.7,344.8,399.1,344.8,403.7z"/>
	<path class="st0" d="M313.7,403.7c0-4.4-0.2-8.6,0.1-12.7c0.2-3,1.9-4.2,4.7-4.3c3-0.1,5,1,5.3,4c0.4,4.2,0.1,8.6,0.1,13.1
		C320.7,403.7,317.3,403.7,313.7,403.7z"/>
	<path class="st0" d="M38.2,115.8c0.2,43.9,35.3,78.7,79.2,78.5c42.7-0.2,77.7-35.7,77.5-78.5c-0.2-43.4-35.4-78.2-79-78
		C73.1,37.8,38,73.2,38.2,115.8z"/>
	<path class="st0" d="M400.3,315.7c-12.8-26.3-39.8-44.3-71.2-44.1c-42.6,0.2-77.8,35.6-77.6,78.1c0,0,0,0,0,0c0,0,0,0,0,0.1
		c0.1,43.4,35,78.4,78.4,78.4c37.8,0,69.5-27,76.7-62.9c0.2-0.9,0.3-1.8,0.5-2.7c0.1-0.3,0.1-0.7,0.2-1c0.6-3.6,0.8-7.4,0.9-11.1
		c0-0.3,0-0.5,0-0.8c0-10.9-2.3-21.2-6.3-30.6c-0.2-0.4-0.4-0.9-0.6-1.3C400.9,317.1,400.6,316.4,400.3,315.7z"/>
</g>
</svg>
