<?xml version="1.0" encoding="utf-8"?>
<!-- Generator: Adobe Illustrator 24.3.0, SVG Export Plug-In . SVG Version: 6.00 Build 0)  -->
<svg version="1.1" id="Layer_1" xmlns="http://www.w3.org/2000/svg" xmlns:xlink="http://www.w3.org/1999/xlink" x="0px" y="0px"
	 viewBox="0 0 446.1 465.9" style="enable-background:new 0 0 446.1 465.9;" xml:space="preserve">
<style type="text/css">
	.st0{fill:#55BCB3;}
	.st1{fill:#F7A605;}
</style>
<g>
	<path class="st1" d="M112.3,336.4c35.1,34.8,75.4,51.2,122.3,46.3c60.4-6.3,102.2-39.3,126.3-94.8c2.8-6.6,6.7-9.8,14-9.7
		c18.6,0.3,37.3,0,56,0.1c10.5,0.1,14.5,5.2,11.4,15.2c-28.1,90.8-88.5,147.7-181.9,165.2c-75,14-141.4-7.8-197.4-60.1
		c-1.7-1.6-3.5-3.3-5.8-5.5c-11.9,11.9-23.7,23.7-35.5,35.5c-2,2-4,4.2-6.3,5.8c-6.3,4.4-13.9,1-15.1-6.6c-0.3-2.1-0.2-4.3-0.2-6.4
		c0-42.3,0-84.7,0-127c0-12.5,2.6-15.1,15.2-15.1c42.3,0,84.7,0,127,0c1,0,2.1-0.3,2.8,0.1c3.8,1.9,8.6,3.2,10.9,6.3
		c3.1,4.1,0.2,8.5-3.3,12c-11.2,11.1-22.3,22.4-33.5,33.4C117.4,333,115.1,334.3,112.3,336.4z"/>
	<path class="st1" d="M388.9,72.7c12.8-12.9,25.1-25.2,37.4-37.6c3.6-3.6,7.1-7.4,13-5.2c6.1,2.3,6.6,7.4,6.6,12.9
		c-0.1,43.3,0,86.6-0.1,129.9c0,10.6-3.1,13.7-13.7,13.7c-43.3,0.1-86.6,0-129.8,0c-5.3,0-10.2-0.6-12.6-6.2
		c-2.4-5.6,0.8-9.5,4.5-13.2c12.7-12.6,25.4-25.3,38.4-38.4c-14.6-15.8-31.6-27.5-51.1-35.2c-78.7-31.2-164.1,5.3-196.2,83.7
		c-2.9,7.2-7,10.5-15,10.4c-18.6-0.4-37.3,0-56-0.2c-9.7-0.1-13.7-5.3-10.9-14.4C31.7,81.5,92.3,24.3,186.4,7
		C262-6.9,328.6,15.5,384.6,68.7C385.8,69.8,387,70.9,388.9,72.7z"/>
</g>
</svg>
