<?xml version="1.0" encoding="utf-8"?>
<!-- Generator: Adobe Illustrator 24.3.0, SVG Export Plug-In . SVG Version: 6.00 Build 0)  -->
<svg version="1.1" id="Layer_1" xmlns="http://www.w3.org/2000/svg" xmlns:xlink="http://www.w3.org/1999/xlink" x="0px" y="0px"
	 viewBox="0 0 446.1 445" style="enable-background:new 0 0 446.1 445;" xml:space="preserve">
<style type="text/css">
	.st0{fill:#F7A605;}
	.st1{fill:#55BCB3;}
</style>
<g>
	<path class="st0" d="M222.7,317.8c-87.7,0-159-71.4-159-159.2C63.7,71.4,135.1,0,222.5,0c87.4,0,159,71.3,159,158.5
		C381.6,246.4,310.4,317.8,222.7,317.8z M206.7,223c0,5.5-0.1,9.4,0,13.4c0.2,10.7,6.7,18,16,17.8c9.3-0.1,15.5-7.3,15.7-18.2
		c0-2.1,0.3-4.3,0-6.3c-0.7-5.2,1.2-7.7,6.3-9.8c17.3-7,26.4-24.1,24-43c-2.2-16.8-16.1-30.9-33.7-33.3c-6-0.8-12.2-0.5-18.2-0.4
		c-5.4,0-9.8-1.8-9.9-7.7c-0.1-6.5,4.5-8.3,10.2-8.2c11.9,0.1,23.8,0.2,35.7-0.1c9.7-0.2,16.3-6.8,16.2-15.9c0-9-6.6-15.4-16.4-15.7
		c-4.6-0.2-9.3,0-14.3,0c0-5.5,0.1-9.7,0-13.9c-0.2-10.7-6.7-17.9-16-17.8c-9.3,0.1-15.5,7.3-15.7,18.2c-0.1,4.7,0,9.4,0,13.9
		c-2.8,1-4.8,1.7-6.7,2.5c-16.7,6.8-26.8,23.5-24.9,41.1c2,18,15.8,32.4,33.9,34.9c5.5,0.8,11.1,0.5,16.6,0.5
		c6.2-0.1,11.6,0.9,11.5,8.6c0,7.3-5.5,8.1-11.2,8.1c-11.6,0-23.3-0.2-34.9,0.1c-9.7,0.3-16.3,7.3-16.1,16.1
		c0.2,8.6,6.6,14.9,16,15.4C195.9,223.2,200.9,223,206.7,223z"/>
	<path class="st0" d="M222.6,445c-56.7,0-113.3,0-170,0C19.7,445,0.1,425.5,0,392.8c0-19.1-0.1-38.1,0-57.2
		c0.2-29.1,20.5-48.5,49.5-49.9c19.6-0.9,34.2,3.9,49.8,17.6c75.7,66.6,190,60.6,259.9-12c3.8-4,7.6-5.7,13.1-5.5
		c8.5,0.4,16.9,0,25.4,0.2c26.3,0.6,46.7,20.8,47.2,47.1c0.4,20.9,0.2,41.8,0.1,62.7c-0.2,28.6-20.6,49-49.3,49
		C338.1,445.1,280.3,445,222.6,445z M223,365.5c-40.5,0-81,0-121.6,0c-2.4,0-4.8-0.1-7.1,0.1c-8.4,0.9-14.8,7.8-14.7,16
		c0.1,7.9,6.2,14.6,14.3,15.5c2.4,0.3,4.8,0.1,7.1,0.1c81,0,162.1,0,243.1,0c2.1,0,4.2,0.1,6.4-0.1c8.6-0.8,14.9-7.4,15-15.6
		c0.1-8.5-6.5-15.3-15.5-16c-2.1-0.2-4.2-0.1-6.4-0.1C303.5,365.5,263.2,365.5,223,365.5z"/>
</g>
</svg>
