<?xml version="1.0" encoding="utf-8"?>
<!-- Generator: Adobe Illustrator 24.3.0, SVG Export Plug-In . SVG Version: 6.00 Build 0)  -->
<svg version="1.1" id="Layer_1" xmlns="http://www.w3.org/2000/svg" xmlns:xlink="http://www.w3.org/1999/xlink" x="0px" y="0px"
	 viewBox="0 0 447.8 445" style="enable-background:new 0 0 447.8 445;" xml:space="preserve">
<style type="text/css">
	.st0{fill:#F7A605;}
	.st1{fill:#55BCB3;}
</style>
<g>
	<path class="st1" d="M346.4,293.9c33.9,21.4,67.2,42.3,101.3,63.8c-47.2,29.8-93.7,59.1-141.2,89c0-13,0-25.1,0-37.9
		c-3.6-0.2-6.3-0.4-8.9-0.4c-33.1,0-66.2,0.2-99.3-0.1c-45.7-0.3-81.4-30.8-88.3-75.8c-1.3-8.1-0.2-16.5-0.2-25.7
		c31.4,39.3,71.5,59.8,121.6,57.1C281.7,361.3,319.3,336.6,346.4,293.9z"/>
	<path class="st1" d="M141.3,38.4c3.8,0,6.6,0,9.3,0c33.1,0,66.2-0.2,99.3,0.1c45.3,0.4,80.7,30.9,87.8,75.6
		c1.3,8.2,0.9,16.6,0.7,25.4c-31.7-38.6-71.8-59.2-121.9-56.6c-50.3,2.6-88,27.3-115.3,70.1C67.8,131.8,34.4,110.8,0,89.1
		C47.3,59.3,93.8,30,141.3,0C141.3,13.1,141.3,25.1,141.3,38.4z"/>
	<path class="st1" d="M224,108.9c-63.3,0-114.7,51.3-114.7,114.7S160.6,338.2,224,338.2s114.7-51.3,114.7-114.7
		S287.3,108.9,224,108.9z M224,298.5c-41.4,0-74.9-33.5-74.9-74.9s33.5-74.9,74.9-74.9s74.9,33.5,74.9,74.9S265.3,298.5,224,298.5z"
		/>
	<circle class="st1" cx="224" cy="223.6" r="46.1"/>
</g>
</svg>
