<?xml version="1.0" encoding="utf-8"?>
<!-- Generator: Adobe Illustrator 24.3.0, SVG Export Plug-In . SVG Version: 6.00 Build 0)  -->
<svg version="1.1" id="Layer_1" xmlns="http://www.w3.org/2000/svg" xmlns:xlink="http://www.w3.org/1999/xlink" x="0px" y="0px"
	 viewBox="0 0 396.4 445" style="enable-background:new 0 0 396.4 445;" xml:space="preserve">
<style type="text/css">
	.st0{fill:#F7A605;}
	.st1{fill:#55BCB3;}
</style>
<g>
	<path class="st0" d="M227.1,110.5c8.2,10.7,15.9,21.3,24.3,31.4c2.3,2.8,7.1,6.3,9.6,5.6c3.2-0.9,5.5-5.7,7.6-9.1
		c1.2-1.9,1.3-4.4,1.9-6.7c4-15.1,4-15.1,19.2-15.1c19.6,0,39.2-0.1,58.8,0c19.1,0.1,30.7,11.7,30.8,31c0.1,20.9,0,41.7,0,63.8
		c-3.2,0-5.9,0-8.6,0c-18.8,0-37.6-0.1-56.5,0c-39.2,0.2-69.8,30.2-70.1,68.5c-0.3,38.9,29.8,69.3,69.5,69.9c19.3,0.3,38.7,0,58,0.1
		c2.3,0,4.5,0.3,7.7,0.5c0,11.9,0,23.4,0,34.9c0,10.1,0.1,20.1-0.1,30.2c-0.3,17.2-12.2,29.4-29.3,29.5c-107,0.1-214,0.1-321.1,0
		c-16.6,0-28.9-12.4-28.9-29.1C0,325.6,0,235.3,0.1,145.1c0-14.6,9.8-27.3,23.7-28.1c22.5-1.2,45.2-0.3,67.9-0.3
		c-1.8,9.9-4.2,19.6-5.4,29.5c-4.2,35.7,4.7,68,25.9,96.9c2.2,3,7,6,10.4,5.9c5.7-0.2,5.9-5.9,6.3-10.7
		c3.1-37.3,19.6-67.3,49.3-90.1C194.4,135.8,210.5,123.3,227.1,110.5z"/>
	<path class="st0" d="M115.1,218.8c-20.8-46.3-19-89.1,9.6-128.6c10-13.9,24.9-24.3,37.8-36.1c5.1-4.7,11-8.5,16.5-12.7
		c7.8-6.1,8.2-8.8,2.3-16.5c-6-8-12.1-15.9-19-24.9c42.9,0,84.4,0,126.7,0c-10.7,40.4-21.3,80.4-32.4,122.3
		c-6.7-8.7-12.6-16.3-18.4-23.8c-6.9-8.9-9.5-9.3-18.2-2.5c-16.5,12.7-32.9,25.7-49.6,38.2c-27,20.2-45,46.4-53.4,79.1
		C116.6,214.4,116.1,215.6,115.1,218.8z"/>
	<path class="st0" d="M396.3,281c0,12.1,0.1,24.2,0,36.3c-0.1,10.7-5.6,16.3-16.1,16.4c-22.4,0.1-44.8,0.3-67.2-0.1
		c-29.5-0.5-52.5-23.7-52.8-52.6c-0.3-29.2,22.7-53.1,52.5-53.8c22.7-0.5,45.3-0.2,68-0.1c10,0.1,15.6,6,15.7,16.1
		C396.4,255.7,396.3,268.4,396.3,281z M333.9,280.7c-0.1-11.4-9.5-20.6-20.9-20.4c-11.4,0.2-20.6,9.6-20.3,21
		c0.3,11.1,9.4,19.9,20.5,20C324.6,301.3,334,292,333.9,280.7z"/>
</g>
</svg>
